<?xml version="1.0" encoding="UTF-8"?>
<svg id="_圖層_2" data-name="圖層 2" xmlns="http://www.w3.org/2000/svg" xmlns:xlink="http://www.w3.org/1999/xlink" viewBox="0 0 241.89 376.14">
  <defs>
    <style>
      .cls-1 {
        fill: url(#_未命名漸層_10-6);
      }

      .cls-1, .cls-2, .cls-3, .cls-4, .cls-5, .cls-6, .cls-7, .cls-8, .cls-9, .cls-10, .cls-11, .cls-12, .cls-13, .cls-14, .cls-15, .cls-16, .cls-17, .cls-18 {
        stroke-width: 0px;
      }

      .cls-1, .cls-2, .cls-3, .cls-4, .cls-5, .cls-6, .cls-9 {
        fill-rule: evenodd;
      }

      .cls-2 {
        fill: url(#_未命名漸層_10-7);
      }

      .cls-3 {
        fill: url(#_未命名漸層_10-5);
      }

      .cls-4 {
        fill: url(#_未命名漸層_10-4);
      }

      .cls-5 {
        fill: url(#_未命名漸層_10-3);
      }

      .cls-6 {
        fill: url(#_未命名漸層_10-2);
      }

      .cls-7 {
        fill: url(#_未命名漸層_10-8);
      }

      .cls-8 {
        fill: url(#_未命名漸層_10-9);
      }

      .cls-9 {
        fill: url(#_未命名漸層_10);
      }

      .cls-10 {
        fill: url(#_未命名漸層_10-12);
      }

      .cls-11 {
        fill: url(#_未命名漸層_10-14);
      }

      .cls-12 {
        fill: url(#_未命名漸層_10-15);
      }

      .cls-13 {
        fill: url(#_未命名漸層_10-13);
      }

      .cls-14 {
        fill: url(#_未命名漸層_10-10);
      }

      .cls-15 {
        fill: url(#_未命名漸層_10-17);
      }

      .cls-16 {
        fill: url(#_未命名漸層_10-16);
      }

      .cls-17 {
        fill: url(#_未命名漸層_10-18);
      }

      .cls-18 {
        fill: url(#_未命名漸層_10-11);
      }
    </style>
    <linearGradient id="_未命名漸層_10" data-name="未命名漸層 10" x1="0" y1="188.07" x2="208.5" y2="188.07" gradientUnits="userSpaceOnUse">
      <stop offset="0" stop-color="#fcf0d8"/>
      <stop offset="1" stop-color="#cead82"/>
    </linearGradient>
    <linearGradient id="_未命名漸層_10-2" data-name="未命名漸層 10" x1="113.92" y1="341.95" x2="138.9" y2="341.95" xlink:href="#_未命名漸層_10"/>
    <linearGradient id="_未命名漸層_10-3" data-name="未命名漸層 10" x1="115.91" y1="348.04" x2="146.89" y2="348.04" xlink:href="#_未命名漸層_10"/>
    <linearGradient id="_未命名漸層_10-4" data-name="未命名漸層 10" x1="100.39" y1="181.06" x2="241.89" y2="181.06" xlink:href="#_未命名漸層_10"/>
    <linearGradient id="_未命名漸層_10-5" data-name="未命名漸層 10" x1="88.05" y1="324.33" x2="105.35" y2="324.33" xlink:href="#_未命名漸層_10"/>
    <linearGradient id="_未命名漸層_10-6" data-name="未命名漸層 10" x1="83.59" y1="314.06" x2="92.17" y2="314.06" xlink:href="#_未命名漸層_10"/>
    <linearGradient id="_未命名漸層_10-7" data-name="未命名漸層 10" x1="51.82" y1="323.16" x2="78.19" y2="323.16" xlink:href="#_未命名漸層_10"/>
    <linearGradient id="_未命名漸層_10-8" data-name="未命名漸層 10" x1="65.88" y1="347.22" x2="119.53" y2="347.22" xlink:href="#_未命名漸層_10"/>
    <linearGradient id="_未命名漸層_10-9" data-name="未命名漸層 10" x1="86.07" y1="337.13" x2="89.91" y2="337.13" xlink:href="#_未命名漸層_10"/>
    <linearGradient id="_未命名漸層_10-10" data-name="未命名漸層 10" x1="89" y1="311.34" x2="99.5" y2="311.34" xlink:href="#_未命名漸層_10"/>
    <linearGradient id="_未命名漸層_10-11" data-name="未命名漸層 10" x1="61.46" y1="333.51" x2="71.21" y2="333.51" xlink:href="#_未命名漸層_10"/>
    <linearGradient id="_未命名漸層_10-12" data-name="未命名漸層 10" x1="61.89" y1="328.37" x2="66.5" y2="328.37" xlink:href="#_未命名漸層_10"/>
    <linearGradient id="_未命名漸層_10-13" data-name="未命名漸層 10" x1="48.15" y1="327.72" x2="53.91" y2="327.72" xlink:href="#_未命名漸層_10"/>
    <linearGradient id="_未命名漸層_10-14" data-name="未命名漸層 10" x1="47.08" y1="324.46" x2="52.92" y2="324.46" xlink:href="#_未命名漸層_10"/>
    <linearGradient id="_未命名漸層_10-15" data-name="未命名漸層 10" x1="67.45" y1="316.95" x2="85.59" y2="316.95" xlink:href="#_未命名漸層_10"/>
    <linearGradient id="_未命名漸層_10-16" data-name="未命名漸層 10" x1="34.17" y1="327.4" x2="42.66" y2="327.4" xlink:href="#_未命名漸層_10"/>
    <linearGradient id="_未命名漸層_10-17" data-name="未命名漸層 10" x1="63.85" y1="329.23" x2="73.52" y2="329.23" xlink:href="#_未命名漸層_10"/>
    <linearGradient id="_未命名漸層_10-18" data-name="未命名漸層 10" x1="164.96" y1="356.77" x2="172.77" y2="356.77" xlink:href="#_未命名漸層_10"/>
  </defs>
  <path class="cls-9" d="m186.24,7.94c4.6,2.19,10.14,3.32,15.38,4.68l.78.78,1.06.49c-.13.35-.64.49-.64,1.21,2.48-.29,1.92,2.61,3.76,2.98l.78.78,1.06.35c-1.21,1.7.64,3.05-.64,5.04l.44.91.28.78c-1.21,1.48-2.06,3.4-2.98,5.1-27.79,16.38-70.9,10.71-108.82,13.55-1.5-1.06-3.47-1.48-4.89-2.34-8.44,1.28-17.16-1.13-25.74-2.19-15.67-1.92-31.46-2.92-42.38-9.86-3.41,3.4-8.65,5.95-10.28,11.83-.51,1.7-.22,4.11-.58,6.1-.84,4.47-2.76,9.5-3.47,14.61-2.56,20.41-2.76,47.43,6.95,64.87,1.28,2.34,2.56,4.75,3.82,6.66.93,1.55,2.63,2.76,3.62,4.33.93,1.48,1.07,3.47,1.84,4.82,11.77,17.86,32.97,26.02,48.99,37.28,2.13-.15,3.56.99,5.53,1.77,1.57.78,3.98.99,5.39,1.77,1.5.78,1.92,2.41,3.27,2.98,1.42.93,3.4.57,4.89,1.28.49.29.64,1.42,1.13,1.84.64.29,1.92.15,2.63.49,3.4,2.85,5.17,7.74,9.79,9.15,11.41,14.26,6.52,46.37,2.69,64.8-.57,14.88-1.55,31.33-4.97,46.01l-.91-.35-.93.42c-.28-.57-.71-1.06-.71-1.84-.99-1.63-1.48,2.76-4.18,1.92l.29-1.21-.93-.64c.22-1.06-.42-1.35-1.2-1.35-3.33.07-8.29,1.06-12.26,1.5-6.74.64-15.54,3.75-21.98,6.37-5.6,2.26-12.05,4.6-14.53,8.73l.29.64.35.49c-2.48.64-4.4,3.89-6.74,2.68l.36-1.2-1-.64c.42-2.26,2.77-2.61,2.98-4.95-2.41,1.77-8.64,3.11-8.44,5.66l-.28.93.28.91c-.15,1.06-2.12.29-2.34,1.21.29,4.97,1.7,8.8,5.04,12.69,4.18,5.11,7.58,7.87,15.45,11.41,1.42.78,3.19,1.7,4.89,2.48,16.38,7.3,45.23,9.86,66.71,10.77,4.75.22,12.4.36,16.65-.28,3.69-.36,7.23-2.56,10.92-3.83,5.53-1.63,9.36-.71,12.2-4.97l.99.29.93-.29c1.28,1.64,6.24-1.55,4.75-2.48l.29-.91-.29-.91c1.06-1.07,3.34-.86,4.33-1.92,2.76-13.76-10.85-15.81-16.23-23.11-10.64-4.89-24.32-6.81-32.61-14.26,2.9-4.25,7.72-.06,11.12,1.07,1.84.77,4.05,1.06,6.03,1.77,6.24,2.26,15.81,4.97,22.77,7.8,1.13.92.07,1.42.07,2.98,5.66,2.76,9.99,7.16,15.45,10.28.42,3.83.99,7.45,2.48,10.35-2.06,4.53-2.34,8.71-5.88,11.63-3.27,2.69-11.35,4.89-17.09,7.01-1.13.42-2.06,1.55-2.98,1.85-3.69.99-8.73.29-11.13,3.19l-.92.2.35.93c-1.55.49-8.51-1.28-10.92,1.35l-.71-.22-.49.28c-10.99.93-25.09,1.5-37.36-.06-3.96-.51-7.72-1.77-11.63-1.71-1.35,0-2.61.57-3.69.57-7.23.64-15.3-.42-21.97.29l-1.21-.29-.64.93c-1.99-.71-4.05-1.35-6.81-1.06l-.42-.93-.93.29v-1.21c-.49.15-.49-.22-.49-.64l-.42-.49-.29-.71c4.18-2.7,11.21,2.61,15.32.49-1.42-2.26-4.62-1.77-6.81-2.41-6.32-2.06-13.11-5.39-19.57-7.72-.77-.78-.77-2.21-.7-3.69-9.15-3.69-21.56-9.57-19.3-22.9.71-4.25,4.05-6.59,5.4-11.21,4.68-3.89,9.13-7.23,15.87-10.63,1.7-.78,3.76-2.56,5.33-3.05,9.77-3.34,22.33-1.77,33.67-2.26,8.44-.36,16.23-3.69,23.32-.36-.28-6.94-1.41-12.47-.28-20.14.35-3.33,2.05-6.59,2.26-10.41.42-4.97-.64-11.14,1.13-14.75,1.5-3.12,1.28-10.28,1.63-17.16.44-12.55,3.12-22.61-.49-33.6-1.48-4.47-4.38-5.39-8.07-9.15-2.35-2.48-3.56-5.68-6.17-6.66-2.26-.91-4.68-1.35-6.74-2.26-2.13-.93-3.54-2.06-5.6-3.12-3.82-1.92-8.58-2.63-12.33-4.67-1.99-1.21-3.34-3.41-5.68-4.82-1.92-1.28-4.6-1.64-6.66-2.98-2.48-1.57-4.68-4.25-7.38-6.1-2.83-1.77-6.37-2.98-8.65-4.75-5.81-4.47-10.28-10.71-15.45-15.1-.49-1.79-.71-3.69-1.92-4.89-5.73-4.33-8.22-11.77-13.04-16.94.35-3.05-.93-4.4-2.55-5.46-1.21-8.16-3.12-11.43-3.27-20.07.07-2.56-2.76-1.99-2.61-4.4,1.97-.91.99-4.75,1.06-7.38l-.15-12.83c1.42-3.67,2.48-6.79,1.77-11.05,1.92-6.24,3.98-14.46,4.75-20.78.15-3.27-.2-6.3,1-9.22.42-.99,1.97-1.55,2.41-2.48.71-1.41.07-2.9.57-3.67,1.77-2.92,5.1-5.04,7.38-7.45.42-1.92.28-4.47,1.7-5.6,1.7,0,4.04.42,4.89-.57C38.92,6.23,61.39,4.04,85.14,3.82c8.93-.28,21.69-2.12,32.39-1.77,7.3.29,15.17,2.35,20.85-2.05l47.85,7.94Zm-8.93,25.31c-.07,1.28-2.06,1.06-1.84,3.05,9-2.63,18.42-4.75,25.09-9.57-.15-1.99,1.06-2.63.42-4.82-6.08-4.62-15.3-8.3-25.16-10.22-1.06-.06-2.48.22-3.69.07-7.65-.91-14.61-5.17-22.55-2.69-15.67-4.33-38.27-1.28-58.9-1.77-13.97,6.66-42.61.77-53.66,11.76-3.98-.49-8.58,2.06-9.66,6.17,5.6,5.46,13.89,5.11,21.42,6.45,20.28,3.69,42.54,6.24,65.02,7.74,10.06.77,21.05-1.35,29.98.99-2.7-3.34.86-3.47,1.77-6.24-1.35-.64-2.56-3.4-4.33-1.84l-.77-.91-1.07.49c.44-2.34-.91-2.41-.71-4.33-1.55.07-3.03.07-3.03-1.21,1.41-5.17-.93-13.33.99-16.52,6.17,2.7,1.84,11.92,4.6,16.45,1.42-1.48.44-5.17,1.64-6.74l.91.29.93-.35c.13.49.77.42,1.26.49,2.41-.78.22-6.03,2.35-7.23,1.7,1.55,3.67-.07,4.82-.71-.57,2.76-.78,5.95-2.28,7.87h1.84l-.35,1.21.91.71c-.2,2.05-3.4,1.48-3.54,3.74,1.92,1.5,3.19-1.41,5.46-1.33l.78.77,1.06.44c-.99,2.9-5.53,2.26-6.03,5.59,3.98-.13,5.11-3.11,8.51-3.75l.78.77,1.13.36c-4.4,4.89-12.98,5.6-15.81,11.91,4.18.93,6.03-2.83,8.51-4.4,3.19-2.05,6.52-3.18,10.84-4.38l-.22,1.06,1,.71c-2.77,2.76-8.43,2.69-10.35,6.23,6.03.07,9.5-1.77,13.33-4.46,1.99-1.21,5.81-1.42,4.33-4.97h-1.21l.28-1.06-.92-.78c.07-1.06,2.05-.29,2.26-1.21-.22-1.7,2.83-5.17-.07-5.53-1.13.78-1.63,2.34-3.47,2.56l-.78-.78-1.06-.42c.2-.49.64-.99.49-1.84l.91-.78-.27-1.06c4.11.35,6.31-1.13,9.15-1.99,2.68,1.99,6.81,1.42,9.22,3.62.35.22-.22,1.99.06,2.34.93,1.5,3.83-.28,2.48,1.84-1.21,1.71-4.11,1.77-6.23,2.56-1,1.2.07,4.54-2.9,3.83l-.71-1-1.13.29v-1.21c-1.07,0-1.35-.78-2.41-.64.28,1.35-.51,1.55-.64,2.56h.64l-.44.99,1,.86ZM53.52,314.97c3.05.57,3.19-1.7,6.17-1.21-1.06-3.05-4.82.71-6.17,1.21Zm-23.46,30.42c-.29-2.21-1.55-3.41-2.48-4.82-.64-2.77-.42-6.24-2.56-7.38-.91,3.96-.28,10.21,5.04,12.2Z"/>
  <path class="cls-6" d="m117.68,349.15c1.2-1.71,4.4-1.35,5.53-3.05-2.56-1.28-7.3-.22-9.29-1.77,1.28-2.85,6.1-2.13,9.22-3.12,2.06-.64-.28-2.56,1.13-4.4,1.92-3.47,10.85-5.68,14.61-1.99.49,10.28-10.99,13.69-20.63,16.17l.36-1.15-.93-.7Z"/>
  <path class="cls-5" d="m115.91,355.25c11.91-2.28,21.49-6.88,26.09-16.17,2.9-.49,3.4,1.5,4.89,2.34-4.25,10.99-15.24,15.32-30.34,15.67l.29-1.06-.93-.77Z"/>
  <path class="cls-4" d="m239.76,58.9l.93-.2h1.13l-.15,1.13.22,1.35c-.15,1.41-2.06,1.06-1.63,3.05l-1.28-.44-.57,1c-.51,0-.64-.51-1.35-.51-2.34.78-2.98,3.41-6.66,3.12-.78,2.34,1.7,1.13,1.35,2.98-3.41.78-5.53,2.85-6.17,6.32,1.77.35,1.63-.93,3.05-.78l.77.86,1.07.35c-.07.57-.49.71-.49,1.21-.15.49.13.64.49.64l-.22.93.99.27c-1.97,1.57-5.95,1.13-4.82,5.61,1.57,1.99,2.7-1.77,4.82-1.28l.86.86,1.06.35c-.15.57-.71.71-.71,1.21.71,0,1.21,0,1.84-.07l-.2,1,.91.35c-2.56,1.06-5.17,1.77-7.38,3.83-1.13,1.06-2.76,1.7-1.77,3.54,4.05-1.64,7.45-3.9,11.48-5.53l.51.91.2.93v1.21l.29.84.42,1c-4.68,1.63-8.65,3.96-13.4,5.66.49,8.01-3.4,15.17-3.47,20.78,1.35-.71,1.77-2.26,3.69-2.48l.84.78.93.42c-2.7,2.13-3.76,5.89-8.51,6.17-4.6,12.41-11.41,22.69-20.98,30.34-3.62,7.3-10.08,11.34-15.81,17.36-4.4,4.75-12.62,10.08-19.28,13.69-1.99,1.13-4.62,1.34-6.66,2.41-3.34,1.77-6.59,5.52-10.35,7.51-1.21.71-3.19.49-4.25,1.28-1.57,1.13-2.06,2.41-3.62,4.4-1.57,1.7-3.76,2.98-4.82,4.97-2.41,4.25-2.34,10.56-3.48,17.22-1.48,8.16-4.46,16.87-5.24,26.31-.64,9.15-.22,18.99-1.48,27.57-1.07,7.94-1.42,21.76-.15,29.98.84,6.17-1.28,12.27.28,17.09.64,2.56,2.35,3.76,2.41,6.24-4.67-2.13-5.95,3.47-8.51,5.46-5.31-1.63-11.69,1.48-16.51-.99,1.41-2.35,5.66-2.21,8.58-3.12-1.71-4.33-1.92-11.56,2.12-13.47,2.06,1.28.64,4.97,1.5,6.03,5.59-1.06,1.41-10.57,1.55-16.45,0-2.69.99-4.97,1.13-6.81.15-2.61-.84-5.32-.71-7.87.15-4.46,2.48-9.13,2.85-14.17.13-2.26-.78-4.25-.64-6.74-.07-4.33,1.34-9.07,1.63-13.47.49-6.59-.15-13.97,1.63-21.97.86-4.82,3.54-9.07,4.69-13.55,1.13-5.24.49-10.06,2.19-14.88,1.55-1.42-.71-1.28-1.21-2.35,3.12-6.45,9.5-9.77,14.46-14.24h-1.84l.35-1.06-.91-.78c11.98-6.3,24.39-11.7,34.6-19.5,2.61-1.84,4.82-4.53,7.3-6.74,4.53-4.04,9.42-6.87,12.62-12.4,5.53-1.99,6.81-7.94,11.63-10.5,3.62-6.59,8.29-12.12,10.7-20.98,1.13-3.96,3.32-7.52,4.04-12.34.29-1.21-.28-2.48,0-3.69.86-3.18,2.14-6.59,2.28-12.25.13-2.28-.86-5.53-.71-7.94.07-1.21,1.13-1.99,1.28-3.05.06-5.53,0-11.34-.22-16.45-.15-1.06-1.21-1.99-1.35-3.19-.15-1.41.78-3.05.57-4.25-1.35-11.48-5.02-22.33-6.45-33.03,1.55-1.55,1.42,1.63,3.54,1.35,2.13-1.13,3.34-2.98,6.17-3.19l-.22,1.06.93.64c-.64,3.83-6.03,2.77-6.17,6.96.57,0,.71.57,1.28.57l-.29.91.93.22c-.29,4.53,2.48,5.81,1.97,10.42,2.48-1.92,5.26-3.76,8.51-4.97l.78.78,1.06.35c-1.48,3.69-4.26,6.03-9.15,6.38,0,1.35,1.15,1.79.71,3.63,3.48-1.71,6.03-4.2,10.35-5.04l.78.78,1.06.42c-2.56,3.62-6.1,6.1-11.48,6.87-.07,1.99,1.06,2.63.57,4.89,3.83-1.28,5.68-4.18,9.71-5.02l.86.77,1.06.44c-.15.49-.57.64-.57,1.13l-.36.92.36.93c-3.83,1.13-5.6,4.33-10.35,4.53,0,1.13.07,2.34.07,3.69,4.89-1.92,10.35-3.19,12.69-7.58l.91.2Z"/>
  <path class="cls-3" d="m104.08,311.78l.91.22c1.06,1.42-.64,5.46.07,8.58.15,2.34-2.19,2.26-3.69,3.05.36,4.53-2.83,5.73-3.54,9.35-3.69-.64-5.53,2.56-8.51,4.33l-.42-1.06-.86-.78c4.33-6.66,10.5-11.63,10.85-22.18,1.7-1.63,4.11,1.13,4.25-1.92l.93.42Z"/>
  <path class="cls-1" d="m89.96,313.13l.91.22c.36.64,1.42.64,1.28,1.85-3.4-.29-4.67.99-7.94.77l.29-1.2-.91-.62c1.97-1,4.24-1.5,6.72-1.99l-.35.99Z"/>
  <path class="cls-2" d="m68.62,319.01l.93.79c-1.07,1.63-4.89.49-4.82,3.12,3.05.42,9.92-.64,13.46,1.06-.35,2.9-3.62,2.9-5.46,4.4l-.28-.93-.42-.91c-.29-2.9-3.69.35-5.39.07l-1.15-.93-1.41.29v-.64c-3.54-1.28-6.32,1.99-10.35,1.99l-.86-.86-1.06-.28c.35-.57.78-1.15,0-1.21l.35-.93-.35-.91c5.75-1.64,10.06-4.76,17.09-5.18l-.29,1.06Z"/>
  <path class="cls-7" d="m105.06,351.69c-12.27.22-26.31-1.48-38.63-7.16-.49-.2-.64-.77-.49-1.28.28-.42.77-.7,1.28-.42,17,7.8,37.28,7.72,51.25,6.1.57,0,.91.35,1.06.91,0,.36-.35.93-.91.93-4.05.42-8.73.91-13.55.91Z"/>
  <path class="cls-8" d="m87.13,339c-.44,0-.71-.13-.86-.35-.35-.42-.22-1.06.15-1.5.57-.27.78-.64.99-.91.29-.29.57-.49.78-.78.57-.28,1.06-.28,1.48.07.36.49.29,1.21-.06,1.42-.29.2-.44.49-.64.77-.29.22-.71.64-1.35,1-.15.28-.42.28-.49.28Z"/>
  <path class="cls-14" d="m89.96,313.99c-.42,0-.86-.15-.91-.57-.15-.49.06-1.07.62-1.28.64-.22,1.42-.49,2.13-.78,2.12-.64,4.25-1.35,6.24-2.56.42-.28,1.06,0,1.34.44.22.42.15,1.13-.42,1.41-2.06,1.21-4.4,1.84-6.52,2.7-.78.28-1.5.42-2.13.64h-.35Z"/>
  <path class="cls-18" d="m64.37,336.88c-.99,0-1.97-.15-2.69-1.35l-.22-.42.07-.29c.29-.99.99-1.7,1.5-2.41.42-.49.84-1.06.99-1.55.15-.57.64-.78,1.21-.71.35.15.78.71.64,1.06-.22,1.08-.86,1.85-1.5,2.41-.28.36-.71.78-.99,1.21.71.64,1.77.36,3.61-.42,1.06-.42,2.19-.99,3.4-.86.57,0,.93.51.78.93,0,.49-.35.91-.91.91-.64-.13-1.71.29-2.63.71-1.06.42-2.26.78-3.27.78Z"/>
  <path class="cls-10" d="m65.01,332.14c-.15,0-.28-.15-.42-.15-1.35-.49-2.56-1.77-2.7-2.9v-.15l.15-.15c.29-1.21.93-1.92,1.63-2.56.29-.42.71-.77.93-1.21.28-.42.91-.57,1.48-.28.36.28.64.91.22,1.48-.15.51-.71,1.07-1.06,1.42-.57.42-.93.78-1.06,1.35.13.22.49.78,1.21,1.06.49.22.77.93.49,1.42-.15.42-.49.64-.86.64Z"/>
  <path class="cls-13" d="m49.12,329.86c-.13,0-.42-.13-.7-.28-.36-.42-.36-1.06,0-1.42.7-.57,1.48-.84,2.12-1.06.64-.28,1.28-.57,1.5-1.06.28-.42.99-.57,1.34-.36.51.29.71.93.36,1.35-.71,1.06-1.63,1.5-2.55,1.77-.49.29-.99.49-1.28.78s-.57.28-.78.28Z"/>
  <path class="cls-11" d="m48.14,325.75c-.15,0-.28,0-.28-.13-.44,0-.78-.29-.78-.71.15-.44.35-.64.92-.71.51,0,.93-.15,1.57-.42.77-.36,1.55-.78,2.76-.51.44.07.71.44.57.86,0,.35-.42.64-.84.57-.64-.15-1.28.15-1.92.42-.57.29-1.21.64-1.99.64Z"/>
  <path class="cls-12" d="m68.62,320.22c-.42.07-.91-.2-1.06-.7-.29-.57,0-1.21.64-1.5,4.68-1.92,9.57-3.12,16.09-4.33.64-.15,1.13.29,1.28.93s-.28,1.21-.84,1.33c-6.32,1.15-11.21,2.35-15.67,4.12-.15.13-.29.13-.44.13Z"/>
  <path class="cls-16" d="m36.3,328.72h-1.21c-.49,0-.93-.42-.93-.91,0-.42.44-.78.93-.78,2.12-.07,4.38-.07,6.3-.84.49-.22,1.06-.07,1.21.42.15.42,0,.91-.49,1.21-1.84.71-3.83.84-5.81.91Z"/>
  <path class="cls-15" d="m65.01,332.14c-.57,0-.99-.36-1.13-.93-.15-.49.29-1.13.78-1.13,2.61-.71,5.02-2.19,7.16-3.54.42-.35,1.06-.22,1.55.22.29.57.15,1.21-.42,1.63-2.34,1.48-4.82,3.12-7.65,3.76h-.29Z"/>
  <path class="cls-17" d="m165.89,359.5c-.13,0-.28,0-.42-.07-.42-.15-.64-.71-.42-1.08,1.13-2.61,4.33-4.04,6.81-4.31.42,0,.91.28.91.77,0,.44-.22,1-.78,1-2.12.2-4.6,1.34-5.32,3.18-.15.44-.57.51-.78.51Z"/>
</svg>