<?xml version="1.0" encoding="UTF-8"?>
<svg id="_圖層_1" data-name="圖層 1" xmlns="http://www.w3.org/2000/svg" xmlns:xlink="http://www.w3.org/1999/xlink" viewBox="0 0 1440 1082">
  <defs>
    <style>
      .cls-1 {
        fill: url(#_未命名漸層_21);
      }

      .cls-1, .cls-2, .cls-3, .cls-4, .cls-5, .cls-6, .cls-7, .cls-8, .cls-9, .cls-10, .cls-11, .cls-12, .cls-13, .cls-14, .cls-15, .cls-16, .cls-17, .cls-18, .cls-19, .cls-20, .cls-21, .cls-22, .cls-23, .cls-24, .cls-25, .cls-26, .cls-27, .cls-28, .cls-29, .cls-30, .cls-31, .cls-32, .cls-33, .cls-34, .cls-35, .cls-36, .cls-37, .cls-38, .cls-39, .cls-40, .cls-41, .cls-42, .cls-43, .cls-44, .cls-45, .cls-46, .cls-47, .cls-48, .cls-49, .cls-50, .cls-51, .cls-52, .cls-53, .cls-54, .cls-55, .cls-56, .cls-57, .cls-58, .cls-59, .cls-60, .cls-61, .cls-62, .cls-63, .cls-64, .cls-65, .cls-66, .cls-67, .cls-68, .cls-69, .cls-70, .cls-71, .cls-72, .cls-73, .cls-74, .cls-75, .cls-76, .cls-77, .cls-78, .cls-79, .cls-80, .cls-81, .cls-82, .cls-83, .cls-84, .cls-85, .cls-86, .cls-87, .cls-88, .cls-89, .cls-90, .cls-91, .cls-92, .cls-93, .cls-94, .cls-95, .cls-96, .cls-97, .cls-98, .cls-99, .cls-100, .cls-101, .cls-102, .cls-103, .cls-104, .cls-105, .cls-106, .cls-107, .cls-108, .cls-109, .cls-110, .cls-111, .cls-112, .cls-113, .cls-114, .cls-115, .cls-116, .cls-117, .cls-118, .cls-119, .cls-120, .cls-121, .cls-122, .cls-123, .cls-124, .cls-125, .cls-126, .cls-127, .cls-128, .cls-129, .cls-130, .cls-131, .cls-132, .cls-133, .cls-134, .cls-135, .cls-136, .cls-137, .cls-138, .cls-139, .cls-140, .cls-141, .cls-142, .cls-143, .cls-144, .cls-145, .cls-146, .cls-147, .cls-148, .cls-149, .cls-150, .cls-151, .cls-152, .cls-153, .cls-154, .cls-155, .cls-156, .cls-157, .cls-158, .cls-159, .cls-160, .cls-161, .cls-162, .cls-163, .cls-164, .cls-165, .cls-166, .cls-167, .cls-168, .cls-169, .cls-170, .cls-171, .cls-172, .cls-173, .cls-174, .cls-175, .cls-176, .cls-177, .cls-178, .cls-179, .cls-180, .cls-181, .cls-182, .cls-183, .cls-184, .cls-185, .cls-186, .cls-187, .cls-188, .cls-189, .cls-190, .cls-191, .cls-192, .cls-193, .cls-194, .cls-195, .cls-196, .cls-197, .cls-198, .cls-199, .cls-200, .cls-201, .cls-202, .cls-203, .cls-204, .cls-205, .cls-206, .cls-207, .cls-208, .cls-209, .cls-210, .cls-211, .cls-212, .cls-213, .cls-214, .cls-215, .cls-216, .cls-217, .cls-218, .cls-219, .cls-220 {
        stroke-width: 0px;
      }

      .cls-2 {
        fill: url(#_未命名漸層_21-2);
      }

      .cls-3 {
        fill: url(#_未命名漸層_21-3);
      }

      .cls-4 {
        fill: url(#_未命名漸層_21-5);
      }

      .cls-5 {
        fill: url(#_未命名漸層_21-6);
      }

      .cls-6 {
        fill: url(#_未命名漸層_21-4);
      }

      .cls-7 {
        fill: url(#_未命名漸層_21-7);
      }

      .cls-8 {
        fill: url(#_未命名漸層_21-9);
      }

      .cls-9 {
        fill: url(#_未命名漸層_21-8);
      }

      .cls-10 {
        fill: url(#_未命名漸層_21-167);
      }

      .cls-11 {
        fill: url(#_未命名漸層_21-165);
      }

      .cls-12 {
        fill: url(#_未命名漸層_21-166);
      }

      .cls-13 {
        fill: url(#_未命名漸層_21-164);
      }

      .cls-14 {
        fill: url(#_未命名漸層_21-169);
      }

      .cls-15 {
        fill: url(#_未命名漸層_21-163);
      }

      .cls-16 {
        fill: url(#_未命名漸層_21-168);
      }

      .cls-17 {
        fill: url(#_未命名漸層_21-161);
      }

      .cls-18 {
        fill: url(#_未命名漸層_21-162);
      }

      .cls-19 {
        fill: url(#_未命名漸層_21-160);
      }

      .cls-20 {
        fill: url(#_未命名漸層_21-140);
      }

      .cls-21 {
        fill: url(#_未命名漸層_21-141);
      }

      .cls-22 {
        fill: url(#_未命名漸層_21-142);
      }

      .cls-23 {
        fill: url(#_未命名漸層_21-152);
      }

      .cls-24 {
        fill: url(#_未命名漸層_21-150);
      }

      .cls-25 {
        fill: url(#_未命名漸層_21-143);
      }

      .cls-26 {
        fill: url(#_未命名漸層_21-144);
      }

      .cls-27 {
        fill: url(#_未命名漸層_21-159);
      }

      .cls-28 {
        fill: url(#_未命名漸層_21-147);
      }

      .cls-29 {
        fill: url(#_未命名漸層_21-149);
      }

      .cls-30 {
        fill: url(#_未命名漸層_21-154);
      }

      .cls-31 {
        fill: url(#_未命名漸層_21-151);
      }

      .cls-32 {
        fill: url(#_未命名漸層_21-156);
      }

      .cls-33 {
        fill: url(#_未命名漸層_21-153);
      }

      .cls-34 {
        fill: url(#_未命名漸層_21-157);
      }

      .cls-35 {
        fill: url(#_未命名漸層_21-158);
      }

      .cls-36 {
        fill: url(#_未命名漸層_21-155);
      }

      .cls-37 {
        fill: url(#_未命名漸層_21-146);
      }

      .cls-38 {
        fill: url(#_未命名漸層_21-145);
      }

      .cls-39 {
        fill: url(#_未命名漸層_21-148);
      }

      .cls-40 {
        fill: url(#_未命名漸層_21-212);
      }

      .cls-41 {
        fill: url(#_未命名漸層_21-215);
      }

      .cls-42 {
        fill: url(#_未命名漸層_21-210);
      }

      .cls-43 {
        fill: url(#_未命名漸層_21-213);
      }

      .cls-44 {
        fill: url(#_未命名漸層_21-208);
      }

      .cls-45 {
        fill: url(#_未命名漸層_21-209);
      }

      .cls-46 {
        fill: url(#_未命名漸層_21-203);
      }

      .cls-47 {
        fill: url(#_未命名漸層_21-204);
      }

      .cls-48 {
        fill: url(#_未命名漸層_21-205);
      }

      .cls-49 {
        fill: url(#_未命名漸層_21-206);
      }

      .cls-50 {
        fill: url(#_未命名漸層_21-200);
      }

      .cls-51 {
        fill: url(#_未命名漸層_21-207);
      }

      .cls-52 {
        fill: url(#_未命名漸層_21-201);
      }

      .cls-53 {
        fill: url(#_未命名漸層_21-202);
      }

      .cls-54 {
        fill: url(#_未命名漸層_21-218);
      }

      .cls-55 {
        fill: url(#_未命名漸層_21-211);
      }

      .cls-56 {
        fill: url(#_未命名漸層_21-217);
      }

      .cls-57 {
        fill: url(#_未命名漸層_21-214);
      }

      .cls-58 {
        fill: url(#_未命名漸層_21-219);
      }

      .cls-59 {
        fill: url(#_未命名漸層_21-216);
      }

      .cls-60 {
        fill: url(#_未命名漸層_21-220);
      }

      .cls-61 {
        fill: url(#_未命名漸層_21-132);
      }

      .cls-62 {
        fill: url(#_未命名漸層_21-135);
      }

      .cls-63 {
        fill: url(#_未命名漸層_21-133);
      }

      .cls-64 {
        fill: url(#_未命名漸層_21-130);
      }

      .cls-65 {
        fill: url(#_未命名漸層_21-139);
      }

      .cls-66 {
        fill: url(#_未命名漸層_21-138);
      }

      .cls-67 {
        fill: url(#_未命名漸層_21-137);
      }

      .cls-68 {
        fill: url(#_未命名漸層_21-131);
      }

      .cls-69 {
        fill: url(#_未命名漸層_21-136);
      }

      .cls-70 {
        fill: url(#_未命名漸層_21-134);
      }

      .cls-71 {
        fill: url(#_未命名漸層_21-112);
      }

      .cls-72 {
        fill: url(#_未命名漸層_21-118);
      }

      .cls-73 {
        fill: url(#_未命名漸層_21-113);
      }

      .cls-74 {
        fill: url(#_未命名漸層_21-114);
      }

      .cls-75 {
        fill: url(#_未命名漸層_21-115);
      }

      .cls-76 {
        fill: url(#_未命名漸層_21-110);
      }

      .cls-77 {
        fill: url(#_未命名漸層_21-111);
      }

      .cls-78 {
        fill: url(#_未命名漸層_21-104);
      }

      .cls-79 {
        fill: url(#_未命名漸層_21-117);
      }

      .cls-80 {
        fill: url(#_未命名漸層_21-116);
      }

      .cls-81 {
        fill: url(#_未命名漸層_21-119);
      }

      .cls-82 {
        fill: url(#_未命名漸層_21-106);
      }

      .cls-83 {
        fill: url(#_未命名漸層_21-109);
      }

      .cls-84 {
        fill: url(#_未命名漸層_21-174);
      }

      .cls-85 {
        fill: url(#_未命名漸層_21-175);
      }

      .cls-86 {
        fill: url(#_未命名漸層_21-178);
      }

      .cls-87 {
        fill: url(#_未命名漸層_21-179);
      }

      .cls-88 {
        fill: url(#_未命名漸層_21-173);
      }

      .cls-89 {
        fill: url(#_未命名漸層_21-172);
      }

      .cls-90 {
        fill: url(#_未命名漸層_21-171);
      }

      .cls-91 {
        fill: url(#_未命名漸層_21-170);
      }

      .cls-92 {
        fill: url(#_未命名漸層_21-184);
      }

      .cls-93 {
        fill: url(#_未命名漸層_21-187);
      }

      .cls-94 {
        fill: url(#_未命名漸層_21-189);
      }

      .cls-95 {
        fill: url(#_未命名漸層_21-186);
      }

      .cls-96 {
        fill: url(#_未命名漸層_21-193);
      }

      .cls-97 {
        fill: url(#_未命名漸層_21-192);
      }

      .cls-98 {
        fill: url(#_未命名漸層_21-197);
      }

      .cls-99 {
        fill: url(#_未命名漸層_21-196);
      }

      .cls-100 {
        fill: url(#_未命名漸層_21-194);
      }

      .cls-101 {
        fill: url(#_未命名漸層_21-191);
      }

      .cls-102 {
        fill: url(#_未命名漸層_21-190);
      }

      .cls-103 {
        fill: url(#_未命名漸層_21-195);
      }

      .cls-104 {
        fill: url(#_未命名漸層_21-128);
      }

      .cls-105 {
        fill: url(#_未命名漸層_21-123);
      }

      .cls-106 {
        fill: url(#_未命名漸層_21-126);
      }

      .cls-107 {
        fill: url(#_未命名漸層_21-121);
      }

      .cls-108 {
        fill: url(#_未命名漸層_21-127);
      }

      .cls-109 {
        fill: url(#_未命名漸層_21-122);
      }

      .cls-110 {
        fill: url(#_未命名漸層_21-120);
      }

      .cls-111 {
        fill: url(#_未命名漸層_21-176);
      }

      .cls-112 {
        fill: url(#_未命名漸層_21-177);
      }

      .cls-113 {
        fill: url(#_未命名漸層_21-125);
      }

      .cls-114 {
        fill: url(#_未命名漸層_21-188);
      }

      .cls-115 {
        fill: url(#_未命名漸層_21-180);
      }

      .cls-116 {
        fill: url(#_未命名漸層_21-198);
      }

      .cls-117 {
        fill: url(#_未命名漸層_21-181);
      }

      .cls-118 {
        fill: url(#_未命名漸層_21-183);
      }

      .cls-119 {
        fill: url(#_未命名漸層_21-199);
      }

      .cls-120 {
        fill: url(#_未命名漸層_21-182);
      }

      .cls-121 {
        fill: url(#_未命名漸層_21-185);
      }

      .cls-122 {
        fill: url(#_未命名漸層_21-129);
      }

      .cls-123 {
        fill: url(#_未命名漸層_21-124);
      }

      .cls-124 {
        fill: url(#_未命名漸層_21-100);
      }

      .cls-125 {
        fill: url(#_未命名漸層_21-107);
      }

      .cls-126 {
        fill: url(#_未命名漸層_21-103);
      }

      .cls-127 {
        fill: url(#_未命名漸層_21-101);
      }

      .cls-128 {
        fill: url(#_未命名漸層_21-108);
      }

      .cls-129 {
        fill: url(#_未命名漸層_21-105);
      }

      .cls-130 {
        fill: url(#_未命名漸層_21-102);
      }

      .cls-131 {
        fill: url(#_未命名漸層_21-78);
      }

      .cls-132 {
        fill: url(#_未命名漸層_21-79);
      }

      .cls-133 {
        fill: url(#_未命名漸層_21-72);
      }

      .cls-134 {
        fill: url(#_未命名漸層_21-75);
      }

      .cls-135 {
        fill: url(#_未命名漸層_21-74);
      }

      .cls-136 {
        fill: url(#_未命名漸層_21-77);
      }

      .cls-137 {
        fill: url(#_未命名漸層_21-76);
      }

      .cls-138 {
        fill: url(#_未命名漸層_21-73);
      }

      .cls-139 {
        fill: url(#_未命名漸層_21-71);
      }

      .cls-140 {
        fill: url(#_未命名漸層_21-70);
      }

      .cls-141 {
        fill: url(#_未命名漸層_21-53);
      }

      .cls-142 {
        fill: url(#_未命名漸層_21-52);
      }

      .cls-143 {
        fill: url(#_未命名漸層_21-51);
      }

      .cls-144 {
        fill: url(#_未命名漸層_21-55);
      }

      .cls-145 {
        fill: url(#_未命名漸層_21-54);
      }

      .cls-146 {
        fill: url(#_未命名漸層_21-41);
      }

      .cls-147 {
        fill: url(#_未命名漸層_21-49);
      }

      .cls-148 {
        fill: url(#_未命名漸層_21-46);
      }

      .cls-149 {
        fill: url(#_未命名漸層_21-57);
      }

      .cls-150 {
        fill: url(#_未命名漸層_21-56);
      }

      .cls-151 {
        fill: url(#_未命名漸層_21-50);
      }

      .cls-152 {
        fill: url(#_未命名漸層_21-47);
      }

      .cls-153 {
        fill: url(#_未命名漸層_21-42);
      }

      .cls-154 {
        fill: url(#_未命名漸層_21-48);
      }

      .cls-155 {
        fill: url(#_未命名漸層_21-44);
      }

      .cls-156 {
        fill: url(#_未命名漸層_21-40);
      }

      .cls-157 {
        fill: url(#_未命名漸層_21-43);
      }

      .cls-158 {
        fill: url(#_未命名漸層_21-45);
      }

      .cls-159 {
        fill: url(#_未命名漸層_21-59);
      }

      .cls-160 {
        fill: url(#_未命名漸層_21-58);
      }

      .cls-161 {
        fill: url(#_未命名漸層_21-29);
      }

      .cls-162 {
        fill: url(#_未命名漸層_21-27);
      }

      .cls-163 {
        fill: url(#_未命名漸層_21-28);
      }

      .cls-164 {
        fill: url(#_未命名漸層_21-25);
      }

      .cls-165 {
        fill: url(#_未命名漸層_21-26);
      }

      .cls-166 {
        fill: url(#_未命名漸層_21-23);
      }

      .cls-167 {
        fill: url(#_未命名漸層_21-24);
      }

      .cls-168 {
        fill: url(#_未命名漸層_21-10);
      }

      .cls-169 {
        fill: url(#_未命名漸層_21-11);
      }

      .cls-170 {
        fill: url(#_未命名漸層_21-14);
      }

      .cls-171 {
        fill: url(#_未命名漸層_21-15);
      }

      .cls-172 {
        fill: url(#_未命名漸層_21-17);
      }

      .cls-173 {
        fill: url(#_未命名漸層_21-16);
      }

      .cls-174 {
        fill: url(#_未命名漸層_21-13);
      }

      .cls-175 {
        fill: url(#_未命名漸層_21-19);
      }

      .cls-176 {
        fill: url(#_未命名漸層_21-18);
      }

      .cls-177 {
        fill: url(#_未命名漸層_21-32);
      }

      .cls-178 {
        fill: url(#_未命名漸層_21-30);
      }

      .cls-179 {
        fill: url(#_未命名漸層_21-31);
      }

      .cls-180 {
        fill: url(#_未命名漸層_21-35);
      }

      .cls-181 {
        fill: url(#_未命名漸層_21-36);
      }

      .cls-182 {
        fill: url(#_未命名漸層_21-37);
      }

      .cls-183 {
        fill: url(#_未命名漸層_21-33);
      }

      .cls-184 {
        fill: url(#_未命名漸層_21-34);
      }

      .cls-185 {
        fill: url(#_未命名漸層_21-38);
      }

      .cls-186 {
        fill: url(#_未命名漸層_21-39);
      }

      .cls-187 {
        fill: url(#_未命名漸層_21-20);
      }

      .cls-188 {
        fill: url(#_未命名漸層_21-22);
      }

      .cls-189 {
        fill: url(#_未命名漸層_21-21);
      }

      .cls-190 {
        fill: url(#_未命名漸層_21-61);
      }

      .cls-191 {
        fill: url(#_未命名漸層_21-64);
      }

      .cls-192 {
        fill: url(#_未命名漸層_21-62);
      }

      .cls-193 {
        fill: url(#_未命名漸層_21-67);
      }

      .cls-194 {
        fill: url(#_未命名漸層_21-65);
      }

      .cls-195 {
        fill: url(#_未命名漸層_21-66);
      }

      .cls-196 {
        fill: url(#_未命名漸層_21-60);
      }

      .cls-197 {
        fill: url(#_未命名漸層_21-63);
      }

      .cls-198 {
        fill: url(#_未命名漸層_21-12);
      }

      .cls-199 {
        fill: url(#_未命名漸層_21-80);
      }

      .cls-200 {
        fill: url(#_未命名漸層_21-82);
      }

      .cls-201 {
        fill: url(#_未命名漸層_21-69);
      }

      .cls-202 {
        fill: url(#_未命名漸層_21-68);
      }

      .cls-203 {
        fill: url(#_未命名漸層_21-89);
      }

      .cls-204 {
        fill: url(#_未命名漸層_21-95);
      }

      .cls-205 {
        fill: url(#_未命名漸層_21-90);
      }

      .cls-206 {
        fill: url(#_未命名漸層_21-99);
      }

      .cls-207 {
        fill: url(#_未命名漸層_21-84);
      }

      .cls-208 {
        fill: url(#_未命名漸層_21-83);
      }

      .cls-209 {
        fill: url(#_未命名漸層_21-81);
      }

      .cls-210 {
        fill: url(#_未命名漸層_21-91);
      }

      .cls-211 {
        fill: url(#_未命名漸層_21-86);
      }

      .cls-212 {
        fill: url(#_未命名漸層_21-85);
      }

      .cls-213 {
        fill: url(#_未命名漸層_21-88);
      }

      .cls-214 {
        fill: url(#_未命名漸層_21-87);
      }

      .cls-215 {
        fill: url(#_未命名漸層_21-94);
      }

      .cls-216 {
        fill: url(#_未命名漸層_21-93);
      }

      .cls-217 {
        fill: url(#_未命名漸層_21-92);
      }

      .cls-218 {
        fill: url(#_未命名漸層_21-96);
      }

      .cls-219 {
        fill: url(#_未命名漸層_21-97);
      }

      .cls-220 {
        fill: url(#_未命名漸層_21-98);
      }
    </style>
    <linearGradient id="_未命名漸層_21" data-name="未命名漸層 21" x1="-94.13" y1="333.28" x2="526.29" y2="791.35" gradientUnits="userSpaceOnUse">
      <stop offset="0" stop-color="#fff" stop-opacity="0"/>
      <stop offset="1" stop-color="#fff"/>
    </linearGradient>
    <linearGradient id="_未命名漸層_21-2" data-name="未命名漸層 21" x1="-101.19" y1="342.84" x2="519.23" y2="800.91" xlink:href="#_未命名漸層_21"/>
    <linearGradient id="_未命名漸層_21-3" data-name="未命名漸層 21" x1="-66.18" y1="295.43" x2="554.24" y2="753.5" xlink:href="#_未命名漸層_21"/>
    <linearGradient id="_未命名漸層_21-4" data-name="未命名漸層 21" x1="-48.16" y1="271.02" x2="572.26" y2="729.09" xlink:href="#_未命名漸層_21"/>
    <linearGradient id="_未命名漸層_21-5" data-name="未命名漸層 21" x1="-91.5" y1="329.72" x2="528.92" y2="787.79" xlink:href="#_未命名漸層_21"/>
    <linearGradient id="_未命名漸層_21-6" data-name="未命名漸層 21" x1="-83.61" y1="319.03" x2="536.81" y2="777.1" xlink:href="#_未命名漸層_21"/>
    <linearGradient id="_未命名漸層_21-7" data-name="未命名漸層 21" x1="-84.25" y1="319.89" x2="536.17" y2="777.96" xlink:href="#_未命名漸層_21"/>
    <linearGradient id="_未命名漸層_21-8" data-name="未命名漸層 21" x1="-77.85" y1="311.23" x2="542.57" y2="769.3" xlink:href="#_未命名漸層_21"/>
    <linearGradient id="_未命名漸層_21-9" data-name="未命名漸層 21" x1="-72.48" y1="303.95" x2="547.94" y2="762.02" xlink:href="#_未命名漸層_21"/>
    <linearGradient id="_未命名漸層_21-10" data-name="未命名漸層 21" x1="-62.65" y1="290.65" x2="557.77" y2="748.71" xlink:href="#_未命名漸層_21"/>
    <linearGradient id="_未命名漸層_21-11" data-name="未命名漸層 21" x1="-60.44" y1="287.65" x2="559.98" y2="745.72" xlink:href="#_未命名漸層_21"/>
    <linearGradient id="_未命名漸層_21-12" data-name="未命名漸層 21" x1="-49.42" y1="272.72" x2="571" y2="730.79" xlink:href="#_未命名漸層_21"/>
    <linearGradient id="_未命名漸層_21-13" data-name="未命名漸層 21" x1="-173.45" y1="440.71" x2="446.97" y2="898.78" xlink:href="#_未命名漸層_21"/>
    <linearGradient id="_未命名漸層_21-14" data-name="未命名漸層 21" x1="-130.46" y1="382.49" x2="489.96" y2="840.56" xlink:href="#_未命名漸層_21"/>
    <linearGradient id="_未命名漸層_21-15" data-name="未命名漸層 21" x1="-102.78" y1="345" x2="517.64" y2="803.06" xlink:href="#_未命名漸層_21"/>
    <linearGradient id="_未命名漸層_21-16" data-name="未命名漸層 21" x1="-100.09" y1="341.36" x2="520.33" y2="799.42" xlink:href="#_未命名漸層_21"/>
    <linearGradient id="_未命名漸層_21-17" data-name="未命名漸層 21" x1="-65.86" y1="294.98" x2="554.56" y2="753.05" xlink:href="#_未命名漸層_21"/>
    <linearGradient id="_未命名漸層_21-18" data-name="未命名漸層 21" x1="-72.6" y1="304.11" x2="547.82" y2="762.18" xlink:href="#_未命名漸層_21"/>
    <linearGradient id="_未命名漸層_21-19" data-name="未命名漸層 21" x1="-38.38" y1="257.77" x2="582.04" y2="715.83" xlink:href="#_未命名漸層_21"/>
    <linearGradient id="_未命名漸層_21-20" data-name="未命名漸層 21" x1="-56.35" y1="282.1" x2="564.07" y2="740.17" xlink:href="#_未命名漸層_21"/>
    <linearGradient id="_未命名漸層_21-21" data-name="未命名漸層 21" x1="-82.57" y1="317.62" x2="526.78" y2="767.51" xlink:href="#_未命名漸層_21"/>
    <linearGradient id="_未命名漸層_21-22" data-name="未命名漸層 21" x1="-79.44" y1="313.39" x2="540.98" y2="771.46" xlink:href="#_未命名漸層_21"/>
    <linearGradient id="_未命名漸層_21-23" data-name="未命名漸層 21" x1="-83.59" y1="319" x2="536.83" y2="777.07" xlink:href="#_未命名漸層_21"/>
    <linearGradient id="_未命名漸層_21-24" data-name="未命名漸層 21" x1="-93.91" y1="332.98" x2="526.51" y2="791.05" xlink:href="#_未命名漸層_21"/>
    <linearGradient id="_未命名漸層_21-25" data-name="未命名漸層 21" x1="-66.32" y1="295.61" x2="554.1" y2="753.68" xlink:href="#_未命名漸層_21"/>
    <linearGradient id="_未命名漸層_21-26" data-name="未命名漸層 21" x1="-59.28" y1="286.08" x2="561.14" y2="744.15" xlink:href="#_未命名漸層_21"/>
    <linearGradient id="_未命名漸層_21-27" data-name="未命名漸層 21" x1="-57.28" y1="283.36" x2="563.15" y2="741.43" xlink:href="#_未命名漸層_21"/>
    <linearGradient id="_未命名漸層_21-28" data-name="未命名漸層 21" x1="-79.99" y1="314.12" x2="540.43" y2="772.19" xlink:href="#_未命名漸層_21"/>
    <linearGradient id="_未命名漸層_21-29" data-name="未命名漸層 21" x1="-75.06" y1="307.46" x2="545.36" y2="765.52" xlink:href="#_未命名漸層_21"/>
    <linearGradient id="_未命名漸層_21-30" data-name="未命名漸層 21" x1="-70.48" y1="301.25" x2="549.94" y2="759.31" xlink:href="#_未命名漸層_21"/>
    <linearGradient id="_未命名漸層_21-31" data-name="未命名漸層 21" x1="-176.58" y1="444.95" x2="443.85" y2="903.01" xlink:href="#_未命名漸層_21"/>
    <linearGradient id="_未命名漸層_21-32" data-name="未命名漸層 21" x1="-139.01" y1="394.07" x2="481.41" y2="852.13" xlink:href="#_未命名漸層_21"/>
    <linearGradient id="_未命名漸層_21-33" data-name="未命名漸層 21" x1="-135.76" y1="389.66" x2="484.66" y2="847.73" xlink:href="#_未命名漸層_21"/>
    <linearGradient id="_未命名漸層_21-34" data-name="未命名漸層 21" x1="-129.5" y1="381.19" x2="490.92" y2="839.26" xlink:href="#_未命名漸層_21"/>
    <linearGradient id="_未命名漸層_21-35" data-name="未命名漸層 21" x1="-131.05" y1="383.28" x2="489.37" y2="841.35" xlink:href="#_未命名漸層_21"/>
    <linearGradient id="_未命名漸層_21-36" data-name="未命名漸層 21" x1="-106.42" y1="349.92" x2="514" y2="807.99" xlink:href="#_未命名漸層_21"/>
    <linearGradient id="_未命名漸層_21-37" data-name="未命名漸層 21" x1="-97.94" y1="338.44" x2="522.48" y2="796.51" xlink:href="#_未命名漸層_21"/>
    <linearGradient id="_未命名漸層_21-38" data-name="未命名漸層 21" x1="-73.3" y1="305.07" x2="547.12" y2="763.14" xlink:href="#_未命名漸層_21"/>
    <linearGradient id="_未命名漸層_21-39" data-name="未命名漸層 21" x1="-98.58" y1="339.3" x2="521.84" y2="797.37" xlink:href="#_未命名漸層_21"/>
    <linearGradient id="_未命名漸層_21-40" data-name="未命名漸層 21" x1="-88.2" y1="325.25" x2="532.22" y2="783.31" xlink:href="#_未命名漸層_21"/>
    <linearGradient id="_未命名漸層_21-41" data-name="未命名漸層 21" x1="-91.83" y1="330.16" x2="528.59" y2="788.23" xlink:href="#_未命名漸層_21"/>
    <linearGradient id="_未命名漸層_21-42" data-name="未命名漸層 21" x1="-93.44" y1="332.35" x2="526.98" y2="790.41" xlink:href="#_未命名漸層_21"/>
    <linearGradient id="_未命名漸層_21-43" data-name="未命名漸層 21" x1="-84.74" y1="320.56" x2="535.68" y2="778.62" xlink:href="#_未命名漸層_21"/>
    <linearGradient id="_未命名漸層_21-44" data-name="未命名漸層 21" x1="-80.27" y1="314.51" x2="540.15" y2="772.57" xlink:href="#_未命名漸層_21"/>
    <linearGradient id="_未命名漸層_21-45" data-name="未命名漸層 21" x1="-90.49" y1="328.35" x2="529.93" y2="786.41" xlink:href="#_未命名漸層_21"/>
    <linearGradient id="_未命名漸層_21-46" data-name="未命名漸層 21" x1="-100.89" y1="342.43" x2="519.53" y2="800.5" xlink:href="#_未命名漸層_21"/>
    <linearGradient id="_未命名漸層_21-47" data-name="未命名漸層 21" x1="-88.87" y1="326.16" x2="531.55" y2="784.22" xlink:href="#_未命名漸層_21"/>
    <linearGradient id="_未命名漸層_21-48" data-name="未命名漸層 21" x1="-104.03" y1="346.69" x2="516.39" y2="804.76" xlink:href="#_未命名漸層_21"/>
    <linearGradient id="_未命名漸層_21-49" data-name="未命名漸層 21" x1="-148.14" y1="406.43" x2="472.28" y2="864.5" xlink:href="#_未命名漸層_21"/>
    <linearGradient id="_未命名漸層_21-50" data-name="未命名漸層 21" x1="-141.9" y1="397.98" x2="478.52" y2="856.04" xlink:href="#_未命名漸層_21"/>
    <linearGradient id="_未命名漸層_21-51" data-name="未命名漸層 21" x1="42.75" y1="424.06" x2="110.25" y2="473.9" xlink:href="#_未命名漸層_21"/>
    <linearGradient id="_未命名漸層_21-52" data-name="未命名漸層 21" x1="-99.63" y1="340.72" x2="520.8" y2="798.79" xlink:href="#_未命名漸層_21"/>
    <linearGradient id="_未命名漸層_21-53" data-name="未命名漸層 21" x1="-78.52" y1="312.13" x2="541.9" y2="770.2" xlink:href="#_未命名漸層_21"/>
    <linearGradient id="_未命名漸層_21-54" data-name="未命名漸層 21" x1="-72.39" y1="303.83" x2="548.03" y2="761.9" xlink:href="#_未命名漸層_21"/>
    <linearGradient id="_未命名漸層_21-55" data-name="未命名漸層 21" x1="-76.8" y1="309.81" x2="543.62" y2="767.88" xlink:href="#_未命名漸層_21"/>
    <linearGradient id="_未命名漸層_21-56" data-name="未命名漸層 21" x1="-147.47" y1="405.52" x2="472.95" y2="863.59" xlink:href="#_未命名漸層_21"/>
    <linearGradient id="_未命名漸層_21-57" data-name="未命名漸層 21" x1="-139.43" y1="394.63" x2="480.99" y2="852.7" xlink:href="#_未命名漸層_21"/>
    <linearGradient id="_未命名漸層_21-58" data-name="未命名漸層 21" x1="-122.43" y1="371.6" x2="497.99" y2="829.67" xlink:href="#_未命名漸層_21"/>
    <linearGradient id="_未命名漸層_21-59" data-name="未命名漸層 21" x1="-125.65" y1="375.96" x2="494.78" y2="834.03" xlink:href="#_未命名漸層_21"/>
    <linearGradient id="_未命名漸層_21-60" data-name="未命名漸層 21" x1="-114.56" y1="360.95" x2="505.86" y2="819.02" xlink:href="#_未命名漸層_21"/>
    <linearGradient id="_未命名漸層_21-61" data-name="未命名漸層 21" x1="-133.02" y1="385.96" x2="487.4" y2="844.03" xlink:href="#_未命名漸層_21"/>
    <linearGradient id="_未命名漸層_21-62" data-name="未命名漸層 21" x1="-140.07" y1="395.5" x2="480.35" y2="853.57" xlink:href="#_未命名漸層_21"/>
    <linearGradient id="_未命名漸層_21-63" data-name="未命名漸層 21" x1="-125.75" y1="376.1" x2="494.67" y2="834.17" xlink:href="#_未命名漸層_21"/>
    <linearGradient id="_未命名漸層_21-64" data-name="未命名漸層 21" x1="-151.97" y1="411.62" x2="468.45" y2="869.69" xlink:href="#_未命名漸層_21"/>
    <linearGradient id="_未命名漸層_21-65" data-name="未命名漸層 21" x1="-152.87" y1="412.84" x2="467.55" y2="870.9" xlink:href="#_未命名漸層_21"/>
    <linearGradient id="_未命名漸層_21-66" data-name="未命名漸層 21" x1="-102.96" y1="345.24" x2="517.46" y2="803.3" xlink:href="#_未命名漸層_21"/>
    <linearGradient id="_未命名漸層_21-67" data-name="未命名漸層 21" x1="-105.43" y1="348.59" x2="514.99" y2="806.66" xlink:href="#_未命名漸層_21"/>
    <linearGradient id="_未命名漸層_21-68" data-name="未命名漸層 21" x1="-86.38" y1="322.78" x2="534.04" y2="780.85" xlink:href="#_未命名漸層_21"/>
    <linearGradient id="_未命名漸層_21-69" data-name="未命名漸層 21" x1="-96.71" y1="336.77" x2="523.72" y2="794.83" xlink:href="#_未命名漸層_21"/>
    <linearGradient id="_未命名漸層_21-70" data-name="未命名漸層 21" x1="35.61" y1="450.52" x2="117.56" y2="511.02" xlink:href="#_未命名漸層_21"/>
    <linearGradient id="_未命名漸層_21-71" data-name="未命名漸層 21" x1="58.07" y1="467.09" x2="95.14" y2="494.46" xlink:href="#_未命名漸層_21"/>
    <linearGradient id="_未命名漸層_21-72" data-name="未命名漸層 21" x1="-101.95" y1="343.87" x2="518.47" y2="801.93" xlink:href="#_未命名漸層_21"/>
    <linearGradient id="_未命名漸層_21-73" data-name="未命名漸層 21" x1="-75.35" y1="307.85" x2="545.07" y2="765.91" xlink:href="#_未命名漸層_21"/>
    <linearGradient id="_未命名漸層_21-74" data-name="未命名漸層 21" x1="-53.55" y1="278.32" x2="566.87" y2="736.39" xlink:href="#_未命名漸層_21"/>
    <linearGradient id="_未命名漸層_21-75" data-name="未命名漸層 21" x1="107.55" y1="396.95" x2="112.41" y2="400.54" xlink:href="#_未命名漸層_21"/>
    <linearGradient id="_未命名漸層_21-76" data-name="未命名漸層 21" x1="-5.48" y1="213.21" x2="614.94" y2="671.27" xlink:href="#_未命名漸層_21"/>
    <linearGradient id="_未命名漸層_21-77" data-name="未命名漸層 21" x1="17.51" y1="182.07" x2="637.93" y2="640.14" xlink:href="#_未命名漸層_21"/>
    <linearGradient id="_未命名漸層_21-78" data-name="未命名漸層 21" x1="-17.69" y1="229.75" x2="602.73" y2="687.82" xlink:href="#_未命名漸層_21"/>
    <linearGradient id="_未命名漸層_21-79" data-name="未命名漸層 21" x1="-35.26" y1="253.54" x2="585.16" y2="711.61" xlink:href="#_未命名漸層_21"/>
    <linearGradient id="_未命名漸層_21-80" data-name="未命名漸層 21" x1="3.26" y1="201.37" x2="623.68" y2="659.44" xlink:href="#_未命名漸層_21"/>
    <linearGradient id="_未命名漸層_21-81" data-name="未命名漸層 21" x1="-29.07" y1="245.16" x2="591.35" y2="703.23" xlink:href="#_未命名漸層_21"/>
    <linearGradient id="_未命名漸層_21-82" data-name="未命名漸層 21" x1="-2.69" y1="209.43" x2="617.73" y2="667.5" xlink:href="#_未命名漸層_21"/>
    <linearGradient id="_未命名漸層_21-83" data-name="未命名漸層 21" x1="23.56" y1="173.88" x2="643.98" y2="631.95" xlink:href="#_未命名漸層_21"/>
    <linearGradient id="_未命名漸層_21-84" data-name="未命名漸層 21" x1="25.51" y1="171.23" x2="645.94" y2="629.3" xlink:href="#_未命名漸層_21"/>
    <linearGradient id="_未命名漸層_21-85" data-name="未命名漸層 21" x1="5.49" y1="198.35" x2="625.91" y2="656.41" xlink:href="#_未命名漸層_21"/>
    <linearGradient id="_未命名漸層_21-86" data-name="未命名漸層 21" x1="6.23" y1="197.34" x2="626.65" y2="655.41" xlink:href="#_未命名漸層_21"/>
    <linearGradient id="_未命名漸層_21-87" data-name="未命名漸層 21" x1="22.23" y1="175.68" x2="642.65" y2="633.75" xlink:href="#_未命名漸層_21"/>
    <linearGradient id="_未命名漸層_21-88" data-name="未命名漸層 21" x1="-5.12" y1="212.73" x2="615.3" y2="670.79" xlink:href="#_未命名漸層_21"/>
    <linearGradient id="_未命名漸層_21-89" data-name="未命名漸層 21" x1="4.17" y1="200.13" x2="624.6" y2="658.2" xlink:href="#_未命名漸層_21"/>
    <linearGradient id="_未命名漸層_21-90" data-name="未命名漸層 21" x1="-.89" y1="206.99" x2="619.53" y2="665.05" xlink:href="#_未命名漸層_21"/>
    <linearGradient id="_未命名漸層_21-91" data-name="未命名漸層 21" x1="-9.39" y1="218.51" x2="611.03" y2="676.58" xlink:href="#_未命名漸層_21"/>
    <linearGradient id="_未命名漸層_21-92" data-name="未命名漸層 21" x1="-28.32" y1="244.15" x2="592.1" y2="702.21" xlink:href="#_未命名漸層_21"/>
    <linearGradient id="_未命名漸層_21-93" data-name="未命名漸層 21" x1="334.4" y1="375.18" x2="343.73" y2="382.06" xlink:href="#_未命名漸層_21"/>
    <linearGradient id="_未命名漸層_21-94" data-name="未命名漸層 21" x1="26.04" y1="170.52" x2="646.46" y2="628.59" xlink:href="#_未命名漸層_21"/>
    <linearGradient id="_未命名漸層_21-95" data-name="未命名漸層 21" x1="24.63" y1="172.42" x2="645.05" y2="630.49" xlink:href="#_未命名漸層_21"/>
    <linearGradient id="_未命名漸層_21-96" data-name="未命名漸層 21" x1="34.42" y1="159.16" x2="654.85" y2="617.23" xlink:href="#_未命名漸層_21"/>
    <linearGradient id="_未命名漸層_21-97" data-name="未命名漸層 21" x1="38.36" y1="153.82" x2="658.79" y2="611.89" xlink:href="#_未命名漸層_21"/>
    <linearGradient id="_未命名漸層_21-98" data-name="未命名漸層 21" x1="41.29" y1="149.87" x2="661.71" y2="607.93" xlink:href="#_未命名漸層_21"/>
    <linearGradient id="_未命名漸層_21-99" data-name="未命名漸層 21" x1="286.92" y1="323.02" x2="392.62" y2="401.06" xlink:href="#_未命名漸層_21"/>
    <linearGradient id="_未命名漸層_21-100" data-name="未命名漸層 21" x1="336.59" y1="359.7" x2="342.97" y2="364.41" xlink:href="#_未命名漸層_21"/>
    <linearGradient id="_未命名漸層_21-101" data-name="未命名漸層 21" x1="334.12" y1="357.86" x2="345.43" y2="366.22" xlink:href="#_未命名漸層_21"/>
    <linearGradient id="_未命名漸層_21-102" data-name="未命名漸層 21" x1="337.8" y1="360.58" x2="341.75" y2="363.5" xlink:href="#_未命名漸層_21"/>
    <linearGradient id="_未命名漸層_21-103" data-name="未命名漸層 21" x1="50.3" y1="137.66" x2="670.72" y2="595.72" xlink:href="#_未命名漸層_21"/>
    <linearGradient id="_未命名漸層_21-104" data-name="未命名漸層 21" x1="43.62" y1="146.7" x2="664.04" y2="604.77" xlink:href="#_未命名漸層_21"/>
    <linearGradient id="_未命名漸層_21-105" data-name="未命名漸層 21" x1="368.04" y1="355.55" x2="412.12" y2="388.1" xlink:href="#_未命名漸層_21"/>
    <linearGradient id="_未命名漸層_21-106" data-name="未命名漸層 21" x1="54.88" y1="131.46" x2="675.3" y2="589.53" xlink:href="#_未命名漸層_21"/>
    <linearGradient id="_未命名漸層_21-107" data-name="未命名漸層 21" x1="69.27" y1="111.96" x2="689.69" y2="570.03" xlink:href="#_未命名漸層_21"/>
    <linearGradient id="_未命名漸層_21-108" data-name="未命名漸層 21" x1="60.59" y1="123.72" x2="681.01" y2="581.79" xlink:href="#_未命名漸層_21"/>
    <linearGradient id="_未命名漸層_21-109" data-name="未命名漸層 21" x1="50.08" y1="137.95" x2="670.5" y2="596.02" xlink:href="#_未命名漸層_21"/>
    <linearGradient id="_未命名漸層_21-110" data-name="未命名漸層 21" x1="59.92" y1="124.63" x2="680.34" y2="582.69" xlink:href="#_未命名漸層_21"/>
    <linearGradient id="_未命名漸層_21-111" data-name="未命名漸層 21" x1="57.25" y1="128.25" x2="677.67" y2="586.32" xlink:href="#_未命名漸層_21"/>
    <linearGradient id="_未命名漸層_21-112" data-name="未命名漸層 21" x1="59.89" y1="124.67" x2="680.31" y2="582.73" xlink:href="#_未命名漸層_21"/>
    <linearGradient id="_未命名漸層_21-113" data-name="未命名漸層 21" x1="68.89" y1="112.48" x2="689.31" y2="570.55" xlink:href="#_未命名漸層_21"/>
    <linearGradient id="_未命名漸層_21-114" data-name="未命名漸層 21" x1="76.23" y1="102.54" x2="696.65" y2="560.61" xlink:href="#_未命名漸層_21"/>
    <linearGradient id="_未命名漸層_21-115" data-name="未命名漸層 21" x1="66.13" y1="116.22" x2="686.55" y2="574.29" xlink:href="#_未命名漸層_21"/>
    <linearGradient id="_未命名漸層_21-116" data-name="未命名漸層 21" x1="66.23" y1="116.08" x2="686.65" y2="574.14" xlink:href="#_未命名漸層_21"/>
    <linearGradient id="_未命名漸層_21-117" data-name="未命名漸層 21" x1="73.07" y1="106.81" x2="693.49" y2="564.88" xlink:href="#_未命名漸層_21"/>
    <linearGradient id="_未命名漸層_21-118" data-name="未命名漸層 21" x1="110.57" y1="56.03" x2="730.99" y2="514.1" xlink:href="#_未命名漸層_21"/>
    <linearGradient id="_未命名漸層_21-119" data-name="未命名漸層 21" x1="113.35" y1="52.27" x2="733.77" y2="510.33" xlink:href="#_未命名漸層_21"/>
    <linearGradient id="_未命名漸層_21-120" data-name="未命名漸層 21" x1="132.52" y1="26.29" x2="752.94" y2="484.36" xlink:href="#_未命名漸層_21"/>
    <linearGradient id="_未命名漸層_21-121" data-name="未命名漸層 21" x1="88.31" y1="86.17" x2="708.73" y2="544.24" xlink:href="#_未命名漸層_21"/>
    <linearGradient id="_未命名漸層_21-122" data-name="未命名漸層 21" x1="15.45" y1="184.86" x2="635.87" y2="642.93" xlink:href="#_未命名漸層_21"/>
    <linearGradient id="_未命名漸層_21-123" data-name="未命名漸層 21" x1="17.07" y1="182.67" x2="637.49" y2="640.74" xlink:href="#_未命名漸層_21"/>
    <linearGradient id="_未命名漸層_21-124" data-name="未命名漸層 21" x1="271.04" y1="407.19" x2="277.65" y2="412.07" xlink:href="#_未命名漸層_21"/>
    <linearGradient id="_未命名漸層_21-125" data-name="未命名漸層 21" x1="13.65" y1="187.29" x2="634.07" y2="645.36" xlink:href="#_未命名漸層_21"/>
    <linearGradient id="_未命名漸層_21-126" data-name="未命名漸層 21" x1="305.9" y1="392.72" x2="315.53" y2="399.83" xlink:href="#_未命名漸層_21"/>
    <linearGradient id="_未命名漸層_21-127" data-name="未命名漸層 21" x1="16.38" y1="183.61" x2="636.8" y2="641.67" xlink:href="#_未命名漸層_21"/>
    <linearGradient id="_未命名漸層_21-128" data-name="未命名漸層 21" x1="19.27" y1="179.69" x2="639.69" y2="637.75" xlink:href="#_未命名漸層_21"/>
    <linearGradient id="_未命名漸層_21-129" data-name="未命名漸層 21" x1="19.53" y1="179.33" x2="639.95" y2="637.4" xlink:href="#_未命名漸層_21"/>
    <linearGradient id="_未命名漸層_21-130" data-name="未命名漸層 21" x1="46.58" y1="142.7" x2="667" y2="600.77" xlink:href="#_未命名漸層_21"/>
    <linearGradient id="_未命名漸層_21-131" data-name="未命名漸層 21" x1="-140.93" y1="396.66" x2="479.49" y2="854.73" xlink:href="#_未命名漸層_21"/>
    <linearGradient id="_未命名漸層_21-132" data-name="未命名漸層 21" x1="-146.81" y1="404.63" x2="473.61" y2="862.7" xlink:href="#_未命名漸層_21"/>
    <linearGradient id="_未命名漸層_21-133" data-name="未命名漸層 21" x1="-165.31" y1="429.69" x2="455.11" y2="887.76" xlink:href="#_未命名漸層_21"/>
    <linearGradient id="_未命名漸層_21-134" data-name="未命名漸層 21" x1="-150.48" y1="409.59" x2="469.95" y2="867.66" xlink:href="#_未命名漸層_21"/>
    <linearGradient id="_未命名漸層_21-135" data-name="未命名漸層 21" x1="453.07" y1="848.67" x2="493.29" y2="878.37" xlink:href="#_未命名漸層_21"/>
    <linearGradient id="_未命名漸層_21-136" data-name="未命名漸層 21" x1="-123.33" y1="372.82" x2="497.09" y2="830.89" xlink:href="#_未命名漸層_21"/>
    <linearGradient id="_未命名漸層_21-137" data-name="未命名漸層 21" x1="-134.48" y1="387.93" x2="485.94" y2="846" xlink:href="#_未命名漸層_21"/>
    <linearGradient id="_未命名漸層_21-138" data-name="未命名漸層 21" x1="-118.38" y1="366.13" x2="502.04" y2="824.2" xlink:href="#_未命名漸層_21"/>
    <linearGradient id="_未命名漸層_21-139" data-name="未命名漸層 21" x1="-109.34" y1="353.88" x2="511.08" y2="811.95" xlink:href="#_未命名漸層_21"/>
    <linearGradient id="_未命名漸層_21-140" data-name="未命名漸層 21" x1="134.18" y1="24.05" x2="754.6" y2="482.12" xlink:href="#_未命名漸層_21"/>
    <linearGradient id="_未命名漸層_21-141" data-name="未命名漸層 21" x1="110.17" y1="56.57" x2="730.59" y2="514.64" xlink:href="#_未命名漸層_21"/>
    <linearGradient id="_未命名漸層_21-142" data-name="未命名漸層 21" x1="125.54" y1="35.76" x2="745.96" y2="493.82" xlink:href="#_未命名漸層_21"/>
    <linearGradient id="_未命名漸層_21-143" data-name="未命名漸層 21" x1="137.34" y1="19.77" x2="757.76" y2="477.83" xlink:href="#_未命名漸層_21"/>
    <linearGradient id="_未命名漸層_21-144" data-name="未命名漸層 21" x1="115.61" y1="49.2" x2="736.03" y2="507.26" xlink:href="#_未命名漸層_21"/>
    <linearGradient id="_未命名漸層_21-145" data-name="未命名漸層 21" x1="153.08" y1="-1.55" x2="773.5" y2="456.52" xlink:href="#_未命名漸層_21"/>
    <linearGradient id="_未命名漸層_21-146" data-name="未命名漸層 21" x1="132.31" y1="26.59" x2="752.73" y2="484.65" xlink:href="#_未命名漸層_21"/>
    <linearGradient id="_未命名漸層_21-147" data-name="未命名漸層 21" x1="179.65" y1="-37.54" x2="800.07" y2="420.53" xlink:href="#_未命名漸層_21"/>
    <linearGradient id="_未命名漸層_21-148" data-name="未命名漸層 21" x1="162.02" y1="-13.66" x2="782.44" y2="444.41" xlink:href="#_未命名漸層_21"/>
    <linearGradient id="_未命名漸層_21-149" data-name="未命名漸層 21" x1="177.8" y1="-35.03" x2="798.22" y2="423.04" xlink:href="#_未命名漸層_21"/>
    <linearGradient id="_未命名漸層_21-150" data-name="未命名漸層 21" x1="210.13" y1="-78.82" x2="830.55" y2="379.25" xlink:href="#_未命名漸層_21"/>
    <linearGradient id="_未命名漸層_21-151" data-name="未命名漸層 21" x1="178.96" y1="-36.6" x2="517.25" y2="213.17" xlink:href="#_未命名漸層_21"/>
    <linearGradient id="_未命名漸層_21-152" data-name="未命名漸層 21" x1="180.04" y1="-38.07" x2="800.47" y2="420" xlink:href="#_未命名漸層_21"/>
    <linearGradient id="_未命名漸層_21-153" data-name="未命名漸層 21" x1="196.35" y1="-60.16" x2="816.78" y2="397.9" xlink:href="#_未命名漸層_21"/>
    <linearGradient id="_未命名漸層_21-154" data-name="未命名漸層 21" x1="235.08" y1="-112.62" x2="855.5" y2="345.45" xlink:href="#_未命名漸層_21"/>
    <linearGradient id="_未命名漸層_21-155" data-name="未命名漸層 21" x1="214.58" y1="-84.85" x2="835" y2="373.22" xlink:href="#_未命名漸層_21"/>
    <linearGradient id="_未命名漸層_21-156" data-name="未命名漸層 21" x1="244.45" y1="-125.31" x2="864.87" y2="332.76" xlink:href="#_未命名漸層_21"/>
    <linearGradient id="_未命名漸層_21-157" data-name="未命名漸層 21" x1="220.79" y1="-93.26" x2="841.22" y2="364.8" xlink:href="#_未命名漸層_21"/>
    <linearGradient id="_未命名漸層_21-158" data-name="未命名漸層 21" x1="191.5" y1="-53.59" x2="811.92" y2="404.48" xlink:href="#_未命名漸層_21"/>
    <linearGradient id="_未命名漸層_21-159" data-name="未命名漸層 21" x1="208.91" y1="-77.17" x2="829.33" y2="380.9" xlink:href="#_未命名漸層_21"/>
    <linearGradient id="_未命名漸層_21-160" data-name="未命名漸層 21" x1="242.25" y1="-122.33" x2="862.67" y2="335.74" xlink:href="#_未命名漸層_21"/>
    <linearGradient id="_未命名漸層_21-161" data-name="未命名漸層 21" x1="217.7" y1="-89.08" x2="838.13" y2="368.99" xlink:href="#_未命名漸層_21"/>
    <linearGradient id="_未命名漸層_21-162" data-name="未命名漸層 21" x1="204.01" y1="-70.53" x2="824.43" y2="387.54" xlink:href="#_未命名漸層_21"/>
    <linearGradient id="_未命名漸層_21-163" data-name="未命名漸層 21" x1="505.04" y1="156.11" x2="525.44" y2="171.17" xlink:href="#_未命名漸層_21"/>
    <linearGradient id="_未命名漸層_21-164" data-name="未命名漸層 21" x1="247.36" y1="-129.25" x2="867.79" y2="328.82" xlink:href="#_未命名漸層_21"/>
    <linearGradient id="_未命名漸層_21-165" data-name="未命名漸層 21" x1="239.4" y1="-118.47" x2="859.82" y2="339.6" xlink:href="#_未命名漸層_21"/>
    <linearGradient id="_未命名漸層_21-166" data-name="未命名漸層 21" x1="254.6" y1="-139.05" x2="875.02" y2="319.01" xlink:href="#_未命名漸層_21"/>
    <linearGradient id="_未命名漸層_21-167" data-name="未命名漸層 21" x1="149.26" y1="3.62" x2="769.68" y2="461.69" xlink:href="#_未命名漸層_21"/>
    <linearGradient id="_未命名漸層_21-168" data-name="未命名漸層 21" x1="374.31" y1="147.77" x2="399.65" y2="166.48" xlink:href="#_未命名漸層_21"/>
    <linearGradient id="_未命名漸層_21-169" data-name="未命名漸層 21" x1="93.72" y1="78.85" x2="714.14" y2="536.92" xlink:href="#_未命名漸層_21"/>
    <linearGradient id="_未命名漸層_21-170" data-name="未命名漸層 21" x1="80.92" y1="96.19" x2="701.34" y2="554.26" xlink:href="#_未命名漸層_21"/>
    <linearGradient id="_未命名漸層_21-171" data-name="未命名漸層 21" x1="263.12" y1="238.79" x2="265.61" y2="240.63" xlink:href="#_未命名漸層_21"/>
    <linearGradient id="_未命名漸層_21-172" data-name="未命名漸層 21" x1="60.06" y1="124.44" x2="196.61" y2="225.26" xlink:href="#_未命名漸層_21"/>
    <linearGradient id="_未命名漸層_21-173" data-name="未命名漸層 21" x1="66.57" y1="115.62" x2="686.99" y2="573.69" xlink:href="#_未命名漸層_21"/>
    <linearGradient id="_未命名漸層_21-174" data-name="未命名漸層 21" x1="74.51" y1="104.86" x2="230.43" y2="219.98" xlink:href="#_未命名漸層_21"/>
    <linearGradient id="_未命名漸層_21-175" data-name="未命名漸層 21" x1="61.21" y1="122.88" x2="681.63" y2="580.95" xlink:href="#_未命名漸層_21"/>
    <linearGradient id="_未命名漸層_21-176" data-name="未命名漸層 21" x1="175.54" y1="233.56" x2="237.71" y2="279.46" xlink:href="#_未命名漸層_21"/>
    <linearGradient id="_未命名漸層_21-177" data-name="未命名漸層 21" x1="68.92" y1="112.44" x2="689.34" y2="570.51" xlink:href="#_未命名漸層_21"/>
    <linearGradient id="_未命名漸層_21-178" data-name="未命名漸層 21" x1="62.66" y1="120.91" x2="683.09" y2="578.98" xlink:href="#_未命名漸層_21"/>
    <linearGradient id="_未命名漸層_21-179" data-name="未命名漸層 21" x1="48.69" y1="139.83" x2="669.11" y2="597.9" xlink:href="#_未命名漸層_21"/>
    <linearGradient id="_未命名漸層_21-180" data-name="未命名漸層 21" x1="60.2" y1="124.25" x2="680.62" y2="582.32" xlink:href="#_未命名漸層_21"/>
    <linearGradient id="_未命名漸層_21-181" data-name="未命名漸層 21" x1="50.74" y1="137.06" x2="671.16" y2="595.13" xlink:href="#_未命名漸層_21"/>
    <linearGradient id="_未命名漸層_21-182" data-name="未命名漸層 21" x1="44.37" y1="145.69" x2="664.79" y2="603.76" xlink:href="#_未命名漸層_21"/>
    <linearGradient id="_未命名漸層_21-183" data-name="未命名漸層 21" x1="50.92" y1="136.81" x2="671.34" y2="594.88" xlink:href="#_未命名漸層_21"/>
    <linearGradient id="_未命名漸層_21-184" data-name="未命名漸層 21" x1="74.04" y1="105.51" x2="694.46" y2="563.58" xlink:href="#_未命名漸層_21"/>
    <linearGradient id="_未命名漸層_21-185" data-name="未命名漸層 21" x1="67.08" y1="114.94" x2="687.5" y2="573.01" xlink:href="#_未命名漸層_21"/>
    <linearGradient id="_未命名漸層_21-186" data-name="未命名漸層 21" x1="86.58" y1="88.51" x2="707" y2="546.58" xlink:href="#_未命名漸層_21"/>
    <linearGradient id="_未命名漸層_21-187" data-name="未命名漸層 21" x1="96.11" y1="75.61" x2="716.53" y2="533.68" xlink:href="#_未命名漸層_21"/>
    <linearGradient id="_未命名漸層_21-188" data-name="未命名漸層 21" x1="97.01" y1="74.39" x2="717.44" y2="532.45" xlink:href="#_未命名漸層_21"/>
    <linearGradient id="_未命名漸層_21-189" data-name="未命名漸層 21" x1="90.58" y1="83.1" x2="711" y2="541.17" xlink:href="#_未命名漸層_21"/>
    <linearGradient id="_未命名漸層_21-190" data-name="未命名漸層 21" x1="106.41" y1="61.66" x2="726.83" y2="519.72" xlink:href="#_未命名漸層_21"/>
    <linearGradient id="_未命名漸層_21-191" data-name="未命名漸層 21" x1="118.5" y1="45.29" x2="738.92" y2="503.36" xlink:href="#_未命名漸層_21"/>
    <linearGradient id="_未命名漸層_21-192" data-name="未命名漸層 21" x1="319.04" y1="201.04" x2="374.5" y2="241.98" xlink:href="#_未命名漸層_21"/>
    <linearGradient id="_未命名漸層_21-193" data-name="未命名漸層 21" x1="135.04" y1="22.88" x2="755.46" y2="480.95" xlink:href="#_未命名漸層_21"/>
    <linearGradient id="_未命名漸層_21-194" data-name="未命名漸層 21" x1="162.1" y1="-13.77" x2="782.52" y2="444.3" xlink:href="#_未命名漸層_21"/>
    <linearGradient id="_未命名漸層_21-195" data-name="未命名漸層 21" x1="181.5" y1="-40.04" x2="801.92" y2="418.03" xlink:href="#_未命名漸層_21"/>
    <linearGradient id="_未命名漸層_21-196" data-name="未命名漸層 21" x1="82.77" y1="93.68" x2="703.19" y2="551.75" xlink:href="#_未命名漸層_21"/>
    <linearGradient id="_未命名漸層_21-197" data-name="未命名漸層 21" x1="79.77" y1="97.74" x2="700.19" y2="555.81" xlink:href="#_未命名漸層_21"/>
    <linearGradient id="_未命名漸層_21-198" data-name="未命名漸層 21" x1="85.14" y1="90.47" x2="705.56" y2="548.54" xlink:href="#_未命名漸層_21"/>
    <linearGradient id="_未命名漸層_21-199" data-name="未命名漸層 21" x1="76.44" y1="102.26" x2="696.86" y2="560.33" xlink:href="#_未命名漸層_21"/>
    <linearGradient id="_未命名漸層_21-200" data-name="未命名漸層 21" x1="68.53" y1="112.97" x2="688.95" y2="571.03" xlink:href="#_未命名漸層_21"/>
    <linearGradient id="_未命名漸層_21-201" data-name="未命名漸層 21" x1="102.11" y1="67.48" x2="722.53" y2="525.55" xlink:href="#_未命名漸層_21"/>
    <linearGradient id="_未命名漸層_21-202" data-name="未命名漸層 21" x1="91.86" y1="81.37" x2="712.28" y2="539.44" xlink:href="#_未命名漸層_21"/>
    <linearGradient id="_未命名漸層_21-203" data-name="未命名漸層 21" x1="110.28" y1="56.42" x2="730.7" y2="514.49" xlink:href="#_未命名漸層_21"/>
    <linearGradient id="_未命名漸層_21-204" data-name="未命名漸層 21" x1="124.87" y1="36.66" x2="745.29" y2="494.73" xlink:href="#_未命名漸層_21"/>
    <linearGradient id="_未命名漸層_21-205" data-name="未命名漸層 21" x1="125.82" y1="35.37" x2="746.25" y2="493.43" xlink:href="#_未命名漸層_21"/>
    <linearGradient id="_未命名漸層_21-206" data-name="未命名漸層 21" x1="123.65" y1="38.31" x2="744.07" y2="496.38" xlink:href="#_未命名漸層_21"/>
    <linearGradient id="_未命名漸層_21-207" data-name="未命名漸層 21" x1="122.49" y1="39.88" x2="742.91" y2="497.95" xlink:href="#_未命名漸層_21"/>
    <linearGradient id="_未命名漸層_21-208" data-name="未命名漸層 21" x1="140.39" y1="15.64" x2="760.81" y2="473.71" xlink:href="#_未命名漸層_21"/>
    <linearGradient id="_未命名漸層_21-209" data-name="未命名漸層 21" x1="156.13" y1="-5.69" x2="776.55" y2="452.38" xlink:href="#_未命名漸層_21"/>
    <linearGradient id="_未命名漸層_21-210" data-name="未命名漸層 21" x1="170.53" y1="-25.19" x2="790.95" y2="432.88" xlink:href="#_未命名漸層_21"/>
    <linearGradient id="_未命名漸層_21-211" data-name="未命名漸層 21" x1="152.32" y1="-.53" x2="772.75" y2="457.54" xlink:href="#_未命名漸層_21"/>
    <linearGradient id="_未命名漸層_21-212" data-name="未命名漸層 21" x1="396.57" y1="174.31" x2="443.79" y2="209.18" xlink:href="#_未命名漸層_21"/>
    <linearGradient id="_未命名漸層_21-213" data-name="未命名漸層 21" x1="150.96" y1="1.32" x2="771.38" y2="459.39" xlink:href="#_未命名漸層_21"/>
    <linearGradient id="_未命名漸層_21-214" data-name="未命名漸層 21" x1="149.31" y1="3.56" x2="769.73" y2="461.63" xlink:href="#_未命名漸層_21"/>
    <linearGradient id="_未命名漸層_21-215" data-name="未命名漸層 21" x1="158.41" y1="-8.77" x2="778.83" y2="449.3" xlink:href="#_未命名漸層_21"/>
    <linearGradient id="_未命名漸層_21-216" data-name="未命名漸層 21" x1="178.28" y1="-35.68" x2="798.7" y2="422.39" xlink:href="#_未命名漸層_21"/>
    <linearGradient id="_未命名漸層_21-217" data-name="未命名漸層 21" x1="460.62" y1="184.23" x2="479.04" y2="197.83" xlink:href="#_未命名漸層_21"/>
    <linearGradient id="_未命名漸層_21-218" data-name="未命名漸層 21" x1="198.36" y1="-62.88" x2="818.78" y2="395.18" xlink:href="#_未命名漸層_21"/>
    <linearGradient id="_未命名漸層_21-219" data-name="未命名漸層 21" x1="193.42" y1="-56.18" x2="813.84" y2="401.89" xlink:href="#_未命名漸層_21"/>
    <linearGradient id="_未命名漸層_21-220" data-name="未命名漸層 21" x1="215.55" y1="-86.16" x2="835.97" y2="371.91" xlink:href="#_未命名漸層_21"/>
  </defs>
  <path class="cls-1" d="m439.88,816.87c-51.29-43.95-51.26-116.07-78.63-173.58,1.04-.06,1.23-1.83,1.43-2.65-.43.38-.76,1.11-1.3,1.46-1.83-20.97,10.42-77.34,37.91-44.2-3.66-13.89-16.9-24.14-29.4-12.62-13.68,13.42-16.05,33.16-12.11,52.21-.39,1.56-.51,3.22-.49,4.91-11.54-2.29-23.87-3.65-35.23.18,11.33,3.68,23.88,4.18,35.24.28,1.72,23.07,11.59,44.28,18.65,66.02,9.79,35.18,17.9,77.5,48.5,100.37-3.46,1.55-6.74,6.2-6.34,9.56,2.63-2.71,5.46-5.53,7.2-9,4.25,2.85,9.03,5.26,14.58,7.08Z"/>
  <path class="cls-2" d="m445.92,752.7c-2.83-6.25-5.95-12.35-9.09-18.44,2.57-8.34,3.29-17.34.55-25.74.01-.02.03-.04.04-.06.07-.03.18.05.24.01-3.46,2.41-3.64,15.87-3.46,20.66-16.98-34.03-29.97-73.32-63.09-95.4,10.48,17.92,24.7,33.58,34.28,52.09,11.58,26.04,26.26,51.52,35.22,78.45-14.18,11.91-10.54,33.6,6.59,40.24-24.72-30.96,13.49-27.63-1.27-51.81Z"/>
  <path class="cls-3" d="m456.74,705.92c-9.54,6.5-26.57-14.29-25.97-23.01,5.76-26.58,1.53-55.26-20.13-73.78-9.73-9.22-5.68-4.7-2.05,3.17,6.13,12.43,13.67,24.71,16.14,38.51,2.6,26.7-14.76,43.09,18.87,58.35,4.64,1.92,10.04.81,13.13-3.25Z"/>
  <path class="cls-6" d="m675.02,835.56c5.37-9.09-12.15-27.03-17.32-34.7-21.92-33.26-28.71-74.55-49.88-108.48-10.89-14.36-32.71-7.58-48.37-9.45-20.68-.42-41.37-1.02-62.04.19-34.4.75-17.49,6.31-33.71,21.78-.47.78-7.24,5.49-4.33,4.14,8.82-1.48,16.03-7.31,20.15-15.1,19.32-5.51,40.6-4.45,60.64-4.69,18.68,1.06,38.1-1.53,56.17,4.27,9,7.61,12.74,20.44,18.55,30.57,7.54,22.81,18.18,43.74,26.53,66.3,7.08,15.74,21.68,27.47,29.74,42.6-2.88,1.69-5.91,3.14-8.83,4.76,4.07-.69,9.21.37,12.7-2.19Z"/>
  <path class="cls-4" d="m579.88,827.51c22.9-.38,45.84,2.01,68.69-.09-21.58-8.72-45.33-6.24-68.05-5.71-21.61,1.09-43.56.53-64.79,5.05,21.27,3.28,42.77.61,64.15.74Z"/>
  <path class="cls-5" d="m521.1,798.86c29.88,3.83,60.51,1.88,90.57.14-29.83-3.8-61.02-8.08-90.57-.14Z"/>
  <path class="cls-7" d="m550.41,785.55c23.76-1.3,47.61,0,71.3-2.09-41.38-1.83-108.11-8.91-145.04,8.22,24.51-1.08,49.17-4.72,73.74-6.13Z"/>
  <path class="cls-9" d="m504.98,764.64c-6.51,1.4-13.4,2.41-19.3,5.63,35.77.43,71.74-3.49,107.42-6.63-29.18-2.89-59.06-3.3-88.12,1Z"/>
  <path class="cls-8" d="m471.97,750.21c18.6,1.12,37.01-2.8,55.57-3.32,22.63-1.28,45.38,1.44,67.95-.49-43.81-6.2-90.6-8.87-133.63,2.79,3.35.28,6.73.9,10.12,1.03Z"/>
  <path class="cls-168" d="m487.02,731.63c31.54,2.25,63.46,1.99,95.02-.15-30.95-4.55-64.71-9.79-95.02.15Z"/>
  <path class="cls-169" d="m468.27,725.24c36.23-9.67,78.71-4.3,116.28-8.6-24.64-3.29-100.41-10.6-116.28,8.6Z"/>
  <path class="cls-198" d="m560.62,701.83c-17.91-3.19-37.96-6.69-54.85,2.1,18.3,1.52,36.76,1.7,54.85-2.1Z"/>
  <path class="cls-174" d="m423.2,874.39c-4.62,20.42-11.54,40.39-13.97,61.25,13.83-34.41,26.19-71.33,28.27-108.57-7.65,14.73-10.64,31.27-14.3,47.32Z"/>
  <path class="cls-170" d="m567.58,854.03c5.57,27.5,16.43,54.06,26.74,80.1-4.22-32.08-14.88-63.65-27.35-93.44,31.68-2.94,64.46.31,95.03-10.05-42.97-3.3-86,5.84-129.09,3.3-29.24-.88-58.12-6.29-86.99-10.19.78.6,1.59,1.16,2.41,1.7-11.2,26.95-18,56.13-21.98,85.05,11.83-26.52,21.42-55.68,22.25-84.87,2.27,1.45,4.68,2.68,7.19,3.74-11.26,35.36-15.98,73.93-16.21,110.95,8.26-36.12,16.64-73.76,16.3-110.9,30.79,11.6,64.66,11.13,97.15,11.77-.35,15.91,7.07,30.86,10.85,46.08,5.08,20.67,10.43,41.51,21.21,60.08-9.37-35.64-14.88-73.07-31.64-106.16,4.33-.08,8.66-.24,12.98-.45-.17,2.57.88,12.15,1.14,13.32Z"/>
  <path class="cls-171" d="m344.21,666.95c5.1-.56,10.24-.88,15.27-1.98-19.82-5.78-40.38-.64-60.53-2.05,13.26,8.91,30.37,5.81,45.26,4.04Z"/>
  <path class="cls-173" d="m292.15,659.65c15.28-7.78,23.2-23.43,23.24-40.23-7.07,13.76-15.08,27.12-23.24,40.23Z"/>
  <path class="cls-172" d="m294.94,530.33c0,.15.26.68.2.29,4.55,13.71,11.01,26.5,17.47,39.36,2.89,16.03-11.32,34.08,12.15,42.88-23.49-25.17,23.3-27.93-29.82-82.53Z"/>
  <path class="cls-176" d="m357.51,606.07c-6.94-.97-21.1,10.31-30.95,8.27,10.14,9.07,23.55.04,30.95-8.27Z"/>
  <path class="cls-175" d="m440.53,599.46c-11-4-23.55-2.88-34.86-.82,12.65,7,39.49,1.31,43.3,14.83,1.17-7.27-1.41-11.66-8.44-14.01Z"/>
  <path class="cls-187" d="m447.69,621.98c-1.18,11.6-3.48,23.04-4.43,34.67-1.23,9.71-.56,22.03-12.2,24.96,26.61,2.61,23.77-49.93,17.27-66.26-.46-2.14-.52,5.77-.65,6.64Z"/>
  <path class="cls-189" d="m334.73,625.68s-.07-.01-.11-.01h.11Z"/>
  <path class="cls-188" d="m338.27,621.09c-4.39.07-9.45.94-13.73,2.43,9.87,3.5,21.32,2.99,31.1-.78-5.62-1.31-11.57-1.78-17.37-1.65Z"/>
  <path class="cls-166" d="m327.2,628.21c-1.67.13-3.35.4-4.98.66,9.36,5.2,20.6,4.8,30.69,2.15-8.21-2.72-17.08-3.49-25.71-2.81Z"/>
  <path class="cls-167" d="m350.82,652.54c-8.34-2.85-17.7-3.48-26.38-1.9,8,4.52,17.77,4.6,26.38,1.9Z"/>
  <path class="cls-164" d="m375.73,607.5c10.59,13.57,15.6,32.12,23.35,47.57.53-17.36-5.55-41.11-23.35-47.57Z"/>
  <path class="cls-165" d="m387.63,605.61c2.73,11.13,7.3,21.98,14.11,31.3-.48-11.58-4.74-23.93-14.11-31.3Z"/>
  <path class="cls-162" d="m391.74,598.62c-.14-.1-.38-.32-.53-.32,5.29,17.36,12.87,33.89,22.7,49.22-2.22-17.64-8.94-36.53-22.17-48.9Z"/>
  <path class="cls-163" d="m258.1,549.45c6.69,13.56,10.81,28.42,17.76,41.9.63-15.37-3.54-33.66-17.76-41.9Z"/>
  <path class="cls-161" d="m270.18,549.88c1.69,12.4,6.4,24.18,13.27,34.74-.45-12.54-4.15-25.68-13.27-34.74Z"/>
  <path class="cls-178" d="m277.85,538.9c-.09-.12-.16-.3-.27-.41,1.94,17.17,7.37,34.05,14.14,49.92.19-17.55-2.65-35.39-13.88-49.51Z"/>
  <path class="cls-179" d="m319.93,683.01c14.23.58,29.44-2.5,42.61-6.73-26.07-1.88-52.9,1.64-78.22-6.65,6.29,6.29,16.71,9.83,25.59,12.09-6.05,20.43-6.82,41.83-9.44,62.88-6.49,47.14-19.7,94.24-18.43,142.06,7.13-20.68,8.84-42.6,11.93-64.12,4.42-46.88,19.58-93.37,16.64-140.64,2.85.79,5.77.9,8.75,1.08-11.4,40.86-12.71,83.89-20.56,125.56-7.61,32.71-7.36,65.81-15.37,97.7.56-6.59.4-13.23-.67-19.79-5.15,15.27-9.09,31.95-6.02,48.05,2.38-6.17,4.25-12.6,5.46-19.14-.58,6.67-.43,13.38.65,20.02-1.05,2.74-2.32,4.78-5.49,4.99-.09-1.81-.93-4.25.26-5.75-2.84.8-6,8.35-2.82,10.27,11.1,2.16,11.84-6.1,10.7-14.75-.44.82-.86,1.64-1.29,2.47,5.12-15.67,7.6-32.08,7.2-48.61,9.64-33.2,12.85-67.97,17.93-102.08,3.96-32.89,13.04-65.56,10.59-98.92Z"/>
  <path class="cls-177" d="m353.3,687.71c3.78-2.49,7.55-5.15,10.87-8.24-12.86,3.63-27.55,8.38-35.7,19.65-.53-4.2-.94-8.85-2.71-12.71-6.14,43.51-8.99,87.99-6.73,131.93,7.73-38.75,7.81-79.15,9.5-118.54,8.42-3.65,17.12-6.89,24.76-12.1Z"/>
  <path class="cls-183" d="m285.33,712.17c2.9,8.1,5.52,16.45,9.99,23.85-1.14-7.87-2.49-15.78-4.06-23.64,2.53,7.55,5.61,14.93,9.26,21.98-.98-11.47-3.2-22.96-6.23-34.16,4.63-3.08,8.57-6.78,12.74-10.53-5.24-.12-11.3,4.21-13.06,9.32-2.19-7.53-4.27-15.5-8.94-21.9.56,4.86.81,9.79,1.5,14.66-2.11-8.05-4.51-16-7.28-23.78-.78,8.24-.38,16.52.97,24.66-8.84-13.19-20.52-24.41-34.08-32.73,7.14,15.56,20.81,29.43,35.46,39.63,1,4.28,2.25,8.5,3.74,12.64Z"/>
  <path class="cls-184" d="m306.49,694.6c-4.76,1.22-8.24,5.12-10.03,9.58,4.31-1.89,7.46-5.6,10.03-9.58Z"/>
  <path class="cls-180" d="m237.38,688.62c-1.62-24.87,2.95-49.91-.79-74.64,5.47-1.51,10.66-3.94,14.81-7.72-5.29.3-10.66,1.27-15.63,3.19-.66-3.31-1.43-6.61-2.38-9.9-.68,3.78-1.01,7.62-1.17,11.46-1.53.77-3.01,1.65-4.42,2.64-1.03-2.92-2.31-5.76-3.92-8.42-.13.88-.21,1.77-.27,2.66-.08-2.66-.23-5.33-.46-8-3.67,11.51-5.73,23.54-7.16,35.58-.05-.07-.09-.14-.14-.2,1.18-12.15,1.91-24.32,1.74-36.54,10.47.75,21.02.93,31.4-.77,12.16,22.82,8.57,61.66,37.96,70.24-19.17-16.76-19.63-45.51-29.36-67.77-5.21-15.81-13.18-30.51-18.53-46.29-3.2-8.64,23.73-24.08,30.74-28.63,8.36-5.28,17.41-8.46,24.73.21-12.3-29.63-53.98,6.31-57.69,26.25.27-.31.56-.61.83-.92-.69,1.61-.49,4.09-.59,5.61-7.77-5.96-8.51-14.68-7.01-23.74-8.87,8.82-6.62,22.51,7.01,23.84.09,7.44,1.69,14.8,4.08,21.84-4.03-1.35-8.68-1.72-12.55.24,4.1,1.36,8.59,1.66,12.76.37,1.02,3.07,2.43,5.98,3.64,8.98-14.3-3.01-28.93-4-43.52-3.69,12.73,8.04,29.45,7.26,43.53,3.69,1.06,2.54,2.11,5.08,3.13,7.64-16.91-4.96-34.64-4.8-51.88-1.78,6.53,2.19,13.18,4.01,20.07,4.55-3.62,9.01-5.41,18.52-6.53,28.2-9.17-11.93-20.18-22.5-33-30.24-4.4,4,27.17,34.35,32.21,38-1.48,36.52-11.76,72.13-11.05,108.68-2.33,6-16.99,64.46-1.35,52.95-1.12.05-2.26-.15-3.39-.19,1.74-6.59,3.63-13.19,4.87-19.9-.4,6.28-.62,12.57-.58,18.88,11.51-24.37,9.38-53.28,14.3-79.45,3.52-34.09,10.66-67.95,11.84-102.21.61,7.07,3.19,14.06,6.96,19.95.27-5.97-.44-11.99-2.18-17.68,1.21-.16,2.43-.35,3.64-.58,1.36,6.92-6.56,140.96,8.19,108.03-.88.5-1.83,1.1-2.75,1.61.66-12.01.42-24.04-.17-36.05Zm-38.71,54.69c2.5-7.18,4.54-14.59,6.01-22.1-1.83,12.64-3.7,25.27-5.07,37.95.15-5.33-.04-10.65-.94-15.85Zm16.03-97.24c.25-2.15.48-4.3.71-6.45.03.02.06.05.09.07-.22,2.14-.44,4.26-.8,6.38Z"/>
  <path class="cls-181" d="m188.45,587.51c-14.32-26.47-9.78-61.89-32.53-84.15,4.83,13.01,8.73,26.44,12.44,39.83-2.56-.72-5.47-.66-7.68.92,0,0-.02,0-.02,0,2.56.43,5.38.72,7.84-.39,4.57,14.24,4.33,31.54,13.65,43.71-4.99.05-10.5,1.7-13.57,5.76,0,.02.02.02.03,0,4.95-.78,9.95-2.18,13.83-5.44,3.44,4.47,9.53,7.14,15.33,8.44-3.25-2.72-6.92-5.13-9.31-8.69Z"/>
  <path class="cls-182" d="m181.38,535.91c1.29,2.46,2.77,4.81,4.4,6.98-.73-9.85-3.69-19.54-9.38-27.73-.3,5.27.74,10.58,2.65,15.58-3.78-7.65-8.79-14.82-14.58-20.52,4.5,9.53,8.4,19.24,11.61,29.37,3.92,11.77,5.59,35.69,19.06,40.25-9.15-9.98-7.32-31.53-13.75-43.94Z"/>
  <path class="cls-185" d="m233.4,523.54c-3.67-17.34-18.8-29.43-29.76-42.47-12.31-10.7-44.33,7.77-47.68,21.8,5.66-7.27,15.51-9.88,23.82-13.05,7.45-2.2,15.29-7.27,21.28.42,9.37,15.38,32.19,27.69,29.73,47.74,3.98-4.29,3.72-9.05,2.61-14.43Z"/>
  <path class="cls-186" d="m200.1,579.77c10.34-4.24,20.75-10.36,25.46-21.1-9.47,5.38-18.83,12.34-25.46,21.1Z"/>
  <path class="cls-156" d="m237.51,563.23c-2.23-1.16-5.11-1.76-7.45-.52,2.3.94,5.03,1.22,7.45.52Z"/>
  <path class="cls-146" d="m226.92,568.82s-.05,0-.05,0c15.9,2.39,8.41-4.99-1.76-.4.37.26,1.27.3,1.82.41Z"/>
  <path class="cls-153" d="m228.97,571.84c-.46.11-3.44.25-2.99.88,4.26,1.95,9.13,2.14,13.63.99-3.35-1.38-7-2.35-10.65-1.87Z"/>
  <path class="cls-157" d="m193.6,535.84c0-7.72-1.67-15.67-5.65-22.39-.41-.96-3.23-5.13-2.91-1.97.08-.04.12-.2.19-.28.65,8.78,3.75,17.18,8.37,24.64Z"/>
  <path class="cls-155" d="m193.2,506.58c.36,8.6,2.69,17.12,6.89,24.75.38-8.64-.74-18.13-6.89-24.75Z"/>
  <path class="cls-158" d="m113.27,463.27c.12-.07.23-.19.37-.18-17.04.87-20.21,16.06-7.51,26.39-3.52-13.46-4.47-17.13,7.14-26.22Z"/>
  <path class="cls-148" d="m137.86,536.55c2.02,7.99,12.37,11.53,18.99,6.76-30.04-.45,13.99-26.18-41.13-61.61,12.45,18.72,24.57,30.71,22.14,54.85Z"/>
  <path class="cls-152" d="m152.67,517.78c-3.3-19.96-12.42-54.43-37.15-54.71,23,4.29,25.7,74.46,45.31,60.08-4.82-.02-7.64.62-8.16-5.37Z"/>
  <path class="cls-154" d="m149.23,527c-2.14,3.18-3.14,7.73-2.36,11.62,2.18-3.4,3.26-7.58,2.36-11.62Z"/>
  <path class="cls-147" d="m158.92,553.34c3.74-.87,7.38-2.22,10.78-3.8-47.16,1.77-41.11-26.78-62.74-57.22,2.71,17.6,8.81,36.32,18.48,51.65,7.78,8.93,21.56,11.89,32.87,9.51-8.63,5.69-19.12,204.73-3.13,173.46-.58.8-1.02,2.45-2.29,2.34,4.14-23.68-.88-47.53.43-71.36-.03-34.96,7.85-69.64,5.59-104.58Z"/>
  <path class="cls-151" d="m182.89,672.33c-4.62-29.02-11.29-58.19-20.39-86.14-1.69,29.5,7.22,59.1,18.56,86.03.44,1.7,2.31,2.46,2.54.2.58-1.97.27-1.16-.71-.1Z"/>
  <polygon class="cls-143" points="76.51 448.98 76.51 448.98 76.51 448.99 76.51 448.98 76.51 448.98"/>
  <path class="cls-142" d="m111.45,512.77c-23.48-10.42-13.86-48.09-34.94-63.78,3.46,6.37,5.37,16.93,7.74,27.63-2.79.74-5.6,2.09-7.64,4.15,2.93,0,5.86-1.38,7.75-3.68,4.11,18.86,9.71,36.35,27.09,35.68Z"/>
  <path class="cls-141" d="m104.69,443.37c6.46-2.33,10.57-5.08,17.5-2.05-11.2-13.64-31.24.78-43.41,6.62,8.83.14,17.63-1.39,25.9-4.57Z"/>
  <path class="cls-145" d="m127.04,448.83c3.03,9.09,10.1,24.66,21.9,17.62-13.79-.24-12.38-23.25-26.4-23.76,2.22,1.27,3.5,3.83,4.51,6.14Z"/>
  <path class="cls-144" d="m147.31,490.91c20.63-5.7,16.91-29.54,2.67-23.1,13.33,2.03,1.94,17.31-2.67,23.1Z"/>
  <path class="cls-150" d="m117.87,536.37c-12.95,37.88-16.62,80.01-13.86,119.84,1.52,1.65,2.05-2.12,2.66-3.02-.25.17-.52.46-.77.67,5.43-21.9,4.74-44.57,7.76-66.81,2.44-16.76,5.27-33.69,4.21-50.68Z"/>
  <path class="cls-149" d="m85.24,537.86c-2.43,27.4-6.2,55.14-1.17,82.47,4.87-18.66,3.21-38.28,5.01-57.36,1.25-19.28,6.44-38.76,3.03-58.05-2.86,10.78-5.82,21.75-6.88,32.94Z"/>
  <path class="cls-160" d="m103.51,516.46c-4.83,14.21-2.96,30.15.82,44.5,3.48-14.47,3.1-30.12-.82-44.5Z"/>
  <path class="cls-159" d="m147.21,596.23c2.75-13.4,1.62-27.92-3.88-40.48-3.24,12.62.08,27.75,3.88,40.48Z"/>
  <path class="cls-196" d="m162.39,556.13c.49,10.09,5.6,19.4,11.8,27.32-.59-10.13-5.15-19.74-11.8-27.32Z"/>
  <path class="cls-190" d="m117.23,582.3s0,0,0,0c8.13.24,16.69-1.84,24.14-5.33-8.46-1.8-17.35-.09-24.13,5.33Z"/>
  <path class="cls-192" d="m257.13,715.94c-1.68-23.11-8.18-45.75-17.18-67.03-.94,23.29,7.03,46.38,17.18,67.03Z"/>
  <path class="cls-197" d="m332.15,703.9c-.02,10.38,4.36,20.04,10.45,28.27.13-10.18-4.03-20.46-10.45-28.27Z"/>
  <path class="cls-191" d="m415.07,837.42c-3.1-17-7.06-33.92-15.81-49.01,1.92,26,8.08,52.46,20.56,75.58-.4-8.96-2.88-17.8-4.76-26.57Z"/>
  <path class="cls-194" d="m423.82,855.16c-.05-14.75-3.25-30.84-12.76-42.52,1.01,14.78,5,29.65,12.76,42.52Z"/>
  <path class="cls-195" d="m84.22,495.44c-22.15-2.58-14.49-30.65-25.68-44.15-1.98-4.72-11.53-8.16-7.44-13.99-7.34,4.58,1.99,12.88,3.17,18.62,1.88,5.81,3.84,11.64,5.02,17.63.07,14.76,12.04,28.3,27.25,21.95-.73-.03-1.55,0-2.32-.06Z"/>
  <path class="cls-193" d="m70.45,472.06c-1.53,9.58,5.62,24.73,16.4,15.74-10.53,2.39-11.73-9.45-16.4-15.74Z"/>
  <path class="cls-202" d="m57.34,436.91c14.54-.4,13.63-5.68,25.54,4.97-2.3-3.56-2.61-8.86-6.32-11.35-6.91-2.42-19.22,2.65-25.34,6.42,2.03-.2,4.07.06,6.11-.04Z"/>
  <path class="cls-201" d="m58.81,443.87c1.49,7.96,5.72,15.71,9.86,22.7-.63-8.24-3.39-17.07-9.86-22.7Z"/>
  <path class="cls-140" d="m76.58,480.77s.01,0,.02,0c0,0-.01,0-.02,0Z"/>
  <polygon class="cls-139" points="76.6 480.78 76.61 480.77 76.6 480.77 76.6 480.78"/>
  <path class="cls-133" d="m102.26,498.56c1.78-.78,3.32-3,3.98-4.92-1.88,1-3.58,2.78-3.98,4.92Z"/>
  <path class="cls-138" d="m132.17,466.02c-1.45-8.63-7.22-16.26-14.8-20.56,2.95,7.9,8.74,14.71,14.8,20.56Z"/>
  <path class="cls-135" d="m307.52,540.24s0,.01,0,.01c20.16,12.31,17.76,1.83,15.81,32.03,14.08-19.94,10.82-33.84-15.82-32.04Z"/>
  <polygon class="cls-134" points="109.98 398.75 109.98 398.75 109.98 398.75 109.98 398.75"/>
  <path class="cls-137" d="m160.32,419.22c124.33,39.22,249.71,75.27,374.84,111.91,10.27,2.44,20.82,4.19,31.37,4.1-153.22-40.96-303.95-94.56-456.54-136.48t0,0h0,0s0,0,0,0c0,0,0,0,0,0,14.96,10.6,33.22,14.67,50.34,20.47Z"/>
  <path class="cls-136" d="m230.9,432.02c134.93,33.03,267.96,74.5,403.01,107.23-49.15-24.71-106.1-29.21-158.22-46.02-87.8-24.07-174.59-55.4-264.44-70.18,6.42,3.14,12.91,6.43,19.64,8.97Z"/>
  <path class="cls-131" d="m270.81,471.94c111.36,34.02,216.58,84.86,326,123.65-109.9-49.22-223.38-91.85-336.9-132.35-47.77-15.06-93.62-39.6-143.55-46.67,48.95,24.07,103.54,35.65,154.45,55.37Z"/>
  <path class="cls-132" d="m137.58,427.48s0,.01,0,.02c0,0,0,0,0,0,18.48,21.38,54.12,25.96,79.54,36.37,65.27,20.19,126.77,51.91,192.45,70.13-87.19-43.04-181.8-70.88-271.98-106.5,0,0,0,0,0,0,0,0,0-.01-.01-.01Z"/>
  <path class="cls-199" d="m461.02,552.94c-13.1-5.75-27.12-8.96-40.88-12.44,30.82,21.92,70.19,28.22,104.15,44.38,25.89,10.16,50.92,23.75,78.71,27.93-45.52-23.46-94.86-39.68-141.98-59.88Z"/>
  <path class="cls-209" d="m611.75,657.47c10.72,4.73,21.83,8.64,33.25,11.29-144.1-70.32-292.77-132.12-438.24-199.82-19.62-8.15-39.58-18.13-60.85-20.53,153.68,72.42,312.17,135.98,465.85,209.06Z"/>
  <path class="cls-200" d="m256.81,407.47c4.62,2.64,10.16-.07,14.38-2.28-5.74-1.48-11.74,1.5-17.3-.8,0-.02.03-.08,0-.08.1,1.31,1.88,2.37,2.92,3.17Z"/>
  <path class="cls-208" d="m266.4,347.96c-4.82-1.27-10.21-3.72-14.82-.52,4.69.54,10.22,2.77,14.82.52Z"/>
  <path class="cls-207" d="m253.31,345.35c4.67-.19,9.3,2.19,14.07,1.19.07.59.21,1.17.34,1.75.57-1.38,2.59-3.34-.02-3.87-4.31-.94-11.04-2.58-14.38.94Z"/>
  <path class="cls-212" d="m242.4,389.82c2.45-14.48,10.65-29.31,4-43.94-.74,20.73-20.18,42.3-.97,59.94-1.62-5.14-3.56-10.48-3.03-16Z"/>
  <path class="cls-211" d="m253.68,403.24c.06.24.1.49.17.72.06-.32.11-.64.16-.96.19-.14.37-.27.55-.42-.16,0-.32,0-.48,0,2.93-17.81,3.23-36.88-2.02-54.24-3.23,17.9-2.63,36.49,1.47,54.24-2.9-.28-5.69,1.66-8.53,1.17,0,0,0-.03,0-.03,1.29,2.97,6.52,1.14,8.67-.48Z"/>
  <path class="cls-214" d="m251.74,344.91c.03.12.04.24.07.36.07-.16.16-.33.25-.5.02-.01.05-.02.08-.03-.02,0-.03,0-.05-.01,2.5-3.62-.49-4.82-3.8-4.42-2.4-.13-2.93,1.28-2.63,3.42.02.22.05,2.05.65,1.54-.01-.04-.1,0-.13-.03.22-.89.85-1.66,1.22-2.54,1.31.24,2.62.15,3.93-.02.15.64.23,1.3.36,1.96-1.4-.95-8.11,1.32-4.19,1.27,0,0,0,0-.01,0,1.47-.03,2.94-.37,4.26-.99Z"/>
  <path class="cls-213" d="m223.84,394.96c-4.59-8.39,6.78-21.17-1.37-27.37,2.78,6.42-10.91,17.76,1.37,27.37Z"/>
  <path class="cls-203" d="m222.6,367.28s.02,0,.03,0c5.3,1.88,11.19,2.13,16.6.51-5.17-1.88-11.52-2.74-16.63-.51Z"/>
  <path class="cls-205" d="m222.78,366.66c-4.73-1.71-10.4-2.05-15.08-.21.13.02.26.08.39.12h-.02c4.7,1.87,9.94,1.43,14.71.09Z"/>
  <path class="cls-210" d="m230.28,397.64c2.48.04,5.15-.52,7.38-1.53-4.55-1.24-9.4-1.25-14.07-.79,1.88,1.48,4.33,2.2,6.7,2.32Z"/>
  <path class="cls-217" d="m145.56,393.57c19.48-1.98,39.08-3.6,57.99-9.04.28,4.24,3.24,8.87,7.49,10.12-.06-.07-.1-.16-.15-.23,3.21,1.75,6.94,2.05,10.37,1.14-3.39-1.81-7.19-2.22-10.98-2.08-5.81-8.68,5.2-20.07-4.13-27.34,2.3,6.38-2.62,11.55-2.66,17.73-32.8.02-65.89,3.93-98.08,10.14,13.18,2.6,26.86.52,40.14-.44Z"/>
  <path class="cls-216" d="m339.06,378.62s0,0,0,0h0Z"/>
  <path class="cls-215" d="m342.53,411.94c5.01-9.18-3.45-50.25-3.46-19.76-16.42-6.24-34.02-7.47-51.39-6.85,15.48,8.31,34.21,9.36,51.46,8.42.25,6.19,1.32,12.33,3.39,18.19Z"/>
  <path class="cls-204" d="m359.63,413.66c-5.69-.83-11.44-.92-17.17-.54,4.4,3.86,12.34,3.96,17.17.54Z"/>
  <path class="cls-218" d="m360.88,416.62c3.84-10.26,5.3-21.9.89-32.21-2.31,10.43-3.05,21.71-.89,32.21Z"/>
  <path class="cls-219" d="m367.04,416.76c1.03-.2,2.03-.52,2.98-.97.08.47.14.93.22,1.4,5.93-7.05,3.24-61.24-.64-33.91-2.26-.44-9.09.46-6.96,2.46-.08-.65.27-.6.83-.59,2.13.18,4.17-.5,6.07-1.36-1.69,10.53-1.34,21.31.45,31.81-1.86-.66-9.43-1.35-8.36,1.28-.05-.07-.06-.17-.06-.26,1.8-.23,3.57.6,5.47.14Z"/>
  <path class="cls-220" d="m361.06,379.13c-.43,1.86-.22,3.73.5,5.49.84-1.96.73-4.1.4-6.18.22-.09.44-.17.65-.28-.24-.06-.48-.11-.72-.17-.02-.11-.03-.22-.05-.33,0,0,0,0,0,0h0s.03.01.02.01c0-.23-.26-.05-.36.22-6.88-1.77-13.93-.64-20.86.27.93-5.29,0-10.81-1.84-15.81-2.07,5.08-.98,11.09,1.51,15.87-.38.12-1.1.04-1.31.4.02.02.09.03.06,0,.19.04.37.14.55.22,0,0-.03-.01-.03-.01,6.82,3.54,14.56,1.99,21.58-.06-.06.18-.1.32-.1.36Z"/>
  <path class="cls-206" d="m339.78,362.05h0s0,0-.01-.01c0,0,0,0,0,.01Z"/>
  <polygon class="cls-124" points="339.78 362.05 339.78 362.05 339.78 362.05 339.78 362.05"/>
  <polygon class="cls-127" points="339.77 362.04 339.77 362.04 339.77 362.04 339.77 362.04"/>
  <polygon class="cls-130" points="339.77 362.04 339.77 362.04 339.77 362.04 339.77 362.04"/>
  <path class="cls-126" d="m354.68,360.86c4.24.22,9.34-1.05,13.1,1.02-3.23-7.1-26.07-8.67-27.83.17-.05,0-.1,0-.16,0,7.08,5.49,18.62,4.91,26.36.73-.75,6.39-1.92,13.1.3,19.34,2.66-6.91,3.66-13.79.16-20.59-.22-.2-.45.81-.45,1.11-8.38-1.42-16.98-.99-25.44-.64.73-2.29,12.28-1.11,13.95-1.15Z"/>
  <path class="cls-78" d="m392.4,378.25c-.61-1.98-1.1-4.89-2.32-6.41h0s0,0,0,0c0,0,0,0,0,0,0,0,0,0,0,0-.03.2-.05.41-.08.61.01-1.37-3.29-1.05-2.7-.07.02-.03-.06-.04-.06-.07.21-.11.47-.04.68.04-5.05.73-10.09,1.73-15.18,2.07,3.94,3.68,13.43,2.95,17.2-1.46-1.84,14.58-1.2,29.65,3.12,43.77-7.61-.18-15.46-.46-22.88,1.77,7.21,2.86,16.5,3.21,22.94-1.57.05.19.07-.18.14-.23,0,0-.02,0-.03,0,3.21-12.6,2.29-25.92-.83-38.44Z"/>
  <polygon class="cls-129" points="390.08 371.83 390.08 371.83 390.08 371.83 390.08 371.83"/>
  <path class="cls-82" d="m386.98,371.66c-3.67-2.12-8.4-.96-11.64,1.41,3.92.34,7.87-.37,11.64-1.41Z"/>
  <path class="cls-125" d="m444.74,393.33c3.66-.17,7.41.18,11.11-.04-2.79-2.65-9.05-2.98-11.11.04Z"/>
  <path class="cls-128" d="m441.36,413c6.08,2.82,14.27.85,18.48-3.45-7.42.66-16.08,2.06-23.1-.39,0,0,0,0,0,0,.3,2.24,2.75,3.14,4.62,3.85Z"/>
  <path class="cls-83" d="m435.6,435.99s0,0,0,0c2.18-8.71,2.94-17.79.41-26.51-3.17,7.84-3.52,18.59-.42,26.5Z"/>
  <path class="cls-76" d="m448.47,442.98c5.35.23,11.04-1.58,14.66-5.61-.07,1.2.07,2.4.41,3.55,10.18-36.41,35.96-32.48,46,1.55,4.37-23.86-23.04-49.82-40.84-25.3.14-3.68.3-10.06-3.73-11.47-1.47-3.79-7.59-3.94-9.9-7.08,6.16-2.92,2.73-6.22-2.66-4.84.63.42,1.38.81,2.04,1.23-2.78-.12-11.05,3.31-10.21-1.67-2.29.97-1.24,4.52.83,5.19-1.16,4.38-8.81,5.91-8.82,10.04.37-1.25,2.12-.94,3.15-1.45,3.5-.94,6.97-4.56,6.33-8.36,2.77.86,6.1,1.09,8.89.07.48,5.67,6.99,5.35,10.53,7.86,0-.31-.06-.59-.13-.86,1.49,4.82-.51,10.58,1.32,15.62-1.94,5-2.73,10.41-3.19,15.72-8.85,1.06-19.14,2.32-27.56-.73.98,4.43,8.82,6.25,12.9,6.54Z"/>
  <path class="cls-77" d="m467.35,443.74c12.97,4.23,27.07,4.45,40.62,3.44-14.22-5.93-29.84-5.95-44.84-6.01-.04-.07.08-.1.06-.14-.46,1.51,2.98,2.14,4.15,2.71Z"/>
  <path class="cls-71" d="m476.09,437.58c-1.37.11-3.01.06-4.19.68,9.28,3.94,19.75,3.85,29.63,3.05-8.18-2.57-16.69-4.19-25.43-3.73Z"/>
  <path class="cls-73" d="m520,442.21c-2.44-1.88-6.14-.88-8.76.21.86.3,1.83.41,2.75.49h-.03c2.07.26,4-.47,6.04-.7Z"/>
  <path class="cls-74" d="m519.53,423.2c-2.42-9.68-13.09-15.26-22.6-14.26,15.16,5.67,18.09,18.57,22.77,32.54.79-6.02,1.76-12.34-.17-18.28Z"/>
  <path class="cls-75" d="m519.29,450.75c-.06-.01-.13-.03-.19-.04,0,0,.19.04.19.04Z"/>
  <path class="cls-80" d="m520.04,444.33c-.32.91-.52,2.19-.9,3.17-3.96-1.61-8.53-.91-12.42.6,5.37.53,19.07,7.33,13.32-3.77Z"/>
  <path class="cls-79" d="m560.75,452.61c-12.21.69-24.53-.91-36.58,1.52,11.08,5.35,26.41,6.64,36.58-1.52Z"/>
  <path class="cls-72" d="m530.24,317.6c1.67,1.8,4.5,2.54,5.61,4.87-.04-.02-.08-.04-.11-.06,1.37-.85-1.47-4.68-2.24-6.17,6.37-4.16,17.24-2.55,24.5-1.56-.98,2.54-3.26,4.36-5.14,6.34-5.61.59-22.36-.31-17.95,8.91-2.02,18.25-.88,36.74-3.28,54.95-2.51,18.56-7.89,36.79-8.08,55.63,13.1-31.02,22.47-75.95,12.5-109.07,4.09,3.22,10.88,3.13,15.6,1.58-11.78,37.07,3.32,78.54,10.03,115.54,5.26-38.43-10.62-76.85-8.54-115.62.49-.98,1.67-1.17,2.52-1.75-.39-.06-.77-.1-1.15-.16,1.94-2.72,4.38-7.42.81-9.42,15.94-5.85,7.43-15.84-5.71-15.39-6.63-.36-21.89,2.34-19.36,11.4Zm11.87,12.99c-2.04-.06-4.26.84-6.21.36-.64-1.35-.66-2.9.45-3.94,0,0,0-.02,0-.02,5.56-.07,11.02.29,16.59-.63.1,1.48.42,3.09-.31,4.42-3.46-.38-6.92-.44-10.51-.18Z"/>
  <path class="cls-81" d="m579.29,359.22c-5.58,31.48-11.75,62.82-15.81,94.56,9.4-18.17,13.07-38.39,16.24-58.4,1.41-20.66,12.52-42.95,6.34-63.29-.06,9.28-4.83,18.1-6.77,27.12Z"/>
  <path class="cls-110" d="m579.65,315.74c1.7,1.46,5.16,1.43,5.33,4.03-9.13,1.21-5.93,10.74.79,12.97-2.27-4.99-4.87-7.96,2.81-7.43,4.86-.19,9.82-.35,14.57-1.36.26,1.5-.35,2.95-.86,4.34-5.06-.07-10.58.64-14.91,3.39,4.22.5,8.55,1.16,12.82.69-10.38,25.81,3.56,89,11.13,116.87-.54,0-1.08,0-1.62,0,.62.26,1.24.49,1.86.75.19.56.35,1.12.55,1.67.06.15.32-.18.09-.04,0,0,0,0,0,0,.04-.45.06-.89.09-1.34,23.05,8.87,48.2,17.41,73.15,14.85-23.43-8.54-47.9-16.01-73.08-15.88.02-39.09-11.62-77.89-10.99-117.04,4.82.29,4.34-5.83,1.83-8.27.33-.07.66-.13.99-.21-1.26-.52-2.55-1.01-3.86-1.47,37.73-20.27-32.43-27.41-20.69-6.52Zm14.69-4.6c3.49.4,7.58-.49,10.68,1.38-.95,3.59-3.96,6.16-5.76,9.37-4.43-1.47-9.07-2.45-13.68-2.16,1.32-3.39-2.99-4.84-3.08-7,1.31-3.08,8.87-1.47,11.84-1.59Z"/>
  <path class="cls-107" d="m567.38,455.83c-.98-.64-2.67-1.63-2.8-2.82-.43,16.05,49.88,16.45,46.21-.39-2.27,8.98-35.79,5.39-43.41,3.22Z"/>
  <path class="cls-109" d="m270.75,357.21c-3.09,9.95-1.37,23.99,2,33.78,1.66-11.25,1.9-22.83-2-33.78Z"/>
  <path class="cls-105" d="m276.2,358.6c-3.71,5.44-1.98,23.13-.48,30.45,2.95-9.84,3.17-20.5.48-30.45Z"/>
  <polygon class="cls-123" points="274.35 409.63 274.35 409.63 274.35 409.63 274.35 409.63"/>
  <path class="cls-113" d="m288.26,393.73c-.07-.49-.4-1.03-.42-1.53.1-.05.2-.09.29-.14-.09-.02-.19-.03-.28-.05,0-.05,0-.1.01-.15-.09-.05-.18.02-.25.11-1.12-.2-2.25-.38-3.4-.51,3.64-10.33,5.31-21.86,3.43-32.73-4.45,8.48-4.74,23-3.68,32.71-1.39-.15-2.78-.23-4.18-.24,2.85-11.29,5.09-23.34,3.03-34.96-4.89,10.6-4.94,23.46-3.22,34.96-2.24.02-4.51.14-6.64.67-.03-.08-.05-.17-.08-.25-2.18,5.2-1.28,13.59.81,18.53.03.01.07,0,.1-.01,2.09-5.92,1.31-12-.68-17.81,4.51,2.26,9.74,2.46,14.29.1-1.68,5.23-1.22,10.87-.07,16.18-4.31.26-8.69,1.76-12.96,1.04,2.58,4.16,10.05,2.8,13.1-.37.02.07.02.16.05.22.13-.41.37-.71.67-1.02-.08.01-.17.02-.25.04,1.96-4.63,1.91-10.04.34-14.78Z"/>
  <polygon class="cls-106" points="310.72 396.28 310.72 396.28 310.72 396.28 310.72 396.28"/>
  <path class="cls-108" d="m311.54,402.24c.1-1.57-.25-3.1-.57-4.62,1.36.67,2.93.72,4.29.07.82-.68-3.58-.73-4.37-.49-.06-.31-.13-.62-.18-.92-1.71,2.17-1.63,8.8-.24,11.35.41-1.74,1.02-3.55,1.07-5.39Z"/>
  <path class="cls-104" d="m329.86,397.71c-1.38,3.01-1.31,8.6.06,12.26-2.02.17-4.05.03-6.07-.11.55-3.65.8-7.46-.12-11.08.95.56,4.56,1.25,5.4-.51.06-.21-.17-.35-.28-.13-1.15.17-4.61.1-5.18.4-.15-.52-.23-1.5-.61-.3.24-.62.02-1.87.93-1.92,1.76-.01,4.51-1.11,5.31,1.09,1.17-3.52-4.73-4.25-6.49-2.27-1.84-1.73-9.19-.95-6.6,2.3-.71,3.38-1.68,7.07-.62,10.38-1.4-.35-3.44-.02-4.94.2,1.53,1.05,3.47.86,4.95-.18.24.74.58,1.47,1.05,2.16.02-.13.05-.27.07-.4,1.59,1.3,3.92,1.44,5.66.34.12.12.09,0,.06-.09-1.84-.47-3.79-.47-5.71-.33.66-3.77,1.56-7.86.17-11.57.11.06.22.13.34.19-.15-.49-.44-1.03-.34-1.59,1.75-.25,3.57-.39,5.34-.43,0,.32-.04.63-.1.95.08-.06.13-.11.2-.17.1.41.32.86.68,1.35-.03.09-.06.17-.08.25-1.93-.35-3.97-.74-5.95-.25,1.74,1.03,4.14,1.51,5.93.31-1.21,3.64-1.64,7.76.12,11.25,0,0-.02,0-.03,0,.24.33.39.75.64,1.1.03-.16.05-.33.08-.49,2.22,1.66,5.32,1.6,7.36-.46-.11-.16-.78.02-1.12-.01,1.43-3.94,1.7-8.37-.14-12.26Z"/>
  <path class="cls-122" d="m315.96,395.06c.08-3.18-11-1.53-6.13,2.41.04-.53-.09-1.13,0-1.67,2.04-.09,4.08-1.34,6.08-.92,0,0,.04.02.05.04,0,0,0,0,0,0,.02.05-.03.13,0,.15Z"/>
  <path class="cls-64" d="m416.89,411.71c-5.75-1.53-11.91-1.88-17.8-1.38,7.64,4.95,16.39,7.9,25.38,9.18,0,0-.27-.05-.27-.05,2.73.49,5.55.93,8.3,1.12-4.4-4.13-9.81-7.2-15.6-8.87Z"/>
  <path class="cls-68" d="m333.67,747.1s.03.01.04.02c-.02-.03-.04-.06-.06-.09,0,.02.01.05.02.07Z"/>
  <path class="cls-61" d="m333.71,747.12c6.9,11.48,19.1,23.61,28.47,34.67-.1-.12-.2-.23-.3-.35,11.84,14.36,23.69,28.88,38.5,40.33-15.67-29.26-37.78-57.58-66.67-74.66Z"/>
  <path class="cls-63" d="m462.33,880.81c2.86-13.44,4.52-27.38,2.5-41.03-9.2,31.94-13.9,65.53-15.74,98.7,6.71-18.47,9.23-38.21,13.19-57.42,19.76,28.87,46.28,53.92,74.26,74.82-20.16-28.63-45.25-55.24-74.21-75.07Z"/>
  <path class="cls-70" d="m521.15,902.58c-14.65-14.07-28.48-32.22-47.96-39.05,23.71,25.46,47.18,53.52,76.74,72.37-9.13-11.39-18.06-23.22-28.77-33.32Z"/>
  <polygon class="cls-62" points="473.18 863.52 473.19 863.52 473.18 863.52 473.18 863.52"/>
  <path class="cls-69" d="m250.43,642.55c1.72,13.33,13.31,23.38,24.35,29.88-5.16-12.16-15.05-21.03-24.35-29.88Z"/>
  <path class="cls-67" d="m340.54,731.72c14.56,21.52,33.37,40.58,54.88,55.25-13.55-22.3-32.18-42.11-54.88-55.25Z"/>
  <path class="cls-66" d="m210.2,609.99c-2.62-5.58-11.77-14.74-16.26-13.08,4.28,5.61,9.51,10.53,16.26,13.08Z"/>
  <path class="cls-65" d="m623.7,890.49c-2.54-2.94-36.58-21-35.43-15.36-.02-.17-.18-.42-.2-.62,0,0,0,0,0,0,32.78,23.72,64.84,50.5,101.93,67.17-18.98-20.67-43.66-34.92-66.3-51.19Z"/>
  <path class="cls-20" d="m120.42,235.22c46.84-8.69,86.49-41.07,128.64-62.08,71.67-40.35,147.48-75.08,215.8-120.67-73.51,31.26-140.14,77.28-212.15,112.02,69.25-40.65,144.02-73.06,209.7-119.42-41.73,16.2-78.25,43.43-118.21,63.45-49.74,27.75-103.37,49.95-149.47,83.6,6.37-1.87,12.74-3.92,18.95-6.37-30.58,17.54-63.19,31.12-93.28,49.45,0,0,.01.01.02,0,0,0,0,0,0,0Z"/>
  <path class="cls-21" d="m307.2,150.99c-2.41,17.42.03,33.01-12.08,47.22-2.31-10.81-2.58-24.01-7.4-33.45.33,13.82-1.81,28.23-8.87,40.12-1.21-1.69-2.74-3.19-4.2-4.66-.21,2.69,1.47,5.17,3.47,7.21-1.84,8.09.61,16.58,3.3,25.03-.2-.13-.4-.25-.58-.42,1.72,6.71,15.43,7.19,16.23-.95-4.25,3.56-10.24,2.7-15.37,1.56,1.24-8.26.45-17.29,4.61-24.83,3.1-3.62,5.34-7.47,5.73-12.38.61,1.52,1.49,2.92,2.63,4.13-2.25,8.27,1.98,21.31,5.19,28.47-2.88-44.69,22.67-21.01,7.35-77.06Z"/>
  <path class="cls-22" d="m331.23,136.68c-4.81,12.72-3.26,28.26-10.9,40.22-5.15,6.75-10.53,11.47-10.19,20.8.54,7.36,1.38,23.92,5.57,29.41-2.08-54.11,23.64-33.45,15.52-90.42h0Z"/>
  <path class="cls-25" d="m355.23,126.1c-2.75,62.59-33.18,35.61-14.66,98.25.99-12.15,1.8-24.48,2.33-36.67,13.96-24.6,20.78-31.05,12.33-61.58,0,0,0,0,0,0Z"/>
  <path class="cls-26" d="m341.43,224.31c-.19-.02-.36-.1-.45-.22,5.5,4.82,16.64,3.23,22.86-.16-7.52-1.24-14.96-1.25-22.41.38Z"/>
  <path class="cls-38" d="m383.73,114.09c-.85,61.76-34.02,30.21-17.32,96.52,2.02-13.24,1.78-26.6,4.91-39.74,1.46-5.42,6.89-8.1,10.02-12.43,9.35-12.48,6.42-30.35,2.4-44.36Z"/>
  <path class="cls-37" d="m372.95,213.43c7.44.98,15.33-.33,21.85-4.12-9-1.5-17.88.38-26.57,2.38.75,1.24,3.25,1.41,4.72,1.74Z"/>
  <path class="cls-28" d="m411.9,139.81c-10.8,13.4-6.42,31.78-1.48,46.68,1.59-12.93-.31-31.38,7.98-41.85,13.93-12.98,15.7-39.45,6-55.11,1.72,17.25.44,37.63-12.5,50.28Z"/>
  <path class="cls-39" d="m441.17,178.64c-9.15,3.29-18.68,7.04-28.6,6.47,9.53,7.58,22.32,3.12,28.6-6.47Z"/>
  <path class="cls-29" d="m441.92,145.87c-3.47-2.88-8.87-3.35-10.8-7.92-1.1,5.46,4.36,8.5,7.18,12.26,4.96,7.34,3.59,16.8,5.28,25.12,3.7-9.21,7.49-22.21-1.66-29.46Z"/>
  <path class="cls-24" d="m458.72,126.37c-1.94,4.19-4.58,8-6.62,12.14,9.95-6.32,16.34-16.25,17.09-28.15.75-13.16,3.05-29.3-5.2-40.44,1.75,18.4-1.4,38.35-5.26,56.45Z"/>
  <path class="cls-31" d="m450.82,164.08s0,.02,0,.08c.03.02.04-.11,0-.08Z"/>
  <path class="cls-23" d="m451.68,171.55c-.57-1.04-.24,1.31-.11,1.71.48,1.76,2.83,2.02,4.3,2.06,7.32-.29,16.79,1.16,22.1-4.87-6.53,1.63-13.12-1.27-19.59.83-2.17.29-5.2,2.91-6.71.26Z"/>
  <path class="cls-33" d="m474.11,125.62c-3.16-1.03-4.52-3.84-5.68-6.72-1.57,5.99,2.65,9.45,5.56,13.99,4.4,11.53,4.64,24.88,4.53,37.09,7.23-10.93,9.83-37.05-4.41-44.36Z"/>
  <path class="cls-30" d="m456.33,61.08c-.34.61-.76,1.37-.15,1.94,3.22-3.76,10.81-3.34,15.63-2.83,7.96.65,11.4,2.24,3.82,8.31,25.39-6.01-6.74-24.21-19.29-7.42Z"/>
  <path class="cls-36" d="m430.05,78.22c2.9.45,6.49.46,8.97,2.28.43,1.38.27,2.94.34,4.38,6.41-7.63-3.72-10.94-9.31-6.66Z"/>
  <path class="cls-32" d="m488.78,64c5.25-.58,15.54.07,19.86,3.05-.38,2.46-1.68,4.76-2.53,7.07,20.3-12.72-9.9-19.51-17.38-9.99.02-.02.01-.09.05-.13Z"/>
  <path class="cls-34" d="m497.11,115.42c2.39-12.22,1.95-25.41-2.25-37.19-1.55-3.35-1.27-3.35-1.34.23-2.16,18.64-.87,38-9.32,55.21,5.24-5.19,11.4-10.67,12.91-18.25Z"/>
  <path class="cls-35" d="m498.34,170.49c-4.16.3-8.05,3.47-12.19,2.83,5.55,5.04,15.58.42,20.93-3.35-2.86-.07-5.87.05-8.73.52Z"/>
  <path class="cls-27" d="m499.28,120c-.56-2.35-.94-4.83-1.34-7.17-7.85,24.8,14.56,11.92,10.75,51.5-7.27-1.16-15.63,1.52-20.35,6.85.03.03.09.04.05,0,6.73-1.05,13.62-1.76,20.07-4.23-.09.68-.2,1.36-.35,2.03.58-.68,1.13-1.53,1.68-2.46,1.18-.36,2.37-.66,3.59-.81-.85-.38-1.74-.68-2.65-.93,6.73-14.02,7.68-33.42-7.4-39.05,2.79-7.77,10.07-12.04,8.3-21.41-3.54,7.07-11.04,12.49-9.13,20.79-1.49-1.19-2.68-2.71-3.2-5.1Z"/>
  <path class="cls-19" d="m512.61,102.13c6.47-14.67,8.23-32.66,2.52-47.84-2.84,15.76-3.63,31.85-2.52,47.84Z"/>
  <path class="cls-17" d="m516.32,108.61c-.07-.14-.13-.34-.15-.49-.46,1.33.14,2.81.71,4.03,10.75,14.55,2.96,32.55,8.13,48.83,4.67-21.46,12.57-37.48-8.7-52.37Z"/>
  <path class="cls-18" d="m517.95,164.56c2.65.43,5.58-.22,7.15-2.56-3.25.58-6.67.64-9.85,1.64.02.63,2.11.82,2.71.91Z"/>
  <polygon class="cls-15" points="515.24 163.64 515.24 163.64 515.24 163.64 515.24 163.64"/>
  <path class="cls-13" d="m549.44,144.92c-2.25-67.53,29.95-32.05,17.96-89.03-2.65,10.37-2.21,22.2-7.8,31.54-17.46,12.72-17.69,39.04-10.16,57.49Z"/>
  <path class="cls-11" d="m570.48,103.24c10.3,10.53,5.82,24.94,7.3,38.22-4.54.22-9.08.49-13.62.72-2.65-.12-10.37,2.88-9.65-1.73-5.25,10.3,19.67,6.11,23.32,1.63.06.71.1,1.41.17,2.12,3.85-11.46,11.56-27.2,2.21-37.76-3.87-3.34-9.22-5.07-9.39-11.08-.95,2.46-1.45,5.39-.34,7.88Z"/>
  <path class="cls-12" d="m552.65,73.02c-.01-5.44-1.36-10.95-4.41-15.5.2,13.05-4.01,26.07-1.79,39.13,2.85-7.56,5.72-15.37,6.2-23.63Z"/>
  <path class="cls-10" d="m386.98,157.13c-1.33,4.87,4.1,10.65,7.11,14.71,5.33,7.86.16,25.72,2.47,36.38,3.98-11.4,12.14-26.6,4.75-38.02-3.79-5.3-11.7-6.85-14.32-13.07Z"/>
  <path class="cls-16" d="m386.98,157.12s0,0,0,0c0,0,0,0,0,0Z"/>
  <path class="cls-14" d="m264.85,196.49c-2.53,3.97-5.56,7.83-7.22,12.24-1.08-2.26-2.41-4.42-3.75-6.51-.83,3.59.54,7.25,2.79,10.16-1.28,9.29,1.72,18.85,6.39,26.83-4.53-40.38,19.37-29.07,6.56-65.81-1.71,6.61-.45,16.37-4.78,23.09Z"/>
  <path class="cls-91" d="m280.7,235.61c-5.56.68-11.14,1.9-16.33,4.1,5.43,2.29,12.57.59,16.33-4.1Z"/>
  <polygon class="cls-90" points="264.36 239.71 264.36 239.71 264.36 239.71 264.36 239.71"/>
  <path class="cls-89" d="m231.48,251.01h0s0,0,0,0c0,0,.02,0,.02,0,0,0,0-.01-.02-.01,0,0,0,0,0,0Z"/>
  <path class="cls-88" d="m215.89,256.54c-1.8-29.22,15.69-35.6,4.55-57.99-.19,27.63-19.84,25.86-4.55,57.99Z"/>
  <path class="cls-84" d="m206.47,202.3s0,.02.01.02c0-.02,0-.04,0-.05,0,0-.01.02-.02.03Z"/>
  <path class="cls-85" d="m210.81,226.49c2.74-8.24-.77-16.78-4.34-24.17,1.8,27.43-17.17,28.2-.34,55.38-1.03-10.78-.69-21.55,4.68-31.21Z"/>
  <path class="cls-111" d="m206.62,256.51s0,0,0,.01c0,0,0-.01,0-.02,0,0,0,0,0,0Z"/>
  <path class="cls-112" d="m210.45,260.02c2.76.2,5.71-.72,8.04-2.19,5.31,3.73,11.32-1.17,14.64-5.6,5.17,3.03,11.95-1.08,15.7-5.12,5.52,3.42,12.56.11,16.63-4.12-1.95.14-3.92.51-5.91.92,12.68-4.26-9.09-3.24-10.76,1.66-.65,0-1.3-.01-1.95-.08.49.57,1.06,1.01,1.65,1.41-5,.57-9.5,3.04-14.37,4,.14-.2.28-.4.42-.59-1.03.25-1.95.89-3.03.72.11.08.22.18.33.27-.57.24-1.13.48-1.68.74.28-.2.56-.42.83-.64h0c.11-.09.23-.17.34-.26-.12,0-.25,0-.37,0-4.32-34.4,17.73-21.24,2.45-61.15-1.46,7.56-.39,15.4-1.91,22.93-7.47,11.81-9.8,26.42-.69,38.22-4.58-.14-9.31,1.37-12.39,4.86h0s-.02,0-.01.02c-.57,0-1.99-.52-2.09-.18.44.47.88.95,1.37,1.38-3.64-.87-7.82,1.68-11.01-.6,0-.02-.04-.05-.04-.08-.33,1.71,2.12,3.39,3.82,3.49Zm13.28-4.91c-1.69.82-3.4,1.38-5.32.9,1.8-.1,3.59-.4,5.32-.9Z"/>
  <path class="cls-86" d="m201.86,215.43c-.4-2.24-.82-5.29-2.7-6.68.05,7.67-3.8,15.02-4.27,22.71,4.08-4.19,7.9-9.89,6.97-16.04Z"/>
  <path class="cls-87" d="m191.39,239.82c-.82,6.78,1.79,13.09,4.68,19.04.33,2.4,3.43.45,4.94.44-.74-.38-1.6-.69-2.36-1.07.59-8.11-4.11-15.31-5.95-22.88-1.03,1.08-1.06,3.02-1.31,4.47Z"/>
  <path class="cls-115" d="m246.93,258.06c-3.25.63-8.78,3.09-8.71,6.66,2.44-2.12,6.89-2.14,10.09-3.17,1.73-.04,6.3-3.09,6.58-.3,2.19-4.09-5.7-3.49-7.96-3.19Z"/>
  <path class="cls-117" d="m224.18,269.1c1.07-.75,2.66-.61,3.93-.97,1.07-.07,3.51-1.48,3.66.28,1.45-4.15-7.4-2.35-7.58.69Z"/>
  <path class="cls-120" d="m217.37,270.41c-.13.99-.54,1.89-.85,2.86,9.85-6.85-6.81-8.84-9.48-1.02,3.23-.87,6.92-2.57,10.33-1.83Z"/>
  <path class="cls-118" d="m216.43,265.63c3.68-.14,7.45-.73,10.84-2.3-.21.52-.53,1.05-.74,1.54,1.24-.41,3.38-1.53,2.55-3.11-2.71-2.75-10.5,1.47-12.65,3.87Z"/>
  <path class="cls-92" d="m262.17,255.6c4.99-1.68,10.73-1.93,15.83-3.74-.8,1.2-1.66,2.42-2.45,3.6,20.79-8.8-5.43-12.63-13.38.13Z"/>
  <path class="cls-121" d="m260.92,261.9s.06.03.04,0h0c3,.3,5.69-1,8.45-1.32-1.45-2.06-7.24-.57-8.48,1.32Z"/>
  <path class="cls-95" d="m284.48,243.18c4.58-.61,9.26-1.31,13.83-2.23-.68,1.28-1.61,2.36-2.61,3.42,15.67-4.78-1.43-12.84-11.22-1.19Z"/>
  <path class="cls-93" d="m321.35,235.88c-2.63-.68-11.41.43-11.55,3.71.29.56,1.02.17,1.43-.1,3.86-.03,7.41-1.77,10.9-2.79.04.08,0,.23.04.28.52-.65-.23-.97-.82-1.1Z"/>
  <path class="cls-114" d="m303.37,230.22c-1-.16-1.98-.42-2.92-.9,1.49,4.36,7.47,3.88,10.3,1.05-1.83-.05-3.73.1-5.58.02,2.83-.15,5.38-1.87,8.05-2.13-2.04-2.12-8.13-.81-9.84,1.96Z"/>
  <path class="cls-94" d="m285.72,233.28c4.27-.33,8.45-2.12,12.54-2.86-2.5-2.85-11.03-.33-12.54,2.86Z"/>
  <path class="cls-102" d="m322.88,225.6c1.49-.09,2.98-.24,4.47-.44-3.56.84-6.99,2.28-10.5,3.27,0,0,0,0,0,0,4.83,3.07,11.9-.49,16.01-3.94-.63-.01-1.26.02-1.88.07,2.87-.56,5.7-1.32,8.46-2.27-5.31-2.42-12.69-1.1-16.56,3.31Z"/>
  <path class="cls-101" d="m346.78,221.49c5.62-.2,10.9-2.49,16.45-3.12-4.06-3.83-13.52-1.02-16.45,3.12Z"/>
  <path class="cls-97" d="m346.77,221.52s0,.02-.01.02c0-.01.02-.02.03-.04,0,0,0,0,0,0,0,0,0,.01-.01.02Z"/>
  <path class="cls-96" d="m383.05,206.36c3.42-.43,6.77-2.1,10.27-1.96-6.17-4.47-15.89-1.79-21.42,2.53.06-.02.12-.02.19-.03h0c3.66.16,7.36.15,10.97-.54Z"/>
  <path class="cls-100" d="m415.23,184.14c7.66.37,14.41-3.69,21.32-6.32-7.46-2.67-15.68,1.55-21.32,6.32Z"/>
  <path class="cls-103" d="m453.78,169.41c.02.08.16.08.08.02,0,0,0,0,0,0,6.83.64,13.94-1.29,20.48-1.28-2.65-4.83-17.67-2.89-20.57,1.27Z"/>
  <path class="cls-99" d="m268.35,236.83c3.66-1.32,8.21-1.25,11.71-3.62-3.14-1.11-10.9-.14-11.71,3.62Z"/>
  <path class="cls-98" d="m245.54,246.3c.15.31.29.63.45.94.01-.42.02-.84.03-1.26.3-.2.61-.4.9-.62-.29-.04-.59-.05-.88-.07-2.29-21.36,12.56-39.79,2.04-60.12-.03,24.21-16.28,35.11-3.05,60.07-3.69.01-7.31,1.57-10.2,3.83,3.74.51,7.53-.76,10.71-2.77Z"/>
  <path class="cls-116" d="m294.64,254.14c18.04-1.04,16.92-14.82,3.93-5.98,1.12.08,2.32.12,3.48.19-2.67,1.66-5.17,3.59-7.41,5.79Z"/>
  <path class="cls-119" d="m290.09,254.53s0,0,0,0c.02.26,1.53.58,1.64,1.07-2.92,2.29-6.86,3.39-9.55,6.1,11.58.32,14.81-8.91,7.91-7.17Z"/>
  <path class="cls-50" d="m277.73,258.9c-4.74,2.18-10.45,3.18-15.12,5.88,5.5,1.35,12.88-.07,15.12-5.88,0,0,0,0,0,0Z"/>
  <path class="cls-52" d="m340.6,238.18c4.44-7.06-6.89-6.51-10.38-3.9,1.93.36,3.84,1.03,5.78,1.44-3.8,2.04-7.81,3.82-11.42,6.15,5.31.35,12.03.26,16.02-3.7Z"/>
  <path class="cls-53" d="m309.28,252.07c22.38,1.59,21.17-11.62,13.96-5.62-4.94.97-9.76,2.88-13.96,5.62Z"/>
  <path class="cls-46" d="m342.07,238.7c5.74-.18,11.3-2.27,16.11-5.37.29.08.56.17.82.26-2.63,2.43-7.23,4.18-9.12,6.7,4.18.76,16.06-3.73,10.59-8.55.39-.29.79-.57,1.17-.88-7.32-.1-14.35,2.75-19.57,7.84Z"/>
  <path class="cls-47" d="m389.78,220.85c-6.95-4.5-17.02.98-20.58,7.62,7.02-2.02,13.35-6.54,20.58-7.62Z"/>
  <path class="cls-48" d="m390.4,224.49c-4.06.45-7.93,1.89-11.38,4.03,4.09.98,8.89-.7,11.38-4.03Z"/>
  <path class="cls-49" d="m397.44,232.73c-4.53-5.22-13.61-1.74-17.61,2.66,6,.01,11.7-3.18,17.61-2.66Z"/>
  <path class="cls-51" d="m395.54,233.51s0,.01,0,.02c-4.59,2.6-11.02,1.93-16.05,4.07,4.76,2.33,14.96,2.04,16.05-4.09Z"/>
  <path class="cls-44" d="m409.52,215.49c-3.92,1.07-7.8,2.58-11.33,4.53,7.1,1.05,16.55.12,20.72-6.46,8.85-8.21-11.23-8.52-12.93-1.12,2.09-.85,15.52-4.33,12.78.64-.04-.01-.07-.04-.13-.04-.02.05.14.08.07.16-2.66,1.55-6.22,1.33-9.17,2.3Z"/>
  <path class="cls-45" d="m445.96,193.58c-8.32-.73-15.74,3.92-20.58,10.4,0,0-.03,0-.01.01,7.04-1.92,13.91-4.77,21.18-6.07-.51.87-1.14,1.7-1.71,2.52-5.7,2.48-13.76,5.16-19.24,9.18,15.3.54,20.05-7.06,19.41-8.91,5.35-.82,8.02-7.05.96-7.13Z"/>
  <path class="cls-42" d="m457.58,194.96c2.58-5.07,3.91-12.79-.84-17.02.29,5.62-.58,11.39.84,17.02Z"/>
  <path class="cls-55" d="m420.52,202.97c1.12-3.7.38-7.51-.34-11.21-2.45,2.6-1.28,8.04.34,11.21Z"/>
  <polygon class="cls-40" points="420.18 191.75 420.18 191.76 420.19 191.74 420.18 191.75"/>
  <path class="cls-43" d="m448.78,211.74c.12,0,.29.06.42.03-4.68-4.26-18-.69-18.5,5.89,1.82-2.17,6.4-2.25,9.33-3.39,2.91-.89,5.61-2.69,8.76-2.53Z"/>
  <path class="cls-57" d="m447.69,212.24c1.88,3.22-7.08,3.54-8.95,4.83-3.3,1.3-6.31,2.81-9.23,5,4.34,1.05,24.88-3.55,18.18-9.83Z"/>
  <path class="cls-41" d="m453.04,198.7c-.1,6.02-3.67,11.65-2.9,17.99,3.27-4.75,7.82-13.02,2.9-17.99Z"/>
  <path class="cls-59" d="m469.84,191.02c3.3-.63,6.68-.92,9.97-1.66-2.74,1.81-5.39,3.74-8.02,5.72,35.7-3.38,22.8-26.57-1.95-4.06Z"/>
  <path class="cls-56" d="m469.82,191.04s.01-.02.02-.02c0,0,0,0,0,0,0,0,0,.02-.01.02Z"/>
  <path class="cls-54" d="m522.39,170.12c-5.2,1.07-9.9,4.21-13.2,8.32,6.39-1.47,12.9-2.95,19.32-4.4-.52,1.25-1.36,2.6-2.03,3.89,10.38-4.03,4.52-10.51-4.09-7.81Z"/>
  <path class="cls-58" d="m507.47,182.64c-10.57-4.56-1.9,14.49,20.91-3.38-7.12.07-13.97,2.09-20.91,3.38Z"/>
  <path class="cls-60" d="m560.12,161.35c-7.69,1.58-15.03,6.16-20.99,11.02,10.71-.37,18.84-4.83,26.75-11.6-1.39-.01-2.77.1-4.14.31,2.82-1.74,6-4.03,4.77-7.37-3.67-6.45-24.72,4.66-25.38,10.2,0-.02-.05-.06-.05-.09,6.58-3.05,14.31-3.28,21.08-6.82-.59,1.48-1.34,2.93-2.04,4.36Z"/>
</svg>