<?xml version="1.0" encoding="UTF-8"?>
<svg id="_圖層_1" data-name="圖層 1" xmlns="http://www.w3.org/2000/svg" viewBox="0 0 45 45">
  <defs>
    <style>
      .cls-1 {
        fill: #f6f6f6;
        stroke-width: 0px;
      }
    </style>
  </defs>
  <path class="cls-1" d="m41.01,18.99h-18.03v7.33h10.46c-.33,1.94-1.06,3.66-2.56,4.99-.42.37-.87.72-1.34,1.03-1.85,1.22-4.06,1.92-6.43,1.92-5.13,0-9.49-3.31-11.06-7.9h0c-.41-1.19-.63-2.47-.63-3.8s.23-2.64.65-3.84c1.59-4.57,5.94-7.86,11.05-7.86,2.78,0,5.21,1.22,7.2,2.87l5.52-5.43s0,0-.01-.01c-3.39-3.03-7.94-5.01-12.85-5.01-7.49,0-14.03,4.38-17.21,10.7-1.3,2.59-2.03,5.51-2.03,8.58s.72,5.97,2.01,8.54c3.14,6.28,9.63,10.6,17.13,10.6,4.88,0,9.44-1.64,12.82-4.64.02-.02.04-.04.06-.05,3.02-2.72,4.67-6.5,5.26-10.69,0,0,0,0,0-.01,0,0,.25-2.8.25-3.74,0-.89-.25-3.58-.25-3.58Z"/>
</svg>