<?xml version="1.0" encoding="UTF-8"?>
<svg id="_圖層_1" data-name="圖層 1" xmlns="http://www.w3.org/2000/svg" viewBox="0 0 45 45">
  <defs>
    <style>
      .cls-1 {
        fill: #381b1d;
        stroke-width: 0px;
      }
    </style>
  </defs>
  <path class="cls-1" d="m40.45,4.84c-1.23-1.07-3.1-.93-4.16.3l-15.37,17.79-3.63-4.21c-1.07-1.23-2.93-1.37-4.16-.3-1.23,1.07-1.37,2.93-.3,4.16l5.87,6.79c.56.65,1.38,1.02,2.23,1.02s1.67-.37,2.23-1.02l17.6-20.37c1.07-1.23.93-3.1-.3-4.16Z"/>
  <path class="cls-1" d="m35.42,22.72c-.82,0-1.48.66-1.48,1.48,0,3.67-1.43,7.11-4.02,9.71-2.59,2.59-6.04,4.02-9.71,4.02-7.57,0-13.73-6.16-13.73-13.73,0-3.67,1.43-7.12,4.02-9.71,2.59-2.59,6.04-4.02,9.71-4.02.76,0,1.52.06,2.27.19.8.13,1.56-.41,1.7-1.21.13-.8-.41-1.56-1.21-1.7-.9-.15-1.83-.23-2.75-.23-4.46,0-8.65,1.74-11.79,4.89-3.15,3.15-4.89,7.34-4.89,11.79,0,9.2,7.48,16.68,16.68,16.68,4.46,0,8.65-1.74,11.79-4.89,3.15-3.15,4.89-7.34,4.89-11.79,0-.82-.66-1.48-1.48-1.48Z"/>
</svg>