<?xml version="1.0" encoding="UTF-8"?>
<svg id="_圖層_1" data-name="圖層 1" xmlns="http://www.w3.org/2000/svg" viewBox="0 0 45 45">
  <defs>
    <style>
      .cls-1 {
        fill: #fffdfa;
        stroke-width: 0px;
      }
    </style>
  </defs>
  <path class="cls-1" d="m8.67,13.05c0-5.21,4.24-9.45,9.45-9.45s9.45,4.24,9.45,9.45-4.24,9.45-9.45,9.45-9.45-4.24-9.45-9.45Zm29.48,19.79l2.9,1.67-1.57,2.73-2.9-1.67c-1.11,1.25-2.59,2.17-4.29,2.52v3.31h-3.15v-3.31c-1.7-.35-3.18-1.26-4.29-2.52l-2.9,1.67-1.57-2.73,2.9-1.67c-.26-.78-.43-1.6-.43-2.47s.17-1.69.43-2.47l-2.9-1.67,1.57-2.73,2.9,1.67c1.11-1.25,2.59-2.17,4.29-2.52v-3.31h3.15v3.31c1.7.35,3.18,1.26,4.29,2.52l2.9-1.67,1.57,2.73-2.9,1.67c.26.78.43,1.6.43,2.47s-.17,1.69-.43,2.47h0Zm-5.08-2.47c0-1.3-1.06-2.36-2.36-2.36s-2.36,1.06-2.36,2.36,1.06,2.36,2.36,2.36,2.36-1.06,2.36-2.36Zm-16.53,0c0-1.66.3-3.24.82-4.72h-5.55c-4.34,0-7.87,3.53-7.87,7.87v7.87h17.87c-3.21-2.6-5.27-6.57-5.27-11.02Z"/>
</svg>