<?xml version="1.0" encoding="UTF-8"?>
<svg id="_圖層_1" data-name="圖層 1" xmlns="http://www.w3.org/2000/svg" viewBox="0 0 45 45">
  <defs>
    <style>
      .cls-1 {
        fill: #fffdfa;
        stroke-width: 0px;
      }
    </style>
  </defs>
  <path class="cls-1" d="m5.56,5.6c.86-.86,2.25-.86,3.11,0l13.82,13.82,13.82-13.82c.84-.87,2.23-.9,3.11-.05.87.84.9,2.23.05,3.11-.02.02-.04.04-.05.05l-13.82,13.82,13.82,13.82c.84.87.82,2.26-.05,3.11-.85.82-2.2.82-3.05,0l-13.82-13.82-13.82,13.82c-.87.84-2.26.82-3.11-.05-.82-.85-.82-2.2,0-3.05l13.82-13.82L5.56,8.7c-.86-.86-.86-2.25,0-3.11Z"/>
</svg>