<?xml version="1.0" encoding="UTF-8"?>
<svg id="_圖層_1" data-name="圖層 1" xmlns="http://www.w3.org/2000/svg" viewBox="0 0 45 45">
  <defs>
    <style>
      .cls-1 {
        fill: #f6f6f6;
        stroke-width: 0px;
      }
    </style>
  </defs>
  <path class="cls-1" d="m22.51,41.17c-4.63,0-9.27,0-13.9,0-1.57,0-2.52-.97-2.43-2.53.31-5.64,3.57-10.18,9.04-11.95,1.45-.47,3.06-.58,4.6-.63,2.31-.08,4.63-.03,6.94.1,3.87.21,6.98,1.95,9.38,4.99,1.75,2.22,2.49,4.81,2.69,7.58.08,1.07-.83,2.49-2.3,2.47-4.67-.06-9.35-.02-14.02-.02Zm12.74-3.46c-.02-.23-.03-.38-.06-.53-.31-1.44-.89-2.77-1.78-3.95-1.59-2.11-3.75-3.36-6.32-3.55-2.86-.22-5.75-.18-8.62-.05-4.22.18-7.69,3.24-8.61,7.36q-.16.72.55.72c8.05,0,16.11,0,24.16,0,.21,0,.42,0,.68,0Z"/>
  <path class="cls-1" d="m31.79,13.17c.01,5.11-4.02,9.27-9.27,9.27-5.28,0-9.32-4.04-9.34-9.28-.02-5.52,4.65-9.36,9.32-9.35,5.1.02,9.3,4.24,9.3,9.35Zm-3.45,0c-.02-3.16-2.7-5.84-5.84-5.85-3.14,0-5.87,2.69-5.83,5.84.05,3.42,2.69,5.82,5.85,5.8,3.27-.03,5.71-2.5,5.82-5.79Z"/>
</svg>