<?xml version="1.0" encoding="UTF-8"?>
<svg id="_圖層_1" data-name="圖層 1" xmlns="http://www.w3.org/2000/svg" viewBox="0 0 45 45">
  <defs>
    <style>
      .cls-1 {
        fill: #fffdfa;
        stroke-width: 0px;
      }
    </style>
  </defs>
  <path class="cls-1" d="m36.07,4.66H8.93c-2.49,0-4.52,2.03-4.52,4.52v25.63h10.44l5.65,4.76c.58.51,1.3.77,2.02.77s1.4-.25,1.95-.73l5.8-4.8h10.33V9.18c0-2.49-2.03-4.52-4.52-4.52Zm-17.42,24.13l-1.06-4.52h-5.25l-1.06,4.52h-3.1l3.68-15.62c.43-1.87,2.45-3.03,4.43-2.2.95.4,1.58,1.31,1.81,2.3l3.65,15.52h-3.1Zm14.41-1.51h-9.05v-3.02h9.05v3.02Zm3.02-6.03h-12.06v-3.02h12.06v3.02Zm0-6.03h-12.06v-3.02h12.06v3.02Zm-20.94-1.37l1.74,7.4h-3.83l1.74-7.4c.02-.08.09-.14.17-.14s.15.06.17.14h0Z"/>
</svg>