<?xml version="1.0" encoding="UTF-8"?>
<svg id="_圖層_1" data-name="圖層 1" xmlns="http://www.w3.org/2000/svg" viewBox="0 0 45 45">
  <defs>
    <style>
      .cls-1 {
        fill: #381b1d;
        stroke-width: 0px;
      }
    </style>
  </defs>
  <path class="cls-1" d="m15.09,24.55c.12.67.19,1.29.33,1.88.19.8.75,1.21,1.63,1.24.52.02,1.03,0,1.55,0,5.54,0,11.09,0,16.63,0,.72,0,1.38.16,1.71.9.4.9-.06,1.85-1.03,2.08-.23.05-.48.08-.71.08-5.97,0-11.95,0-17.92,0-2.11,0-3.72-.9-4.56-2.85-.38-.88-.49-1.89-.67-2.85-.98-5.08-1.95-10.16-2.92-15.25-.12-.64-.24-.74-.89-.74-.83,0-1.65.02-2.48,0-1.32-.04-2.04-1.18-1.45-2.28.28-.53.77-.76,1.32-.77,1.15-.01,2.3,0,3.45.08,1.02.07,1.83.61,2.37,1.46.26.41.55.51,1.01.51,8.52-.01,17.04,0,25.57,0,1.61,0,2.72.88,2.87,2.3.04.38-.02.79-.12,1.17-.81,3.11-1.64,6.22-2.48,9.32-.64,2.36-2.39,3.7-4.83,3.7-5.91,0-11.81,0-17.72,0-.2,0-.41,0-.65,0Z"/>
  <path class="cls-1" d="m18.5,35.93c-.01,1.66-1.48,3.13-3.11,3.06-1.83-.08-2.98-1.39-3.03-3.08-.04-1.68,1.45-3.13,3.1-3.06,1.88.08,2.94,1.43,3.04,3.08Z"/>
  <path class="cls-1" d="m37.1,35.91c-.07,1.81-1.34,3.03-3.09,3.07-1.64.05-3.05-1.41-3.06-3.05-.01-1.64,1.37-3.09,3.04-3.07,1.71.02,3.03,1.2,3.11,3.05Z"/>
</svg>