<?xml version="1.0" encoding="UTF-8"?>
<svg xmlns="http://www.w3.org/2000/svg" xmlns:xlink="http://www.w3.org/1999/xlink" viewBox="0 0 32 32">
  <defs>
    <style>
      .cls-1 {
        fill: url(#_未命名漸層_10);
      }

      .cls-1, .cls-2, .cls-3, .cls-4, .cls-5, .cls-6, .cls-7, .cls-8, .cls-9, .cls-10, .cls-11, .cls-12, .cls-13, .cls-14, .cls-15, .cls-16, .cls-17 {
        stroke-width: 0px;
      }

      .cls-2 {
        fill: url(#_未命名漸層_10-2);
      }

      .cls-3 {
        fill: url(#_未命名漸層_1872);
      }

      .cls-3, .cls-4, .cls-5, .cls-6, .cls-7, .cls-8, .cls-9, .cls-10, .cls-11, .cls-12, .cls-13, .cls-14, .cls-15 {
        mix-blend-mode: screen;
      }

      .cls-4 {
        fill: url(#_未命名漸層_172-4);
      }

      .cls-5 {
        fill: url(#_未命名漸層_172-5);
      }

      .cls-6 {
        fill: url(#_未命名漸層_172-2);
      }

      .cls-7 {
        fill: url(#_未命名漸層_172-3);
      }

      .cls-8 {
        fill: url(#_未命名漸層_172-9);
      }

      .cls-9 {
        fill: url(#_未命名漸層_172-8);
      }

      .cls-10 {
        fill: url(#_未命名漸層_172-7);
      }

      .cls-11 {
        fill: url(#_未命名漸層_172-6);
      }

      .cls-12 {
        fill: url(#_未命名漸層_172);
      }

      .cls-13 {
        fill: url(#_未命名漸層_173);
      }

      .cls-14 {
        fill: url(#_未命名漸層_172-10);
      }

      .cls-15 {
        fill: url(#_未命名漸層_172-11);
      }

      .cls-18 {
        isolation: isolate;
      }

      .cls-16 {
        fill: #2f1516;
      }

      .cls-17 {
        fill: #fff;
      }
    </style>
    <linearGradient id="_未命名漸層_10" data-name="未命名漸層 10" x1="12.9" y1="10.91" x2="15.08" y2="15.95" gradientUnits="userSpaceOnUse">
      <stop offset="0" stop-color="#fcf0d8"/>
      <stop offset="1" stop-color="#cead82"/>
    </linearGradient>
    <linearGradient id="_未命名漸層_10-2" data-name="未命名漸層 10" x1="17.22" y1="9.03" x2="19.41" y2="14.07" xlink:href="#_未命名漸層_10"/>
    <radialGradient id="_未命名漸層_173" data-name="未命名漸層 173" cx="2516.34" cy="1945.41" fx="2516.34" fy="1945.41" r="12.32" gradientTransform="translate(597.34 -910.56) rotate(83.5) scale(.34 .36) skewX(-.67)" gradientUnits="userSpaceOnUse">
      <stop offset="0" stop-color="#f0a19d"/>
      <stop offset=".03" stop-color="#e49a93"/>
      <stop offset=".1" stop-color="#c48879"/>
      <stop offset=".15" stop-color="#a77861"/>
      <stop offset=".19" stop-color="#855f4d"/>
      <stop offset=".26" stop-color="#5c4235"/>
      <stop offset=".33" stop-color="#3b2a22"/>
      <stop offset=".4" stop-color="#211713"/>
      <stop offset=".47" stop-color="#0e0a08"/>
      <stop offset=".55" stop-color="#030202"/>
      <stop offset=".63" stop-color="#000"/>
    </radialGradient>
    <radialGradient id="_未命名漸層_172" data-name="未命名漸層 172" cx="10047.42" cy="-1374.34" fx="10047.42" fy="-1374.34" r="1.09" gradientTransform="translate(-3512.95 -981.26) rotate(90.73) scale(.1 2.57) skewX(16.24)" gradientUnits="userSpaceOnUse">
      <stop offset=".13" stop-color="#f6cc90"/>
      <stop offset=".15" stop-color="#e2bd88"/>
      <stop offset=".17" stop-color="#c4a77b"/>
      <stop offset=".19" stop-color="#ad9572"/>
      <stop offset=".21" stop-color="#9c896b"/>
      <stop offset=".24" stop-color="#938267"/>
      <stop offset=".28" stop-color="#908066"/>
      <stop offset=".33" stop-color="#776a54"/>
      <stop offset=".42" stop-color="#52493a"/>
      <stop offset=".52" stop-color="#342e25"/>
      <stop offset=".62" stop-color="#1d1a14"/>
      <stop offset=".73" stop-color="#0c0b09"/>
      <stop offset=".85" stop-color="#030202"/>
      <stop offset="1" stop-color="#000"/>
    </radialGradient>
    <radialGradient id="_未命名漸層_172-2" data-name="未命名漸層 172" cx="-8199.42" cy="-1417.71" fx="-8199.42" fy="-1417.71" r="1.09" gradientTransform="translate(-705.76 -3829.32) rotate(-179.94) scale(.09 2.7) skewX(-19.14)" xlink:href="#_未命名漸層_172"/>
    <radialGradient id="_未命名漸層_172-3" data-name="未命名漸層 172" cx="13225.61" cy="-1036.02" fx="13225.61" fy="-1036.02" r="1.09" gradientTransform="translate(-2758.43 1069.38) rotate(46.88) scale(.09 2.65) skewX(54.99)" xlink:href="#_未命名漸層_172"/>
    <radialGradient id="_未命名漸層_172-4" data-name="未命名漸層 172" cx="1170.56" cy="-1532.48" fx="1170.56" fy="-1532.48" r="1.09" gradientTransform="translate(-2662.95 -3010.39) rotate(133.96) scale(.1 2.62) skewX(-54.66)" xlink:href="#_未命名漸層_172"/>
    <radialGradient id="_未命名漸層_172-5" data-name="未命名漸層 172" cx="4025.93" cy="-1482.75" fx="4025.93" fy="-1482.75" r=".6" gradientTransform="translate(-3295.14 -2000.8) rotate(113.92) scale(.1 2.58) skewX(-36.27)" xlink:href="#_未命名漸層_172"/>
    <radialGradient id="_未命名漸層_172-6" data-name="未命名漸層 172" cx="-11200.33" cy="-1200.37" fx="-11200.33" fy="-1200.37" r=".6" gradientTransform="translate(371.27 -3394.58) rotate(-154.52) scale(.09 2.69) skewX(38.02)" xlink:href="#_未命名漸層_172"/>
    <radialGradient id="_未命名漸層_172-7" data-name="未命名漸層 172" cx="11098.49" cy="-1266.76" fx="11098.49" fy="-1266.76" r=".6" gradientTransform="translate(-3412.96 200.04) rotate(70.82) scale(.1 2.6) skewX(47.12)" xlink:href="#_未命名漸層_172"/>
    <radialGradient id="_未命名漸層_172-8" data-name="未命名漸層 172" cx="-5211.14" cy="-1455.47" fx="-5211.14" fy="-1455.47" r=".6" gradientTransform="translate(-1728.74 -3490.1) rotate(158.52) scale(.09 2.67) skewX(-48.87)" xlink:href="#_未命名漸層_172"/>
    <radialGradient id="_未命名漸層_172-9" data-name="未命名漸層 172" cx="10047.42" cy="-1374.34" fx="10047.42" fy="-1374.34" r=".46" xlink:href="#_未命名漸層_172"/>
    <radialGradient id="_未命名漸層_1872" data-name="未命名漸層 1872" cx="-8199.42" cy="-1417.71" fx="-8199.42" fy="-1417.71" r=".46" gradientTransform="translate(-705.76 -3829.32) rotate(-179.94) scale(.09 2.7) skewX(-19.14)" gradientUnits="userSpaceOnUse">
      <stop offset=".13" stop-color="#bcb5a8"/>
      <stop offset=".15" stop-color="#aca59a"/>
      <stop offset=".17" stop-color="#9b948b"/>
      <stop offset=".2" stop-color="#928b82"/>
      <stop offset=".23" stop-color="#8f8880"/>
      <stop offset=".24" stop-color="#8d867e"/>
      <stop offset=".31" stop-color="#736b62"/>
      <stop offset=".38" stop-color="#5d554a"/>
      <stop offset=".47" stop-color="#4c4438"/>
      <stop offset=".57" stop-color="#3f382b"/>
      <stop offset=".71" stop-color="#393124"/>
      <stop offset="1" stop-color="#372f22"/>
    </radialGradient>
    <radialGradient id="_未命名漸層_172-10" data-name="未命名漸層 172" cx="13225.61" cy="-1036.02" fx="13225.61" fy="-1036.02" r=".46" gradientTransform="translate(-2758.43 1069.38) rotate(46.88) scale(.09 2.65) skewX(54.99)" xlink:href="#_未命名漸層_172"/>
    <radialGradient id="_未命名漸層_172-11" data-name="未命名漸層 172" cx="1170.56" cy="-1532.48" fx="1170.56" fy="-1532.48" r=".46" gradientTransform="translate(-2662.95 -3010.39) rotate(133.96) scale(.1 2.62) skewX(-54.66)" xlink:href="#_未命名漸層_172"/>
  </defs>
  <g class="cls-18">
    <g id="_圖層_1" data-name="圖層 1">
      <rect class="cls-16" x="-7.5" y="-7.5" width="47" height="47"/>
      <g>
        <g>
          <path class="cls-17" d="m26.54,18.27c-.19-.16-.37-.21-.52-.23,0-.23-.1-.48-.31-.75-.27-.36-.55-.52-.98-.69-.12-.05-.24-.11-.36-.18-.19-.1-.38-.21-.6-.26.22-.22.39-.53.47-.78.17-.56.08-1.03-.04-1.46-.08-.27-.14-.51-.1-.76.04-.3.16-.56.28-.81.18-.35.2-.88-.07-1.19.05-.15.05-.3.05-.43,0-.05,0-.1,0-.15,0-.21-.02-.39.03-.61.08-.34.21-.69.33-1.02.05-.14.11-.28.16-.42.11-.32.12-.74-.11-.99.16-.3.17-.61.13-.99,0-.07-.02-.15-.03-.22-.02-.16-.04-.33-.04-.48,0-.1,0-.21.01-.32,0-.13.02-.27.01-.41-.02-.67-.29-.85-.53-.87.05-.18.08-.33.1-.47.12-.31.27-.74-.18-.97-.17-.09-.38-.18-.62-.17h0c-.28-.08-.59-.09-.88-.09-.12,0-.23,0-.33-.01-.31-.02-.62-.06-.92-.09-.26-.03-.54-.06-.8-.08-.91-.07-1.85.04-2.75.15-.24.03-.5.06-.74.09-1.42.15-2.49.32-3.48.55-.98.23-2,.57-3.23,1.08-.53.22-1.09.48-1.64.77-.23.12-.47.26-.67.45-.07.07-.14.15-.2.21-.02,0-.03.02-.04.03h0c-.15.12-.35.27-.43.47-.13-.05-.26-.09-.39-.13-.15-.05-.29-.09-.4-.14-.75-.35-1.24-.43-1.45-.24-.12.11-.14.29-.05.54.12.34.33.65.52.9.15.2.23.34.28.59.04.19.08.4.19.58.09.15.2.26.32.37h0s.05.06.08.09c.1.1.2.21.34.28.05.02.1.04.15.05,0,.32.22.5.42.67.05.04.1.09.15.14.08.08.15.17.23.26.06.07.12.14.18.21.15.16.25.3.32.43-.02.25-.12.48-.22.72-.09.21-.18.42-.22.65-.05.25-.08.51-.02.73.06.22.26.4.41.54l.02.02c.12.11.25.19.38.24,0,.02,0,.04,0,.06.07.68.55,1.03,1.01,1.38.17.13.35.26.51.41.32.3.6.58.83.87.16.21.29.46.41.71.02.03.03.07.05.1,0,.08,0,.16-.01.24,0,.09-.01.19-.02.28,0,.16-.02.35.11.53l.03.04c.09.13.21.3.4.35.21.06.43.04.65,0,.03,0,.07-.01.11-.02.08-.02.16-.03.23-.03,0,.13,0,.27,0,.45,0,.33.03,1.41.7,1.66.1.04.2.05.3.03.02.04.03.08.06.13.24.46.88.61,1.25.7h.03c.21.06.48.12.72.04.07-.03.13-.07.19-.1.04-.03.08-.05.11-.07.12-.05.28-.05.43-.03.37.04.65.1.9.19.05.02.11.04.16.06.07.03.15.05.22.08.05.02.1.05.15.07.07.04.14.07.22.1.01.08.03.15.04.23.03.16.06.32.09.49.03.16.06.32.09.48.05.26.1.53.14.8.06.45.15.88.25,1.32.03.13.06.27.08.41.02.11.04.21.06.32.01.06.03.11.04.17-.05.01-.11.02-.16.03-.05,0-.1.02-.14.03-.2.06-.36.11-.52.16-.13.04-.26.08-.39.12-.24.07-.5.15-.74.25-.58.23-1.31.58-1.84,1.2-.31.36-.46.7-.44.99.03.41.28.69.49.85.32.25.67.3,1.04.35.33.05.64.08.94.09.1,0,.21,0,.31,0,.75,0,1.53-.04,2.44-.17.43-.06.84-.12,1.23-.22.34-.1.69-.23,1.02-.35.1-.04.2-.08.3-.11.22-.08.44-.17.65-.26.13-.05.26-.11.39-.16.41-.16.69-.34,1-.65.06-.06.12-.11.19-.17.2-.18.44-.38.53-.63.13-.35.07-.69-.15-.98-.57-.74-1.43-.77-2.26-.81h-.15c-.71-.04-1.52.02-2.45.18-.02-.13-.05-.26-.07-.39-.02-.1-.04-.19-.05-.28-.03-.16-.06-.32-.09-.47-.06-.29-.12-.6-.15-.9-.06-.49-.16-.98-.25-1.46v-.06c.06.02.13.05.21.08.17.06.34.12.51.15.02.26.11.48.28.66.37.38.86.6,1.38.61.22,0,.75-.02,1.11-.29.26.16.58.26.87.28,0,0,0,0,0,0,.39.02.71-.11.92-.38.17-.22.29-.48.4-.73.03-.07.06-.14.1-.21.15-.32.22-.66.29-.98.01-.07.03-.13.04-.2.07-.32.24-.62.4-.91.03-.05.06-.11.09-.16.02-.04.05-.08.07-.13.14-.26.28-.5.29-.84.01-.37-.11-.7-.35-.9Zm-1.7,4.67c-.1.14-.26.19-.43.21-.09.01-.18.01-.27,0,.03-.08.05-.17.08-.25.3-.07.47-.18.63-.5.08-.16.14-.33.18-.5.02-.06.05-.37.1-.41.06-.05.03-.15-.04-.17-.28-.1-.5.54-.61.76-.03,0-.07.01-.11.02.03-.64.03-1.28.49-1.79.21-.24.37-.52.51-.81.03-.07.15-.42.23-.44,0,0,.17.1.17.11.03.04.05.13.08.18.02.03.05.03.07,0,.18-.23.03-.61-.23-.73.03-.05.06-.11.09-.16.04,0,.08,0,.12.02.14.04.29.16.36.28.14.24.11.59,0,.84-.21.49-.46.97-.6,1.49-.15.54-.35,1.02-.62,1.52-.06.11-.12.23-.2.33Zm-1.5-.68c.03.21.05.51-.07.7-.11.19-.37.29-.58.31-.42.05-.94-.1-1.26-.38-.18-.15-.27-.27-.29-.51-.02-.25.07-.43.14-.67.11-.37.02-.7-.13-1.04-.12-.28-.15-.48.04-.74.14-.2.3-.39.46-.58.14-.16.3-.2.49-.21.25,0,.49.06.74.1.21.04.34.08.48.25.14.17.21.37.28.58.06.21.1.39.03.6-.06.18-.19.34-.28.5-.2.36-.11.69-.05,1.07Zm-2.87-2.82c-.42-.01-.83-.03-1.24-.14-.05-.22-.1-.45-.15-.67-.02-.08-.04-.16-.05-.23.18.04.36.08.55.11.34.07.67.16,1.01.25.14.04.46.07.69.17-.07.07-.13.14-.17.24-.12.27-.35.28-.62.28Zm-.28,6.64c0,.08.03.16.05.23,0,.03,0,.06.01.09,0,.05.04.08.09.09.01.01.02.03.04.04.12.11.31.1.3.31,0,.28-.28.38-.51.41-.22.03-.58-.02-.63-.28-.04-.19.16-.35.17-.54,0-.07,0-.13-.03-.19-.03-.33-.11-.67-.17-1-.08-.46-.19-.91-.24-1.38-.11-.87-.32-1.73-.45-2.6-.13-.86-.34-1.69-.53-2.54-.2-.9-.49-1.81-.64-2.72,0,0,0-.02,0-.03,0-.02,0-.03-.02-.04-.02-.1-.08-.19-.15-.28-.08-.13-.18-.24-.28-.35-.27-.32-.53-.61-.86-.87-.19-.15-.38-.29-.58-.43.1-.03.2-.06.3-.11.22.21.43.42.66.61.19.16.4.31.61.46.15.16.32.27.54.22.18-.04.27-.17.36-.31.14-.2.29-.39.4-.61.11-.23.2-.46.33-.68.14-.23.29-.45.42-.68.11-.2.21-.41.3-.62.05-.11.16-.28.19-.42.01-.02.51-1.42,1-2.02.24-.3.57-.67.53-1.08,0-.07-.03-.13-.06-.18-.01-.06-.04-.12-.1-.18-.15-.15-.39-.19-.59-.25-.24-.07-.48-.09-.73-.08-.08,0-.16,0-.24,0-.17,0-.35.01-.52.02-.38.03-.79.11-1.14.25-.36.15-.75.27-1.11.43.11-.2.2-.4.26-.59.06-.21.21-1.57-.39-1.21-.38.23-.65.56-1.09.69-.4.13-.85.06-1.22.28-.26.16-.45.39-.42.68-.21,0-.41.09-.56.24-.19-.07-.35-.2-.54-.28-.26-.1-.56-.15-.83-.23-.36-.1-.77-.14-1.15-.11.02-.06.03-.13.04-.17.06-.28.05-.57.07-.86,0,0,.01,0,.02,0,.05-.03.24,0,.32,0,.18,0,.36-.01.54-.05.44-.08.88-.13,1.33-.19.42-.06.84-.11,1.25-.25.25-.09.63-.1.84-.26.05-.03,0-.11-.05-.1-.33.09-.7.1-1.04.16-.41.07-.84.1-1.26.14-.42.04-.84.11-1.25.16-.2.02-.45-.02-.66,0,.02-.11.03-.23.03-.34.05,0,.1,0,.14-.01,1.04-.09,2.09-.21,3.12-.39,2.02-.35,4.04-.78,6-1.39.55-.17,1.11-.28,1.65-.47.22-.08.44-.17.66-.25.2-.07.37-.22.57-.28.02,0,.03-.01.04-.02.02,0,.04-.01.05-.03.02-.04.05-.06.06-.1.01-.05,0-.08-.04-.11-.11-.1-.29-.1-.43-.1-.12,0-.24,0-.36,0-.1,0-.18.04-.28.06-.02,0-.02.04,0,.04.17.02.34.01.51.04.1.01.24.02.36.06-.12.03-.23.08-.35.12-.2.06-.42.08-.62.15-.48.17-.98.28-1.47.41-1.01.26-2,.59-3.01.84-.49.12-.99.22-1.49.3-.48.08-.94.2-1.42.29-1.05.2-2.11.32-3.17.45-.19.02-.39.04-.58.07-.03-.08-.07-.16-.12-.24-.18-.24-.44-.39-.71-.18-.19.14-.3.36-.42.57-.23.02-.46.02-.69.03-.03,0-.07,0-.1,0,.13-.07.25-.15.38-.22.34-.17.69-.35,1.04-.51.38-.17.76-.31,1.13-.49.2-.1.4-.19.61-.26.2-.07.4-.19.6-.24.03,0,.03-.05,0-.06-.19-.01-.39.07-.57.11-.21.05-.42.09-.63.16-.41.14-.82.29-1.22.44-.38.15-.76.34-1.13.52-.16.08-.31.18-.47.26-.13.06-.3.1-.4.21,0,0,0,0,0,0-.03.02-.04.05-.05.08-.02.02-.02.05-.02.07,0,0,0,.01,0,.02-.01,0-.03.01-.04.02,0,0,0,0,0,0,.15.15.24.19.46.23.22.04.45.07.67.09-.26.17-.56.27-.79.48-.05.05-.09.1-.12.16-.11-.16-.22-.32-.33-.48-.09-.13-.17-.25-.23-.39-.1-.26.03-.36.22-.53.02-.02.03-.03.04-.05.22-.19.45-.38.71-.51.44-.22.9-.42,1.35-.62,1.02-.44,2.07-.82,3.15-1.09,1.09-.28,2.21-.45,3.33-.58.55-.06,1.11-.11,1.66-.17.55-.05,1.09-.13,1.64-.13.64,0,1.27.11,1.91.17.56.05,1.13.09,1.69.12.03,0,.05.01.08.02.13.04.24.08.3.18,0,.48-.24,1-.41,1.44-.18.48-.4.93-.62,1.39-.43.89-.86,1.78-1.28,2.68-.24.51-.42,1.04-.74,1.51-.29.43-.48.9-.74,1.34-.25.43-.48.86-.7,1.3-.22.44-.5.85-.72,1.3-.12.24-.24.49-.36.73-.1.21-.25.42-.28.66-.03.17-.01.29.04.42.02.37.16.78.23,1.12.09.46.21.91.3,1.37.17.85.37,1.69.5,2.55.07.44.15.87.23,1.31.07.42.16.85.23,1.27.06.45.15.87.25,1.31.05.24.09.48.14.73.02.1.05.21.08.31Zm3.26.04c.37.02.77.03,1.11.18.33.15.71.48.61.88-.08.3-.48.54-.69.77-.26.27-.51.43-.86.58-.33.14-.66.3-1.01.39-.33.09-.65.21-.98.32-.38.13-.76.16-1.15.24-.68.15-1.43.2-2.13.2-.37,0-.73-.02-1.1-.05-.1-.03-.2-.07-.3-.1.49.02.99-.04,1.47-.05.76-.03,1.48-.15,2.22-.33.39-.1.77-.22,1.17-.32.33-.08.66-.14.98-.27.4-.16.81-.35,1.17-.58.35-.23.69-.43.91-.79.02-.03-.02-.07-.05-.04-.36.31-.78.54-1.21.74-.38.18-.76.36-1.15.5-.01,0-.03,0-.04,0-.07.03-.14.03-.22.03.1-.04.2-.09.3-.14.21-.11.43-.22.64-.34.2-.11.42-.19.61-.32.05-.04.01-.12-.05-.09-.41.2-.86.35-1.29.5-.5.17-1.02.29-1.53.39-.48.1-.96.17-1.45.19-.12,0-.25-.02-.37-.02-.19,0-.39,0-.58-.04-.22-.04-.22-.18-.34-.33-.21-.25-.57-.21-.86-.19-.19.01-.38.03-.57,0-.13-.02-.14-.02-.06-.15.04-.07.11-.13.17-.18.29-.24.6-.43.92-.61.19-.1.39-.19.58-.3.21-.06.42-.12.63-.19.12-.04.27-.07.41-.14,0,0,0,0,0,0-.09.19-.21.32-.16.54.1.46.6.6,1.01.54.41-.06.75-.28.78-.73.01-.19-.08-.32-.22-.43-.05-.04-.09-.08-.13-.11.58-.1,1.18-.17,1.77-.18.36,0,.71,0,1.06.03Zm-8.13-5.58c.08.2.24.29.45.28.15-.01.3-.08.44-.11.2-.05.38-.04.58.01.27.07.54.16.81.24.14.04.29.09.42.16.02.01.04.02.06.03-.19-.07-.38-.12-.58-.16-.39-.06-.93-.19-1.31-.03-.08.03-.15.1-.23.12-.16.05-.33-.01-.48-.06-.2-.06-.41-.09-.59-.2-.19-.1-.37-.18-.44-.41,0-.03-.02-.11-.02-.2.03-.06.07-.12.11-.16.19-.16.44.06.64.03.6-.06.51-.9.25-1.23-.07-.09-.15-.17-.23-.26.26-.06.55.04.76.18.21.15.31.42.54.55.23.14.57.15.83.22.31.08.6.17.89.28.06.3.12.6.17.9-.1-.07-.23-.1-.35-.14-.33-.13-.69-.17-1.03-.26-.36-.09-.68-.1-1.03.02-.09.03-.17.06-.26.08-.1.02-.2-.02-.29-.01-.03,0-.09,0-.11.02,0,0,0,0-.01.01-.02.02-.01.05,0,.07Zm-1.61-.51c-.06-.12-.11-.28-.15-.41-.09-.34-.05-.67-.07-1.01,0-.09-.02-.18-.03-.27,0-.12-.02-.24-.06-.36-.07-.2-.16-.41-.27-.6-.24-.42-.47-.86-.79-1.23-.19-.21-.52-.72-.1-.85.17-.05.24.03.41.05.1.01.22.01.31-.03.06-.03.1-.07.14-.12.02-.02.04-.04.05-.06.07-.11.09-.24.14-.35.09-.21.33-.21.5-.09.04.05.08.12.11.19.1.23.25.43.22.69-.03.33-.12.6-.08.93.02.25.08.46.17.69.12.3.17.63.3.92.09.21.2.45.34.63.19.23.42.39.45.7.03.3-.21.33-.44.28-.09-.02-.19-.03-.28-.02-.22.03-.3.18-.43.35-.15.19-.33.22-.45-.02Zm-1.68-3.19c0-.18,0-.36-.02-.54.11.13.23.26.32.39.11.14.17.3.26.45.09.15.19.29.27.43-.18-.06-.37.01-.53.12,0,0,0,.01,0,.02.13.08.27.1.4.15.1.04.15.11.19.19-.27,0-.61.15-.81,0-.17-.13-.13-.36-.12-.55.01-.22.02-.43.03-.65Zm-.18-1.84c-.15-.11-.2-.32-.2-.5-.01-.45.25-.74.71-.74.15,0,.29.02.44-.03.17-.05.32-.15.46-.24.32-.2.61-.45.88-.72.27-.27.47-.61.73-.89.16-.18.3-.36.57-.35.19,0,.48.13.57.3.08.15,0,.33.07.49.05.14.18.21.3.3.46.38-.21.87-.54,1-.39.15-.83.06-1.18.3-.17.11-.3.21-.41.37-.05.06-.09.12-.14.18-.02-.02-.04-.04-.06-.06-.03-.02-.06-.04-.08-.06.24-.23.44-.51.73-.7.15-.1.28-.16.46-.18.16-.02.34-.03.48-.11.24-.14.3-.38.21-.62,0-.02-.04-.03-.05,0-.1.21-.2.27-.45.3-.15.02-.31,0-.45.04-.3.06-.66.28-.87.5-.14.15-.28.31-.43.44-.16.14-.31.16-.5.24-.24.1-.4.37-.47.62-.07-.01-.14-.02-.22-.02-.18,0-.37.05-.53.15Zm-2.52-1.02c-.05-.1-.13-.33-.09-.45,0-.03.02-.05.03-.07.01,0,.02-.02.04-.03.09-.05.24.02.35,0,.1-.02.18-.09.25-.18.16-.22.29-.9.69-.7.1.05.19.21.27.3.04.05.08.09.12.14-.13.15-.23.35-.24.53-.02.44.26.72.43,1.11.03.07.06.14.09.2-.3-.27-.65-.51-1.01-.69-.03-.01-.06.02-.04.04.26.34.48.67.78.98.17.17.26.28.29.53,0,.02,0,.04,0,.07-.43-.52-1.02-.95-1.56-1.36-.15-.11-.31-.25-.4-.43Zm-.32-2.05s-.05-.09-.1-.06c-.19.12-.27.44-.21.65.04.15.14.23.24.33.06.06.12.14.17.21-.07.03-.12.07-.16.11-.02,0-.04,0-.06-.02-.12-.05-.22-.17-.31-.27-.15-.16-.19-.22-.18-.45,0-.48.27-.88.36-1.34.09-.45.04-.91,0-1.36-.02-.24-.09-.52,0-.75.04-.13.14-.25.29-.24.1,0,.23.1.33.13.15.04.3.06.45.01.2-.07.36-.3.59-.26.25.04.21.52.13.7-.09.19-.26.32-.35.51-.33.68-.36,1.65-.08,2.37-.1.05-.19.13-.26.21-.12.15-.15.36-.27.52-.02.02-.03.04-.03.05-.04-.18-.2-.36-.34-.46-.09-.07-.19-.11-.23-.22-.05-.13,0-.24,0-.37Zm-1.8-3.62c.06.07.12.14.19.2,0,0,0,0,0,0-.21.04-.34-.07-.54-.25-.21-.2-.32-.37-.39-.66-.06-.23-.11-.42-.25-.62-.14-.2-.29-.38-.41-.6-.05-.1-.1-.19-.15-.29,0-.03,0-.05,0-.07.03,0,.07.01.1.02.27.07.51.2.75.31.21.1.45.12.66.22.15.07.4.14.52.28,0,0,0,.01,0,.02.02.04.04.07.06.11,0,0,0,.01,0,.02,0,.04.03.07.06.09.09.14.19.27.29.4.07.08.15.18.23.26-.06.04-.11.09-.15.14-.08.1-.09.26-.15.38-.01-.01-.03-.02-.05-.03-.08-.04-.18-.04-.26-.07-.1-.04-.19-.12-.28-.17-.08-.05-.18-.08-.26-.13-.07-.05-.13-.12-.19-.18-.03-.03-.09-.02-.1.02-.06.18.19.47.29.6Zm.35.62c.05-.17.18-.12.31-.13.14,0,.26-.03.37-.11.16-.13.17-.33.24-.5,0,0,0,0,0,0,.04.12.09.21.17.27-.24.19-.31.57-.3.85,0,.13.02.27.04.4,0,0,0,0,0,0,0,0-.02,0-.02,0-.04-.02-.09-.02-.13-.04-.05-.01-.11-.03-.16-.04-.12-.12-.24-.23-.36-.34-.1-.09-.19-.21-.15-.36Zm10.12,3.21c-.08.02-.16,0-.24.02-.09.02-.18.03-.27.04-.18.03-.36.04-.54.08-.02,0-.04.01-.05.02-.07-.07-.13-.15-.15-.29-.01-.1-.02-.19-.04-.27.07-.18.15-.28.39-.35.23-.07.44-.11.67-.07.23.04.49.15.72.21.23.07.47.13.71.17.06,0,.27,0,.31.05.14.16-.26.27-.33.29-.2.07-.4.15-.59.23-.25.11-.45.3-.68.43-.15.09-.52.24-.66.08-.02-.02-.04-.04-.06-.05,0-.02-.01-.04-.02-.07.15-.01.31-.06.42-.12.18-.09.3-.21.46-.34.03-.03,0-.09-.04-.08Zm-.93-3.95c-.23.42-.53,1.07-1.05,1.18-.01-.03-.03-.05-.04-.08.05-.04.09-.08.12-.13.08-.11.17-.27.17-.41,0-.05-.06-.07-.09-.03-.07.09-.17.15-.26.2-.04.02-.09.03-.13.05-.04.02-.08.04-.12.06-.04,0-.07.03-.09.05-.11,0-.23,0-.35-.03-.18-.05-.3-.22-.45-.32-.01-.04-.02-.08-.02-.13.04-.33.49-.4.74-.43.54-.08.94-.33,1.37-.65.1-.07.2-.16.3-.22.11-.07.08-.06.08.07,0,.29-.04.58-.18.83Zm-1.97,1.24c.2.06.57-.06.57.23.01.48-.66.63-.94.89-.28.26-.39.76-.54,1.1-.1.23-.18.47-.25.71-.03.1-.04.31-.09.45-.07.07-.15.13-.23.19-.03-.07-.07-.13-.12-.18.08-.21.17-.41.23-.62.06-.2.04-.42.09-.62.01-.07-.06-.14-.12-.08-.13.14-.18.38-.29.55-.12.19-.26.36-.33.57-.08-.01-.16-.01-.24,0-.26.03-.4.28-.67.22-.14-.03-.24-.08-.37-.08-.07-.12-.1-.28-.07-.4.03-.16.14-.34.23-.49.1-.19.24-.25.41-.37.19-.13.36-.29.53-.44.36-.31.62-.65.83-1.07.17-.34.33-1.28.9-.86.16.12.27.27.48.32Zm-1.8,3.81s-.05.03-.07.05c-.4.24-.89.03-1.28.33-.16.12-.27.31-.33.51-.01-.03-.03-.06-.04-.09-.08-.16-.16-.31-.13-.49.03-.17.22-.43.4-.43.17,0,.31.11.5.1.16-.01.29-.08.42-.16.2-.12.48-.1.54.18Zm-.81-2.34c-.05.04-.1.09-.15.13,0,0-.01-.01-.02-.02-.32-.31-.67-.57-1.01-.84-.12-.09-.23-.2-.33-.32.06-.08.12-.15.17-.23.2.24.47.45.7.65.23.2.47.39.71.57-.02.02-.04.04-.07.05Zm-.98.92s0,0,0,0c-.11.19-.19.33-.2.54-.01-.02-.03-.03-.04-.04-.15-.28-.34-.64.05-.76.06-.02.12-.03.19-.04,0,.02,0,.05,0,.07,0,.07,0,.15,0,.22Zm-.5-.95s0,0,0,.01c-.09.08-.16.18-.21.24-.04.04-.08.09-.12.15,0-.16,0-.32.01-.49.02-.16.04-.33.08-.49.01.03.03.06.04.09.03.07.07.13.1.19.05.09.07.2.1.3Zm.01-3.78c-.03.25-.03.5-.05.75,0,.09-.02.17-.04.25-.02.06-.07.14-.02.15-.02,0-.04.02-.05.03-.03,0-.05,0-.08-.01.04-.25-.02-.51-.15-.72-.03-.04-.09-.04-.11,0-.02.06-.01.09-.02.15,0,.08-.03.15-.05.23-.03.11-.05.22-.07.33-.02.02-.03.05-.04.08,0,0-.02,0-.03.01-.08.05-.17.14-.26.17-.13.04-.3-.02-.42-.07-.09-.03-.17-.07-.26-.09-.16-.14-.23-.32-.2-.56.03-.33.33-.44.58-.59.38-.23.6-.5.84-.87.04-.07.1-.19.16-.24.19-.14.29.04.33.2.07.25-.03.53-.07.78Zm5.13,7.47s0,0,.01,0c0,0,0,0,0,0,.02,0,.05,0,.07,0,.24.17.48.36.67.57.14.16.27.33.41.49.03.04.06.07.09.11-.15-.03-.29-.05-.44-.09-.12-.04-.23-.1-.33-.18-.13-.3-.38-.45-.7-.5-.04,0-.07,0-.11-.01,0,0,0,0,0,0,.04-.06.08-.13.13-.19.04-.05.09-.09.14-.13.02-.01.03-.03.05-.04.01,0,.02-.01.02-.01,0,0,0,0,0,0Zm.76,2.58c-.17-.05-.35-.15-.52-.26-.06-.1-.12-.2-.21-.29-.11-.11-.24-.22-.37-.31-.34-.25-.85-.17-1.13.12-.01-.18,0-.35.02-.52,0-.01.02-.03.02-.06,0,0,0,0,0-.01.06-.09.22-.18.29-.24.14-.11.3-.17.48-.19.34-.03.65.03.79.35.13.28.26.4.55.51.31.11.64.18.97.24.05.29.14.59.2.86,0,.03.01.06.02.09-.38-.08-.74-.17-1.11-.28Zm1.26.99c.04.19.09.38.12.57.03.15.06.31.09.46-.32-.15-.69-.16-1.03-.24-.21-.05-.4-.15-.59-.25-.05-.02-.09-.05-.14-.08-.21-.19-.46-.31-.75-.36-.17-.03-.42,0-.56.13-.04-.07-.07-.15-.1-.23-.17-.36-.25-.76-.4-1.13-.02-.05-.04-.1-.05-.15.12-.25.5-.38.75-.26.29.14.47.42.65.67.18.24.5.36.76.48.3.14.62.22.93.31.11.03.22.06.32.08Zm5.87-2.77c-.06.15-.13.27-.23.38-.04.05-.13.18-.19.2-.04.01-.07.04-.09.07-.07-.07-.15-.13-.23-.19.14-.12.22-.31.31-.46.14-.27.16-.64.09-.93-.02-.07-.12-.08-.14,0-.08.23-.13.45-.26.66-.07.12-.19.38-.33.43-.05.02-.08.05-.1.08-.28-.11-.58-.15-.88-.18-.12-.08-.25-.16-.31-.29-.1-.22.01-.56.17-.72.12-.13.3-.19.42-.32.15-.17.21-.4.25-.62.08-.47.03-.98,0-1.45-.01-.16-.05-.52.11-.64.19-.14.43.1.62.12.21.02.42-.11.64-.12.31-.02.41.24.4.51-.01.24-.17.46-.26.68-.07.2-.12.4-.14.61-.04.48.19.9.26,1.36.04.25-.02.58-.11.82Zm-2.01,1.44c-.42-.02-.83-.19-1.22-.33-.38-.13-.78-.26-1.17-.35-.16-.03-.34-.05-.5-.1-.13-.04-.19-.11-.32-.11,0-.08.02-.17.05-.26.07-.2.21-.4.31-.6,0,0,0,0,0-.01.15.21.34.42.58.51.37.15.81.26,1.21.27.45,0,.91-.02,1.36.05.23.03.51.13.7.26.07.05.24.17.3.26-.13.08-.25.18-.36.3-.01.01-.02.02-.03.04-.3.04-.6.09-.91.07Zm.06,1.03c-.08.12-.15.26-.2.4-.48-.02-.96-.18-1.41-.32-.25-.08-.49-.16-.75-.2-.17-.03-.34-.05-.5-.09-.03,0-.06-.02-.09-.03-.08-.31-.16-.61-.23-.92,0,0,0-.01,0-.02.04,0,.08.02.13.03.36.1.74.19,1.1.31.35.12.69.27,1.03.41.32.13.63.25.93.43Zm.38-8.07c-.01.11-.05.21-.09.32-.04.1-.08.21-.1.33-.03.18,0,.36.06.52-.06.04-.11.09-.16.14-.25.31-.21.8-.17,1.19,0,.07.01.14.02.2,0,.04,0,.08,0,.12.02.22.03.43,0,.65-.01.12-.03.29-.1.42-.04.09-.1.12-.19.18-.02.01-.05.03-.08.05-.42.27-.65.79-.56,1.27,0,.05.03.1.05.16-.04,0-.08,0-.12,0-.25,0-.46-.06-.71-.13h-.04s-.08-.03-.13-.04c-.15-.04-.3-.07-.4-.16-.03-.02-.05-.04-.07-.07-.07-.06-.14-.12-.22-.18.05-.09.1-.2.16-.3.18-.32.36-.65.54-.97.3-.53.6-1.07.9-1.62l.1-.18c.21-.4.41-.77.66-1.15.2-.31.34-.64.48-.97.06-.13.11-.26.17-.4.02.24.02.44,0,.62Zm2.03-.84c-.13.37-.27.73-.34,1.13-.03.16-.04.31-.03.47.01.13.06.33.03.48-.04-.02-.09-.03-.13-.03-.08,0-.15,0-.22.01.05-.1.08-.21.08-.29.01-.24-.02-.5-.08-.74,0-.02-.03-.02-.03,0-.08.22-.16.79-.41.87-.09.03-.22-.03-.32,0-.03,0-.06.03-.08.05-.02,0-.09.01-.1.02-.02,0-.04.02-.06.03-.03-.1-.04-.21-.04-.26,0-.17.09-.32.14-.48.1-.32.12-.67.09-1-.02-.35-.06-.73,0-1.09.03-.18.16-.46.39-.41.15.03.29.17.44.21.13.03.25.03.38,0,.12-.02.36-.09.47,0,.25.19-.1.83-.18,1.04Zm.05-1.46s0,0,0,0c-.04,0-.07,0-.11,0,.1-.24.1-.49,0-.75-.02-.06-.09-.07-.12,0-.07.15-.08.31-.16.46-.05.11-.15.21-.19.33-.12-.02-.22-.06-.37-.14-.12-.06-.24-.08-.36-.06.15-.31.3-.63.45-.94.24-.51.47-1.01.64-1.55,0,0,0,0,0,0,.11-.05.23-.04.31.05.06.08.03.31.03.41,0,.24-.04.48-.03.71.02.49.27,1.06-.09,1.48Zm-4.59,13.94c-.01-.07-.02-.15-.03-.22-.06-.38-.13-.75-.21-1.12.39.15.87.12,1.25.27.01.17.08.35.14.5.01.02.02.05.03.07-.02.24-.12.51-.25.62-.12-.02-.24-.06-.37-.07-.18-.02-.38-.05-.56-.06Zm4.01-2.68c-.09-.05-.18-.08-.3-.09-.33-.05-.58.09-.9.13-.13.02-.28,0-.41.02-.07-.07-.1-.17-.08-.31.03-.17.1-.33.21-.46.2-.26.37-.54.57-.8.22-.29.54-.63.93-.52.3.09.55.28.84.4.17.07.35.11.5.23.13.1.24.24.33.37.13.19.19.35.09.56-.06.14-.15.25-.25.37-.11.14-.21.29-.34.41-.09.09-.15.16-.21.27-.04.07-.07.15-.12.24,0,0,0-.01,0-.02-.01-.14-.11-.28-.09-.42.02-.18.2-.31.31-.43.08-.09.16-.2.22-.3.17-.25.19-.53-.05-.75-.2-.17-.44-.17-.68-.14-.03,0-.02.04,0,.05.24.09.42.36.26.58-.14.19-.33.33-.47.52-.11.04-.23.06-.35.08Z"/>
          <path class="cls-17" d="m23.09,20.22c0,.21-.05.34-.21.47-.09.08-.16.15-.23.26-.14.24-.2.54-.21.82,0,.22.1.44-.02.63-.1.16-.18.15-.36.12-.15-.03-.25-.05-.38-.15-.1-.07-.22.05-.17.15.09.16.18.23.34.31.16.08.3.2.48.21.37.02.61-.32.67-.65.03-.19-.03-.4-.03-.59,0-.24.05-.49.16-.7.18-.33.19-.57-.03-.88,0,0-.02,0-.02,0Z"/>
          <path class="cls-17" d="m14.18,19.35c-.08-.08-.05-.31-.05-.41,0-.18-.03-.35-.07-.52-.08-.36-.26-.63-.45-.94-.02-.03-.08-.02-.07.02.14.41.16.82.16,1.25,0,.29,0,.68.25.88.16.13.39-.13.24-.28Z"/>
          <path class="cls-17" d="m12.99,16.08s-.06-.06-.08-.09c-.05-.07-.1-.14-.13-.22-.04-.1-.18-.12-.26-.06-.09.06-.09.18-.03.26.06.08.12.15.21.2.04.02.08.04.13.06.04.02.07.04.1.08.06.06.16,0,.12-.09-.02-.04-.03-.09-.06-.13Z"/>
          <path class="cls-17" d="m14.08,10.21s.01.08.05.06c.03-.02.06-.02.09-.03.06-.03.11-.06.18-.07.1-.02.2-.05.3-.07.25-.07.11-.45-.12-.33-.06.03-.12.05-.17.1-.04.04-.09.07-.13.11-.04.04-.09.09-.12.14-.02.04-.05.07-.07.1Z"/>
          <path class="cls-17" d="m9.22,10.03c.08-.22.07-.45.09-.68.02-.22-.34-.24-.34-.02,0,.12,0,.23.04.34.04.12.07.22.1.35.01.06.09.06.11,0Z"/>
          <path class="cls-17" d="m23.19,12.14c0,.09.02.17.02.26,0,.08,0,.17-.02.24-.01.04.05.07.07.04.05-.08.12-.13.16-.23.03-.09.04-.2.06-.3.03-.19-.3-.2-.29-.01Z"/>
          <path class="cls-17" d="m23.87,8.2c-.1,0-.15.08-.14.17,0,.1.05.22,0,.3-.02.04.02.07.05.06.15-.05.2-.22.23-.35.02-.09-.03-.18-.13-.18Z"/>
          <path class="cls-17" d="m22.43,19.72c.05.06.1.11.16.16.07.06.18.08.25.01.07-.07.08-.18.01-.25-.06-.07-.18-.12-.27-.15-.09-.03-.22-.04-.3.01-.03.02-.05.06-.02.09.05.05.12.07.16.13Z"/>
          <path class="cls-17" d="m21.73,5.31s.07.06.11.08c.04.03.07.05.1.09-.02-.02,0,.09,0,.13,0,.08-.01.16-.02.24-.07.22-.07.45-.13.67-.02.08.08.16.14.09.26-.3.49-.61.63-.99.07-.19.1-.38.21-.55.1-.17.25-.3.36-.46.11-.09.21-.19.33-.31.08-.08,0-.21-.1-.19-.26.05-.49.2-.73.3-.26.12-.5.25-.75.38-.27.14-.57.21-.85.32-.3.11-.62.3-.93.36-.03,0-.02.05,0,.05.29.03.62-.03.91-.08.24-.04.48-.09.71-.16,0,0,0,0,0,0Z"/>
          <path class="cls-17" d="m20.25,3.24c-.62.08-1.25.1-1.87.17-.61.07-1.21.27-1.79.45-.04.01-.04.07,0,.07.63-.02,1.26-.15,1.88-.21.6-.06,1.28-.03,1.85-.27.12-.05.04-.22-.08-.21Z"/>
          <path class="cls-17" d="m19.85,26.99c.1.11.25.1.39.07.14-.03.16-.25.01-.29-.04-.01-.09-.02-.13-.02,0,0,0,0,0,0,0-.03,0-.05-.01-.07,0-.02-.02-.04-.03-.06,0,0,0,0,0,0,0,0,0,0,0,0,0,0-.02-.02-.03-.03-.05-.03-.14-.03-.19.01-.09.1-.1.29,0,.39Z"/>
        </g>
        <g>
          <path class="cls-1" d="m11,8.24c-.02.06.03.16.05.23.03.13.05.27.04.4,0,.27-.09.53-.27.74,0,0,.17.2.43.42s.98.8.98.8c0,0,.75-.27,1.01-1.13l.26-.86s-.37-.2-.41-.22c-.19-.08-.32-.21-.52-.27-.4-.11-.88-.11-1.29-.17-.07,0-.14-.02-.2,0-.05,0-.07.02-.08.05Z"/>
          <path class="cls-2" d="m16.93,8.77s-.08.09-.12.14c-.2.3-.46.65-.79.82-.41.21-.7.53-.92.77s-.75.63-.92,1.57c0,0,.53-.85,1.06-.82s.68.1.78.16.44-.43.91-.41,1.48.34,1.8.39.73.15.69.31-.09.37-.31.49-.66.31-.92.54-1.05.36-1.26.34c0,0-.06.34-.25.46s-.61.34-.61.34l.61.57.54.41s.16.14.21.17c.55.43.93-.29,1.17-.73.53-.99,1.06-1.98,1.59-2.97.27-.5.54-1,.8-1.5.15-.28.53-.77.42-1.11-.09-.27,0-.44-.67-.59s-.94-.23-1.69-.06c-.34.07-.69.05-1.03.14-.19.05-.38.13-.55.22-.13.07-.26.14-.38.21-.06.04-.11.07-.16.11Z"/>
        </g>
      </g>
      <g>
        <ellipse class="cls-13" cx="4.82" cy="5.38" rx="4.39" ry="4.16" transform="translate(-1.08 9.54) rotate(-83.4)"/>
        <g>
          <path class="cls-12" d="m4.78,5.52c-1.54,0-2.79-.05-2.79-.11,0-.06,1.25-.1,2.8-.1,1.54,0,2.79.05,2.79.11,0,.06-1.25.1-2.8.1Z"/>
          <path class="cls-6" d="m4.68,5.41c.02-1.62.08-2.94.14-2.94.06,0,.08,1.32.06,2.94-.02,1.62-.08,2.94-.14,2.94-.06,0-.08-1.32-.06-2.94Z"/>
          <path class="cls-7" d="m4.85,5.49c-1.11,1.15-2.03,2.04-2.07,2-.04-.04.83-1.01,1.93-2.15,1.11-1.15,2.03-2.04,2.07-2,.04.04-.83,1.01-1.93,2.15Z"/>
          <path class="cls-4" d="m4.71,5.49c-1.08-1.15-1.92-2.12-1.88-2.16.04-.04.94.86,2.02,2.01,1.08,1.15,1.92,2.12,1.88,2.16-.04.04-.94-.86-2.02-2.01Z"/>
        </g>
        <g>
          <path class="cls-5" d="m4.76,5.46c-.77-.37-1.38-.69-1.37-.72.01-.03.65.24,1.42.61.77.37,1.38.69,1.37.72-.01.03-.65-.24-1.42-.61Z"/>
          <path class="cls-11" d="m4.73,5.39c.36-.81.67-1.46.7-1.44.03.01-.24.68-.6,1.49-.36.81-.67,1.46-.7,1.44-.03-.01.24-.68.6-1.49Z"/>
          <path class="cls-10" d="m4.8,5.47c-.8.31-1.45.54-1.46.51-.01-.03.63-.31,1.43-.62.8-.31,1.45-.54,1.46-.51.01.03-.63.31-1.43.62Z"/>
          <path class="cls-9" d="m4.73,5.43c-.29-.83-.5-1.52-.47-1.53s.29.65.58,1.49c.29.83.5,1.52.47,1.53-.03.01-.29-.65-.58-1.49Z"/>
        </g>
        <g>
          <path class="cls-8" d="m4.78,5.46c-.65,0-1.18-.02-1.18-.05,0-.02.53-.04,1.18-.04.65,0,1.18.02,1.18.05,0,.02-.53.04-1.18.04Z"/>
          <path class="cls-3" d="m4.74,5.41c0-.69.04-1.24.06-1.24.02,0,.04.56.03,1.24,0,.69-.04,1.24-.06,1.24-.02,0-.04-.56-.03-1.24Z"/>
          <path class="cls-14" d="m4.81,5.44c-.47.48-.86.86-.88.85-.02-.02.35-.42.82-.91.47-.48.86-.86.88-.85.02.02-.35.42-.82.91Z"/>
          <path class="cls-15" d="m4.75,5.44c-.45-.49-.81-.89-.79-.91.02-.02.4.36.85.85.45.49.81.89.79.91s-.4-.36-.85-.85Z"/>
        </g>
      </g>
    </g>
  </g>
</svg>