<?xml version="1.0" encoding="UTF-8"?>
<svg id="_圖層_1" data-name="圖層 1" xmlns="http://www.w3.org/2000/svg" viewBox="0 0 45 45">
  <defs>
    <style>
      .cls-1 {
        fill: #381b1d;
        stroke-width: 0px;
      }
    </style>
  </defs>
  <path class="cls-1" d="m22.5,5.71c3.31,0,6,2.68,6,6v1.2h-11.99v-1.2c0-3.31,2.68-6,6-6Zm8.4,7.2v-1.2c0-4.64-3.76-8.4-8.4-8.4s-8.4,3.76-8.4,8.4v1.2H5.71v23.99c0,2.65,2.15,4.8,4.8,4.8h23.99c2.65,0,4.8-2.15,4.8-4.8V12.91h-8.4Zm-22.79,2.4h28.78v21.59c0,1.32-1.07,2.4-2.4,2.4H10.51c-1.32,0-2.4-1.07-2.4-2.4V15.3Z"/>
</svg>