<?xml version="1.0" encoding="UTF-8"?>
<svg id="_圖層_1" data-name="圖層 1" xmlns="http://www.w3.org/2000/svg" viewBox="0 0 45 45">
  <defs>
    <style>
      .cls-1 {
        fill: #fffdfa;
        stroke-width: 0px;
      }
    </style>
  </defs>
  <path class="cls-1" d="m41.71,21.17h0c-1.43-3.12-7.02-13.29-19.21-13.29S4.72,18.05,3.29,21.17c-.39.85-.39,1.82,0,2.67,1.43,3.12,7.02,13.29,19.21,13.29s17.78-10.17,19.21-13.29c.39-.85.39-1.82,0-2.66Zm-19.21,11.08c-5.38,0-9.75-4.37-9.75-9.75s4.37-9.75,9.75-9.75,9.75,4.37,9.75,9.75c0,5.38-4.37,9.74-9.75,9.75Z"/>
  <circle class="cls-1" cx="22.5" cy="22.5" r="6.5"/>
</svg>