<?xml version="1.0" encoding="UTF-8"?>
<svg id="_圖層_1" data-name="圖層 1" xmlns="http://www.w3.org/2000/svg" viewBox="0 0 45 45">
  <defs>
    <style>
      .cls-1 {
        fill: #381b1d;
        stroke-width: 0px;
      }
    </style>
  </defs>
  <path class="cls-1" d="m22.5,41.16c-4.63,0-9.26,0-13.89,0-1.59,0-2.53-.98-2.43-2.58.33-5.59,3.55-10.11,9.02-11.88,1.47-.48,3.09-.59,4.66-.64,2.31-.08,4.63-.03,6.94.1,3.82.22,6.9,1.93,9.29,4.91,1.79,2.24,2.55,4.86,2.74,7.67.08,1.09-.86,2.46-2.26,2.44-4.69-.06-9.37-.02-14.06-.02Z"/>
  <path class="cls-1" d="m31.79,13.16c0,5.12-4.13,9.31-9.26,9.29-5.19-.02-9.29-3.99-9.34-9.22-.05-5.48,4.53-9.43,9.3-9.41,5.1.02,9.3,4.22,9.3,9.35Z"/>
</svg>