<?xml version="1.0" encoding="UTF-8"?>
<svg id="_圖層_1" data-name="圖層 1" xmlns="http://www.w3.org/2000/svg" viewBox="0 0 45 45">
  <defs>
    <style>
      .cls-1 {
        fill: #f6f6f6;
        stroke-width: 0px;
      }
    </style>
  </defs>
  <path class="cls-1" d="m22.5,12.09c0-.64-.52-1.16-1.16-1.16s-1.16.52-1.16,1.16v12.72c0,.41.22.8.58,1l8.09,4.62c.55.32,1.26.12,1.58-.43.32-.55.12-1.26-.43-1.58l-7.51-4.29v-12.05Z"/>
  <path class="cls-1" d="m22.5,41c10.22,0,18.5-8.28,18.5-18.5S32.72,4,22.5,4,4,12.28,4,22.5s8.28,18.5,18.5,18.5Zm16.19-18.5c0,8.94-7.25,16.19-16.19,16.19S6.31,31.44,6.31,22.5,13.56,6.31,22.5,6.31s16.19,7.25,16.19,16.19Z"/>
</svg>