<?xml version="1.0" encoding="UTF-8"?>
<svg id="_圖層_1" data-name="圖層 1" xmlns="http://www.w3.org/2000/svg" viewBox="0 0 45 45">
  <defs>
    <style>
      .cls-1 {
        fill: #fffdfa;
        stroke-width: 0px;
      }
    </style>
  </defs>
  <path class="cls-1" d="m37.98,16.46l-12.33-12.03c-1.07-1.07-2.61-1.6-4.11-1.38l-11.19,1.53c-.89.12-1.51.94-1.39,1.83.12.89.94,1.51,1.83,1.39l11.19-1.53c.5-.07,1.01.1,1.38.47l12.33,12.03c1.7,1.7,1.86,4.35.52,6.25-.38-.76-.85-1.48-1.48-2.11l-12.15-12.04c-1.07-1.07-2.6-1.58-4.11-1.38l-11.19,1.53c-.74.1-1.31.69-1.39,1.43l-1.24,11.24c-.16,1.48.35,2.93,1.4,3.99l12.05,11.95c1.53,1.54,3.57,2.38,5.74,2.38h.03c2.18,0,4.22-.86,5.76-2.42l5.15-5.21c1.51-1.53,2.26-3.51,2.31-5.51l.94-.94c3.13-3.17,3.11-8.31-.05-11.47h0Zm-25.23,2.79c-.9,0-1.62-.73-1.62-1.62,0-2.13,3.24-2.12,3.25,0,0,.9-.73,1.62-1.62,1.62Z"/>
</svg>