<?xml version="1.0" encoding="UTF-8"?>
<svg id="_圖層_1" data-name="圖層 1" xmlns="http://www.w3.org/2000/svg" viewBox="0 0 45 45">
  <defs>
    <style>
      .cls-1 {
        fill: #fffdfa;
        stroke-width: 0px;
      }
    </style>
  </defs>
  <path class="cls-1" d="m38.6,36.57l-8.57-8.57c5.03-6.15,4.12-15.21-2.03-20.24-6.15-5.03-15.21-4.12-20.24,2.03-5.03,6.15-4.12,15.21,2.03,20.24,5.3,4.33,12.91,4.33,18.21,0l8.57,8.57c.57.55,1.48.54,2.03-.04.54-.56.54-1.44,0-2Zm-19.69-6.17c-6.35,0-11.49-5.14-11.49-11.49s5.14-11.49,11.49-11.49,11.49,5.14,11.49,11.49c0,6.34-5.15,11.48-11.49,11.49Z"/>
</svg>