<?xml version="1.0" encoding="UTF-8"?>
<svg id="_圖層_1" data-name="圖層 1" xmlns="http://www.w3.org/2000/svg" viewBox="0 0 45 45">
  <defs>
    <style>
      .cls-1 {
        fill: #fffdfa;
        stroke-width: 0px;
      }
    </style>
  </defs>
  <path class="cls-1" d="m33.8,4.74H11.2c-4.45,0-8.07,3.62-8.07,8.07v19.37c0,4.45,3.62,8.07,8.07,8.07h22.6c4.45,0,8.07-3.62,8.07-8.07V12.81c0-4.45-3.62-8.07-8.07-8.07Zm4.84,27.45c0,2.67-2.17,4.84-4.84,4.84H11.2c-2.67,0-4.84-2.17-4.84-4.84V12.81c0-2.67,2.17-4.84,4.84-4.84h22.6c2.67,0,4.84,2.17,4.84,4.84v19.37Zm-4.84-17.76c0,.89-.72,1.61-1.61,1.61h-11.3c-.89,0-1.61-.72-1.61-1.61s.72-1.61,1.61-1.61h11.3c.89,0,1.61.72,1.61,1.61Zm-17.76,0c0,1.34-1.08,2.42-2.42,2.42s-2.42-1.08-2.42-2.42,1.08-2.42,2.42-2.42,2.42,1.08,2.42,2.42Zm17.76,8.07c0,.89-.72,1.61-1.61,1.61h-11.3c-.89,0-1.61-.72-1.61-1.61s.72-1.61,1.61-1.61h11.3c.89,0,1.61.72,1.61,1.61Zm-17.76,0c0,1.34-1.08,2.42-2.42,2.42s-2.42-1.08-2.42-2.42,1.08-2.42,2.42-2.42,2.42,1.08,2.42,2.42Zm17.76,8.07c0,.89-.72,1.61-1.61,1.61h-11.3c-.89,0-1.61-.72-1.61-1.61s.72-1.61,1.61-1.61h11.3c.89,0,1.61.72,1.61,1.61Zm-17.76,0c0,1.34-1.08,2.42-2.42,2.42s-2.42-1.08-2.42-2.42,1.08-2.42,2.42-2.42,2.42,1.08,2.42,2.42Z"/>
</svg>