<?xml version="1.0" encoding="UTF-8"?>
<svg id="_圖層_1" data-name="圖層 1" xmlns="http://www.w3.org/2000/svg" viewBox="0 0 45 45">
  <defs>
    <style>
      .cls-1 {
        fill: #fffdfa;
        stroke-width: 0px;
      }
    </style>
  </defs>
  <path class="cls-1" d="m4,16.33v-1.54c0-4.25,3.46-7.71,7.71-7.71h1.54v-1.54c0-.85.69-1.54,1.54-1.54s1.54.69,1.54,1.54v1.54h12.33v-1.54c0-.85.69-1.54,1.54-1.54s1.54.69,1.54,1.54v1.54h1.54c4.25,0,7.71,3.46,7.71,7.71v1.54H4Zm37,3.08v13.87c0,4.25-3.46,7.71-7.71,7.71H11.71c-4.25,0-7.71-3.46-7.71-7.71v-13.87h37Zm-9.51,4.86c-.59-.61-1.57-.63-2.18-.04l-7.33,7.06c-.58.58-1.55.62-2.22-.04l-3.51-3.26c-.62-.58-1.6-.55-2.18.08-.58.62-.54,1.6.08,2.18l3.47,3.23c.87.87,2.03,1.36,3.27,1.36s2.4-.48,3.25-1.34l7.31-7.04c.61-.59.63-1.57.04-2.18h0Z"/>
</svg>