<?xml version="1.0" encoding="UTF-8"?>
<svg id="_圖層_1" data-name="圖層 1" xmlns="http://www.w3.org/2000/svg" viewBox="0 0 45 45">
  <defs>
    <style>
      .cls-1 {
        fill: #fffdfa;
        stroke-width: 0px;
      }
    </style>
  </defs>
  <path class="cls-1" d="m22.5,3.5c-4.67,0-9.18,1.73-12.67,4.84V3.5h-3.17v8.14c0,1.62,1.32,2.94,2.94,2.94h8.14v-3.17h-6.55c6.12-6.24,16.15-6.34,22.39-.22,6.24,6.12,6.34,16.15.22,22.39-6.12,6.24-16.15,6.34-22.39.22-3.04-2.98-4.75-7.05-4.75-11.31h-3.17c0,10.49,8.51,19,19,19s19-8.51,19-19S32.99,3.5,22.5,3.5Z"/>
  <polygon class="cls-1" points="20.92 14.58 20.92 23.16 26.13 28.37 28.37 26.13 24.08 21.84 24.08 14.58 20.92 14.58"/>
</svg>