<?xml version="1.0" encoding="UTF-8"?>
<svg id="_圖層_1" data-name="圖層 1" xmlns="http://www.w3.org/2000/svg" viewBox="0 0 45 45">
  <defs>
    <style>
      .cls-1 {
        fill: #fffdfa;
        stroke-width: 0px;
      }
    </style>
  </defs>
  <path class="cls-1" d="m33.69,27.35h3.2v14.28l-5.8-3.53-4.32,3-4.26-2.96-4.26,2.96-4.32-3.01-5.8,3.52V8.17c0-2.64,2.15-4.79,4.79-4.79h19.17c2.64,0,4.79,2.15,4.79,4.79h-3.2c0-.88-.72-1.6-1.6-1.6H12.91c-.88,0-1.6.72-1.6,1.6v27.76l2.72-1.65,4.2,2.92,4.26-2.96,4.26,2.96,4.2-2.92,2.72,1.65v-8.59Zm-11.18-13.42v-2.56h-5.59v12.78h2.56v-4.79h3.04v-2.56h-3.04v-2.88h3.04Zm7.19,0v-2.56h-5.59v12.78h5.59v-2.56h-3.04v-2.24h3.04v-2.56h-3.04v-2.88h3.04Zm1.6,10.23h5.59v-2.56h-3.04v-2.24h3.04v-2.56h-3.04v-2.88h3.04v-2.56h-5.59v12.78h0Z"/>
</svg>