<?xml version="1.0" encoding="UTF-8"?>
<svg id="_圖層_1" data-name="圖層 1" xmlns="http://www.w3.org/2000/svg" viewBox="0 0 45 45">
  <defs>
    <style>
      .cls-1 {
        fill: #fffdfa;
        stroke-width: 0px;
      }
    </style>
  </defs>
  <path class="cls-1" d="m22.5,29.12c-3.65,0-6.62-2.97-6.62-6.62s2.97-6.62,6.62-6.62,6.62,2.97,6.62,6.62-2.97,6.62-6.62,6.62Zm0-9.94c-1.83,0-3.31,1.49-3.31,3.31s1.49,3.31,3.31,3.31,3.31-1.49,3.31-3.31-1.49-3.31-3.31-3.31Zm-11.59-4.97c-.91,0-1.66.74-1.66,1.66s.74,1.66,1.66,1.66,1.66-.74,1.66-1.66-.74-1.66-1.66-1.66Zm21.53,4.97c0,.91.74,1.66,1.66,1.66s1.66-.74,1.66-1.66-.74-1.66-1.66-1.66-1.66.74-1.66,1.66Zm-21.53,4.97c-.91,0-1.66.74-1.66,1.66s.74,1.66,1.66,1.66,1.66-.74,1.66-1.66-.74-1.66-1.66-1.66Zm21.53,4.97c0,.91.74,1.66,1.66,1.66s1.66-.74,1.66-1.66-.74-1.66-1.66-1.66-1.66.74-1.66,1.66Zm-1.66,8.28c-2.71,0-5.13-.66-7.47-1.3-2.23-.61-4.34-1.18-6.6-1.18-2.6,0-4.24.17-5.66.58-2,.57-4.1.19-5.76-1.07-1.68-1.27-2.65-3.2-2.65-5.31v-12.5c0-3.42,2.15-6.53,5.35-7.75,2.22-.85,4.32-1.28,6.24-1.28,2.71,0,5.13.66,7.47,1.3,2.23.61,4.34,1.18,6.6,1.18,2.6,0,4.24-.17,5.66-.58,2-.57,4.1-.19,5.76,1.07,1.68,1.27,2.65,3.2,2.65,5.31v12.5h0c0,3.42-2.15,6.53-5.36,7.75-2.22.85-4.32,1.28-6.24,1.28h0Zm-14.08-5.8c2.71,0,5.13.66,7.47,1.3,2.23.61,4.34,1.18,6.6,1.18,1.51,0,3.22-.36,5.06-1.06,1.96-.75,3.22-2.57,3.22-4.66v-12.5c0-1.05-.49-2.03-1.33-2.66-.83-.62-1.86-.82-2.86-.53-1.74.5-3.65.71-6.58.71-2.71,0-5.13-.66-7.47-1.3-2.23-.61-4.34-1.18-6.6-1.18-1.52,0-3.22.36-5.06,1.06-1.96.75-3.22,2.57-3.22,4.66v12.5c0,1.05.49,2.03,1.33,2.66.83.62,1.86.82,2.86.53,1.74-.5,3.65-.71,6.58-.71h0Z"/>
</svg>