<?xml version="1.0" encoding="UTF-8"?>
<svg id="_圖層_1" data-name="圖層 1" xmlns="http://www.w3.org/2000/svg" viewBox="0 0 45 45">
  <defs>
    <style>
      .cls-1 {
        fill: #fffdfa;
        stroke-width: 0px;
      }
    </style>
  </defs>
  <path class="cls-1" d="m5,9.37v11.67h16.04V5h-11.67c-2.42,0-4.38,1.96-4.38,4.38Z"/>
  <path class="cls-1" d="m5,35.63c0,2.42,1.96,4.38,4.38,4.38h11.67v-16.04H5v11.67Z"/>
  <path class="cls-1" d="m23.96,23.96v16.04h11.67c2.42,0,4.38-1.96,4.38-4.38v-11.67h-16.04Z"/>
  <polygon class="cls-1" points="29.79 21.04 32.71 21.04 32.71 15.21 38.54 15.21 38.54 12.29 32.71 12.29 32.71 6.46 29.79 6.46 29.79 12.29 23.96 12.29 23.96 15.21 29.79 15.21 29.79 21.04"/>
</svg>