<?xml version="1.0" encoding="UTF-8"?>
<svg id="_圖層_1" data-name="圖層 1" xmlns="http://www.w3.org/2000/svg" viewBox="0 0 45 45">
  <defs>
    <style>
      .cls-1 {
        fill: #381b1d;
        stroke-width: 0px;
      }
    </style>
  </defs>
  <g id="design">
    <path class="cls-1" d="m33.5,5.61c-1.58,0-3.04.56-4.05,1.69L8.05,28.69c-.11.11-.11.23-.23.34v.23l-2.25,8.9c-.11.34,0,.79.34,1.13.11,0,.34.11.68.11h.34l8.9-2.25h.23c.11,0,.23-.11.34-.23l21.4-21.4c1.13-1.13,1.69-2.59,1.69-4.05,0-1.58-.56-3.04-1.69-4.05s-2.7-1.8-4.28-1.8Zm2.48,3.27c.68.68,1.01,1.58,1.01,2.48,0,.56-.11,1.13-.34,1.58l-2.36-2.36h0l-2.36-2.36c1.35-.56,3.04-.34,4.05.68Zm-20.49,25.56l-1.69-1.69,19.71-19.82,1.69,1.69-19.71,19.82Zm-5.07-4.95L30.23,9.66l1.69,1.69L12.1,31.17l-1.69-1.69Zm-.9,2.14l1.91,1.91h0l1.91,1.91-5.07,1.35,1.24-5.18Z"/>
  </g>
</svg>