<?xml version="1.0" encoding="UTF-8"?>
<svg id="_圖層_1" data-name="圖層 1" xmlns="http://www.w3.org/2000/svg" viewBox="0 0 45 45">
  <defs>
    <style>
      .cls-1 {
        fill: #fffdfa;
        stroke-width: 0px;
      }
    </style>
  </defs>
  <path class="cls-1" d="m24.95,31.47c0,1.35-1.1,2.45-2.45,2.45s-2.45-1.1-2.45-2.45,1.1-2.45,2.45-2.45,2.45,1.1,2.45,2.45Zm-2.45-20.38c-1.35,0-2.45,1.1-2.45,2.45v11.42c0,1.35,1.1,2.45,2.45,2.45s2.45-1.1,2.45-2.45v-11.42c0-1.35-1.1-2.45-2.45-2.45Zm19.57.82v21.2c0,4.94-4.02,8.97-8.97,8.97H11.9c-4.94,0-8.97-4.02-8.97-8.97V11.9C2.93,6.96,6.96,2.93,11.9,2.93h21.2c4.94,0,8.97,4.02,8.97,8.97Zm-4.89,0c0-2.25-1.83-4.08-4.08-4.08H11.9c-2.25,0-4.08,1.83-4.08,4.08v21.2c0,2.25,1.83,4.08,4.08,4.08h21.2c2.25,0,4.08-1.83,4.08-4.08V11.9Z"/>
</svg>