<?xml version="1.0" encoding="UTF-8"?>
<svg id="_圖層_1" data-name="圖層 1" xmlns="http://www.w3.org/2000/svg" viewBox="0 0 45 45">
  <defs>
    <style>
      .cls-1 {
        fill: #381b1d;
        stroke-width: 0px;
      }
    </style>
  </defs>
  <path class="cls-1" d="m29.65,42.05c-1.25,0-2.29-.94-2.43-2.18-.33-2.71-2.79-4.65-5.51-4.32-2.26.27-4.04,2.06-4.32,4.32-.15,1.34-1.36,2.31-2.7,2.17s-2.31-1.36-2.17-2.7c.63-5.4,5.51-9.27,10.91-8.65,4.54.53,8.12,4.11,8.65,8.65.15,1.34-.82,2.55-2.16,2.7,0,0,0,0,0,0-.09,0-.18.01-.27.01Zm10.07-14.71c1.34-.15,2.31-1.36,2.17-2.7h0c-.39-4.74-4.22-8.46-8.97-8.71-1.35,0-2.45,1.1-2.45,2.45s1.1,2.45,2.45,2.45c2.24.26,3.98,2.1,4.1,4.35.14,1.24,1.19,2.18,2.43,2.18.09,0,.18,0,.27-.01h0Zm-32.13-2.17c.12-2.26,1.85-4.09,4.1-4.35,1.35,0,2.45-1.1,2.45-2.45s-1.1-2.45-2.45-2.45c-4.75.25-8.58,3.97-8.97,8.71-.15,1.34.82,2.55,2.16,2.7h0c.09,0,.18.01.27.01,1.25,0,2.3-.94,2.43-2.18Zm14.84,3.81c3.16,0,5.71-2.56,5.71-5.71s-2.56-5.71-5.71-5.71-5.71,2.56-5.71,5.71,2.56,5.71,5.71,5.71Zm9.8-14.69c3.16,0,5.71-2.56,5.71-5.71s-2.56-5.71-5.71-5.71-5.71,2.56-5.71,5.71,2.56,5.71,5.71,5.71Zm-19.59,0c3.16,0,5.71-2.56,5.71-5.71s-2.56-5.71-5.71-5.71-5.71,2.56-5.71,5.71,2.56,5.71,5.71,5.71h0,0Z"/>
</svg>