<?xml version="1.0" encoding="UTF-8"?>
<svg id="_圖層_1" data-name="圖層 1" xmlns="http://www.w3.org/2000/svg" viewBox="0 0 45 45">
  <defs>
    <style>
      .cls-1 {
        fill: #fffdfa;
        fill-rule: evenodd;
        stroke-width: 0px;
      }
    </style>
  </defs>
  <path class="cls-1" d="m22.5,42c10.77,0,19.5-8.73,19.5-19.5S33.27,3,22.5,3,3,11.73,3,22.5s8.73,19.5,19.5,19.5Zm0-3.25c4.5,0,8.57-1.83,11.51-4.78-1.99-2.22-5.92-3.88-11.51-3.88s-9.53,1.67-11.51,3.88c2.94,2.95,7.02,4.78,11.51,4.78Zm6.5-15.17c2.32-4.66,1.39-13-6.5-13-7.89,0-8.82,8.34-6.5,13,2.32,4.66,10.68,4.66,13,0Z"/>
</svg>