<?xml version="1.0" encoding="UTF-8"?>
<svg id="_圖層_1" data-name="圖層 1" xmlns="http://www.w3.org/2000/svg" viewBox="0 0 45 45">
  <defs>
    <style>
      .cls-1 {
        fill: #f6f6f6;
        stroke-width: 0px;
      }
    </style>
  </defs>
  <path class="cls-1" d="m31.63,2.5H13.37C7.39,2.5,2.5,7.39,2.5,13.37v18.26c0,5.98,4.89,10.87,10.87,10.87h18.26c5.98,0,10.87-4.89,10.87-10.87V13.37c0-5.98-4.89-10.87-10.87-10.87Zm3.09,29.56H10.28c-.86,0-1.56-.7-1.56-1.56s.7-1.56,1.56-1.56h24.44c.86,0,1.56.7,1.56,1.56s-.7,1.56-1.56,1.56Zm0-8H10.28c-.86,0-1.56-.7-1.56-1.56s.7-1.56,1.56-1.56h24.44c.86,0,1.56.7,1.56,1.56s-.7,1.56-1.56,1.56Zm0-8H10.28c-.86,0-1.56-.7-1.56-1.56s.7-1.56,1.56-1.56h24.44c.86,0,1.56.7,1.56,1.56s-.7,1.56-1.56,1.56Z"/>
</svg>