<?xml version="1.0" encoding="UTF-8"?>
<svg id="_圖層_1" data-name="圖層 1" xmlns="http://www.w3.org/2000/svg" viewBox="0 0 45 45">
  <defs>
    <style>
      .cls-1 {
        fill: #381b1d;
        stroke-width: 0px;
      }
    </style>
  </defs>
  <path class="cls-1" d="m30.4,30.29c1.74-1.03,1.52-4.99-.5-8.86-.87-1.67-1.93-3.01-2.99-3.96-1.27,1-2.81,1.55-4.4,1.55-1.59,0-3.13-.55-4.41-1.55-1.06.94-2.13,2.29-2.99,3.96-2.02,3.87-2.24,7.83-.5,8.86.78.47,1.6.12,2.44-.75-.16.93-.24,1.88-.24,2.83,0,4.43,1.62,8.01,3.61,8.01,1.2,0,1.8-1.3,2.08-3.3.28,1.98.88,3.3,2.07,3.3,1.98,0,3.61-3.58,3.61-8.01,0-1-.09-1.95-.24-2.82.85.87,1.67,1.23,2.45.75h0Zm-7.9-12.77c.81.01,1.6-.14,2.35-.46.75-.32,1.43-.79,2-1.39.57-.6,1.03-1.32,1.34-2.11.31-.79.47-1.64.47-2.49s-.16-1.7-.47-2.49c-.31-.79-.77-1.5-1.34-2.11-.57-.6-1.25-1.07-2-1.39-.75-.32-1.55-.48-2.35-.46-1.59.03-3.12.72-4.23,1.93-1.12,1.21-1.75,2.83-1.74,4.53,0,1.69.63,3.32,1.75,4.53,1.12,1.21,2.64,1.9,4.24,1.92Zm12.2,4.09c1.3-.04,2.53-.62,3.43-1.61.9-.99,1.41-2.31,1.41-3.69s-.51-2.7-1.41-3.69c-.9-.99-2.14-1.56-3.43-1.61-1.32,0-2.59.56-3.53,1.55-.94.99-1.46,2.34-1.46,3.75,0,1.41.53,2.75,1.46,3.75.94.99,2.2,1.55,3.53,1.55h0Zm6.07,3.21c-.71-1.37-1.58-2.48-2.46-3.25-1.05.82-2.31,1.27-3.61,1.27-1.07,0-2.07-.31-2.95-.83.7,1.65,1.14,3.32,1.22,4.81.13,2.29-.54,3.98-1.88,4.77-.29.17-.6.28-.93.34-.08.59-.14,1.21-.14,1.86,0,3.64,1.33,6.58,2.96,6.58.99,0,1.48-1.07,1.71-2.71.23,1.63.72,2.71,1.7,2.71,1.63,0,2.97-2.94,2.97-6.58,0-.82-.08-1.6-.2-2.32.7.71,1.37,1.01,2.01.62,1.43-.84,1.24-4.1-.41-7.27h0Zm-30.47-3.21c.99,0,1.95-.31,2.77-.89.82-.58,1.46-1.41,1.83-2.38.38-.97.48-2.03.28-3.06-.19-1.03-.67-1.97-1.36-2.71-.7-.74-1.59-1.24-2.55-1.45-.97-.2-1.97-.1-2.88.3-.91.4-1.69,1.08-2.24,1.95-.55.87-.84,1.89-.84,2.94,0,1.41.53,2.75,1.46,3.75.94.99,2.2,1.55,3.53,1.55h0Zm3.6,9.99c-2.26-1.33-2.47-5.31-.65-9.58-.9.54-1.92.83-2.95.83-1.36,0-2.6-.48-3.62-1.28-.87.77-1.74,1.88-2.46,3.25-1.66,3.17-1.84,6.43-.41,7.27.64.39,1.31.1,2.01-.61-.13.77-.19,1.54-.19,2.32,0,3.64,1.33,6.58,2.96,6.58.99,0,1.48-1.07,1.71-2.71.23,1.63.72,2.71,1.7,2.71,1.63,0,2.97-2.94,2.97-6.58,0-.65-.06-1.27-.14-1.86-.33-.06-.65-.17-.94-.34h0Z"/>
</svg>