<?xml version="1.0" encoding="UTF-8"?>
<svg id="_圖層_1" data-name="圖層 1" xmlns="http://www.w3.org/2000/svg" viewBox="0 0 45 45">
  <defs>
    <style>
      .cls-1 {
        fill: #381b1d;
        stroke-width: 0px;
      }
    </style>
  </defs>
  <path class="cls-1" d="m20.33,35.5s-2.17,0-2.17-2.17,2.17-8.67,10.83-8.67,10.83,6.5,10.83,8.67-2.17,2.17-2.17,2.17h-17.33Z"/>
  <path class="cls-1" d="m29,22.5c3.59,0,6.5-2.91,6.5-6.5s-2.91-6.5-6.5-6.5-6.5,2.91-6.5,6.5,2.91,6.5,6.5,6.5Z"/>
  <path class="cls-1" d="m16.47,35.5c-.31-.62-.47-1.35-.47-2.17,0-2.94,1.47-5.96,4.19-8.06-1.19-.38-2.58-.61-4.19-.61-8.67,0-10.83,6.5-10.83,8.67s2.17,2.17,2.17,2.17h9.14Z"/>
  <path class="cls-1" d="m14.92,22.5c2.99,0,5.42-2.43,5.42-5.42s-2.43-5.42-5.42-5.42-5.42,2.43-5.42,5.42,2.43,5.42,5.42,5.42Z"/>
</svg>