<?xml version="1.0" encoding="UTF-8"?>
<svg id="_圖層_1" data-name="圖層 1" xmlns="http://www.w3.org/2000/svg" viewBox="0 0 45 45">
  <defs>
    <style>
      .cls-1 {
        fill: #fffdfa;
        fill-rule: evenodd;
        stroke-width: 0px;
      }
    </style>
  </defs>
  <path class="cls-1" d="m8.36,5.18c1.72-1.72,4.55-1.54,6.04.38l4.15,5.33c.76.98,1.03,2.25.73,3.46l-1.27,5.06c-.13.53.02,1.1.41,1.49l5.68,5.68c.39.39.95.55,1.49.41l5.06-1.27c1.2-.3,2.48-.03,3.46.73l5.33,4.15c1.92,1.49,2.09,4.32.38,6.04l-2.39,2.39c-1.71,1.71-4.27,2.46-6.65,1.62-5.92-2.08-11.48-5.49-16.21-10.22-4.73-4.73-8.14-10.29-10.22-16.21-.84-2.38-.09-4.94,1.62-6.65l2.39-2.39Z"/>
</svg>