<?xml version="1.0" encoding="UTF-8"?>
<svg id="_圖層_1" data-name="圖層 1" xmlns="http://www.w3.org/2000/svg" viewBox="0 0 45 45">
  <defs>
    <style>
      .cls-1 {
        fill: #fffdfa;
        stroke-width: 0px;
      }
    </style>
  </defs>
  <path class="cls-1" d="m14.94,30.75h24.06v4.12h-3.51c.05.22.07.45.07.69,0,1.9-1.54,3.44-3.44,3.44s-3.44-1.54-3.44-3.44c0-.24.02-.46.07-.69h-7.7c.05.22.07.45.07.69,0,1.9-1.54,3.44-3.44,3.44s-3.44-1.54-3.44-3.44c0-.25.03-.49.08-.73-2.37-.3-4.2-2.33-4.2-4.77V10.81c0-.38-.31-.69-.69-.69h-3.44v-4.12h3.44c2.65,0,4.81,2.16,4.81,4.81v19.25c0,.38.31.69.69.69Zm24.06-15.81v13.06h-22v-13.06c0-2.65,2.16-4.81,4.81-4.81h12.38c2.65,0,4.81,2.16,4.81,4.81Zm-4.12,0c0-.38-.31-.69-.69-.69h-4.12v4.12h-4.12v-4.12h-4.12c-.38,0-.69.31-.69.69v8.94h13.75v-8.94Z"/>
</svg>